<?xml version="1.0" standalone="no"?>
<!DOCTYPE svg PUBLIC "-//W3C//DTD SVG 1.1//EN" "http://www.w3.org/Graphics/SVG/1.1/DTD/svg11.dtd" >
<svg xmlns="http://www.w3.org/2000/svg" xmlns:xlink="http://www.w3.org/1999/xlink" version="1.1">
<metadata>
Created by FontForge 20170731 at Wed Dec 21 19:28:14 2022
 By Aleksey,,,
Copyright 2021 Arterfak Project. All rights reserved.
</metadata>
<defs>
<font id="BrokenConsole-BoldShadow" horiz-adv-x="1368" >
  <font-face 
    font-family="Broken Console Shadow"
    font-weight="700"
    font-stretch="normal"
    units-per-em="2048"
    panose-1="0 0 0 0 0 0 0 0 0 0"
    ascent="1536"
    descent="-512"
    x-height="1583"
    cap-height="1583"
    bbox="37 -664 2802 2394"
    underline-thickness="102"
    underline-position="-358"
    unicode-range="U+000D-2122"
  />
<missing-glyph horiz-adv-x="512" 
 />
    <glyph glyph-name=".notdef" horiz-adv-x="512" 
 />
    <glyph glyph-name="uni0000" horiz-adv-x="0" 
 />
    <glyph glyph-name="uni0000" horiz-adv-x="0" 
 />
    <glyph glyph-name="uni000D" unicode="&#xd;" horiz-adv-x="512" 
 />
    <glyph glyph-name="space" unicode=" " horiz-adv-x="614" 
 />
    <glyph glyph-name="exclam" unicode="!" horiz-adv-x="618" 
d="M496 563v1020h102v-1122h-373v102h271zM496 2v272h102v-374h-373v102h271z" />
    <glyph glyph-name="quotedbl" unicode="&#x22;" horiz-adv-x="1075" 
d="M1055 1022h-187v102h84v459h103v-561zM498 1124v459h80v-272h22v-289h-188v102h86zM309 1208h-84v103h84v-103zM766 1208h-86v103h86v-103z" />
    <glyph glyph-name="numbersign" unicode="#" horiz-adv-x="1611" 
d="M1319 1225h-102v313h102v-313zM772 1225h-102v313h102v-313zM1591 1122v-272h-272v-172h-102v274h272v170h102zM942 952v-102h-170v-172h-102v274h272zM397 850h-172v102h172v-102zM1319 -100h-275v102h173v404h272v169h102v-272h-272v-403zM397 303h-172v103h172v-103z
M772 -100h-272v102h170v404h272v-103h-170v-403z" />
    <glyph glyph-name="dollar" unicode="$" 
d="M881 1686h-103v270h103v-270zM1161 1497h-102v86h102v-86zM1245 1124v271h103v-373h-373v102h270zM600 1124h-102v187h374v-103h-272v-84zM786 936h-102v86h102v-86zM311 834h-86v102h86v-102zM1161 750h-102v84h102v-84zM684 647h-270v103h270v-103zM881 -662h-187v103
h84v561h281v186h186v459h103v-561h-187v-186h-280v-562zM872 461h-86v102h86v-102zM600 377h-102v84h102v-84zM311 86h-86v102h86v-102zM592 -100h-178v102h178v-102z" />
    <glyph glyph-name="percent" unicode="%" horiz-adv-x="2822" 
d="M963 1395h-103v143h103v-143zM2343 1333h-205v103h103v102h102v-205zM369 1292h102v103h389v-103h-389v-389h-102v389zM2036 1231v102h102v-205h-205v103h103zM1208 801h-245v102h143v389h102v-491zM1831 1026v102h102v-204h-204v102h102zM1421 616v103h103v102h102v103
h103v-185h-13v-20h-192v-205h-205v102h102zM225 903h144v-102h-144v102zM2556 739h-102v144h102v-144zM860 657v144h103v-246h-492v102h389zM2454 739v-102h-390v-389h-102v389h102v102h390zM2802 145h-246v103h143v389h103v-492zM1217 412v102h102v-205h-205v103h103z
M1012 207v102h102v-205h-205v103h103zM1819 248h143v-103h-143v103zM2454 2v143h102v-245h-492v102h390zM807 2v102h102v-204h-204v102h102z" />
    <glyph glyph-name="ampersand" unicode="&#x26;" horiz-adv-x="2113" 
d="M1346 1497h-103v86h103v-86zM784 1124h-102v187h750v84h102v-187h-750v-84zM1159 936h-102v86h102v-86zM598 563h-102v373h374v-102h-272v-271zM1346 750h-103v84h103v-84zM1057 647h-84v103h84v-103zM1534 563h-102v84h102v-84zM1243 563v-102h-84v102h84zM1720 377
h-102v84h102v-84zM784 377h-102v84h102v-84zM309 274h-84v103h84v-103zM1243 274h103v103h86v-103h-86v-188h-187v-186h-561v102h459v186h186v86zM1907 188h-103v86h103v-86zM496 86h-84v102h84v-102zM1618 86h-84v102h84v-102zM2093 -100h-373v102h271v84h102v-186z" />
    <glyph glyph-name="quotesingle" unicode="'" horiz-adv-x="620" 
d="M498 1124v459h102v-561h-186v102h84zM311 1208h-86v103h86v-103z" />
    <glyph glyph-name="parenleft" unicode="(" horiz-adv-x="995" 
d="M872 1686v270h103v-373h-375v-1581h-102v1684h374zM311 -100h-86v102h86v-102zM975 -475h-375v102h272v273h103v-375zM498 -287h-84v103h84v-103z" />
    <glyph glyph-name="parenright" unicode=")" horiz-adv-x="993" 
d="M598 1872h-102v84h102v-84zM786 1686h-102v83h102v-83zM496 1583h-271v103h271v-103zM870 2v1581h103v-1683h-187v-187h-188v-188h-373v102h271v189h188v186h186z" />
    <glyph glyph-name="asterisk" unicode="*" horiz-adv-x="835" 
d="M422 1444h-103v94h103v-94zM815 1341h-197v103h95v94h102v-197zM319 1341h-94v103h94v-103zM516 1247v94h102v-94h-102zM319 1051v94h103v102h94v-102h-94v-197h-197v103h94zM815 948h-197v103h95v94h102v-197z" />
    <glyph glyph-name="plus" unicode="+" horiz-adv-x="1228" 
d="M881 985h-103v225h103v-225zM881 227h-328v103h225v327h328v226h102v-328h-327v-328zM451 657v-102h-226v102h226z" />
    <glyph glyph-name="comma" unicode="," horiz-adv-x="620" 
d="M498 -184v458h102v-561h-188v103h86zM309 -100h-84v102h84v-102z" />
    <glyph glyph-name="hyphen" unicode="-" horiz-adv-x="1228" 
d="M1106 657v226h102v-328h-983v102h881z" />
    <glyph glyph-name="period" unicode="." horiz-adv-x="620" 
d="M498 2v272h102v-374h-375v102h273z" />
    <glyph glyph-name="slash" unicode="/" horiz-adv-x="2115" 
d="M1993 1497v86h102v-188h-186v-187h-187v-186h-188v-188h-186v-187h-187v-186h-188v-187h-187v-188h-186v-186h-375v102h273v186h186v189h186v186h189v187h186v186h187v188h188v187h186v186h187z" />
    <glyph glyph-name="zero" unicode="0" 
d="M1159 1497h-102v86h102v-86zM1245 188v1207h103v-1309h-189v-186h-747v102h645v186h188zM870 1208h-270v-831h-102v934h372v-103zM309 86h-84v102h84v-102z" />
    <glyph glyph-name="one" unicode="1" horiz-adv-x="993" 
d="M786 377h-102v1206h102v-1206zM309 1208h-84v103h84v-103zM870 2v272h103v-374h-748v102h645z" />
    <glyph glyph-name="two" unicode="2" horiz-adv-x="1366" 
d="M1159 1497h-102v86h102v-86zM1243 936v459h103v-561h-187v-187h-186v-186h-189v-84h-102v186h188v187h187v186h186zM598 1022h-373v102h271v187h374v-103h-272v-186zM1346 -100h-1121v102h1018v272h103v-374z" />
    <glyph glyph-name="three" unicode="3" 
d="M1159 1497h-102v86h102v-86zM1245 991v404h103v-506h-189v-139h-102v241h188zM870 1208h-645v103h645v-103zM870 645h-458v103h458v-103zM1159 -100h-747v102h645v186h188v459h103v-561h-189v-186zM600 377h-102v84h102v-84zM309 86h-84v102h84v-102z" />
    <glyph glyph-name="four" unicode="4" horiz-adv-x="1554" 
d="M1534 -100h-375v102h273v1581h102v-1683zM1057 1311v-103h-84v-186h-187v-188h-186v-84h-102v186h186v188h186v187h187zM309 461h-84v102h84v-102zM1057 274h-645v103h645v-103z" />
    <glyph glyph-name="five" unicode="5" 
d="M1245 1311v272h103v-375h-748v-217h-102v320h747zM309 889h-84v102h84v-102zM1159 750h-102v139h102v-139zM870 645h-458v103h458v-103zM1159 -100h-747v102h645v186h188v459h103v-561h-189v-186zM600 377h-102v84h102v-84zM309 86h-84v102h84v-102z" />
    <glyph glyph-name="six" unicode="6" horiz-adv-x="1366" 
d="M598 993h-102v318h561v272h102v-375h-561v-215zM1057 891h102v-141h-102v141zM870 750v-103h-272v-270h-102v373h374zM1159 -100h-747v102h645v186h186v459h103v-561h-187v-186zM309 86h-84v102h84v-102z" />
    <glyph glyph-name="seven" unicode="7" horiz-adv-x="1181" 
d="M1059 936v647h102v-749h-188v-187h-187v-186h-186v-561h-375v102h273v561h186v187h186v186h189zM684 1208h-459v103h459v-103z" />
    <glyph glyph-name="eight" unicode="8" 
d="M1059 1583h102v-86h-102v86zM1161 750h-102v243h186v402h103v-504h-187v-141zM870 1311v-103h-270v-215h-102v318h372zM311 891h-86v102h86v-102zM870 750v-103h-270v-270h-102v373h372zM1161 -100h-747v102h645v186h186v459h103v-561h-187v-186zM311 86h-86v102h86v-102
z" />
    <glyph glyph-name="nine" unicode="9" 
d="M1059 1583h102v-86h-102v86zM1161 -100h-747v102h645v186h186v1207h103v-1309h-187v-186zM872 1311v-103h-272v-272h-102v375h374zM311 834h-86v102h86v-102zM872 592h-458v102h458v-102z" />
    <glyph glyph-name="colon" unicode=":" horiz-adv-x="618" 
d="M496 637v272h102v-374h-373v102h271zM496 2v272h102v-374h-373v102h271z" />
    <glyph glyph-name="semicolon" unicode=";" horiz-adv-x="618" 
d="M496 637v272h102v-374h-373v102h271zM496 -184v458h102v-561h-186v103h84zM309 -100h-84v102h84v-102z" />
    <glyph glyph-name="less" unicode="&#x3c;" horiz-adv-x="806" 
d="M786 1022h-186v102h84v84h102v-186zM498 936v86h102v-188h-186v102h84zM311 750v84h103v-84h-103zM311 647h-86v103h86v-103zM600 563h-102v84h102v-84zM498 461h-84v102h84v-102zM786 461v-187h-186v103h84v84h102z" />
    <glyph glyph-name="equal" unicode="=" horiz-adv-x="1204" 
d="M1081 920v159h103v-262h-959v103h856zM1081 494v159h103v-262h-959v103h856z" />
    <glyph glyph-name="greater" unicode="&#x3e;" horiz-adv-x="806" 
d="M412 1124h-103v84h103v-84zM309 1022h-84v102h84v-102zM600 936h-102v86h102v-86zM498 834h-86v102h86v-102zM786 647h-186v103h84v84h102v-187zM498 563v84h102v-186h-188v102h86zM309 377v84h103v-187h-187v103h84z" />
    <glyph glyph-name="question" unicode="?" horiz-adv-x="1366" 
d="M1159 1497h-102v86h102v-86zM1243 750v645h103v-748h-373v-186h-375v102h272v187h373zM598 1022h-373v102h271v187h374v-103h-272v-186zM870 2v272h103v-374h-375v102h272z" />
    <glyph glyph-name="at" unicode="@" horiz-adv-x="1884" 
d="M1397 1405h-103v133h103v-133zM694 1069h-235v102h133v132h102v102h600v-102h-600v-234zM1630 1171h-102v132h102v-132zM1528 1069h-131v102h131v-102zM1163 938h-102v131h102v-131zM459 471h-103v598h103v-598zM1864 369h-234v102h131v598h103v-700zM825 705v131h103
v102h133v-102h-133v-131h-103zM1397 471h-103v365h103v-365zM825 602h-131v103h131v-103zM1294 369h-366v102h366v-102zM356 369h-131v102h131v-102zM694 236h-102v133h102v-133zM1528 236v133h102v-236h-233v103h131zM592 133h-133v103h133v-103zM1294 2v131h103v-233h-703
v102h600z" />
    <glyph glyph-name="A" unicode="A" horiz-adv-x="1554" 
d="M1161 1497h-102v86h102v-86zM1245 1395h103v-84h-103v84zM600 684h-102v440h186v187h186v-103h-84v-186h-186v-338zM1534 -100h-373v102h271v1206h102v-1308zM1059 1124v-102h-86v102h86zM600 -100h-375v102h273v440h561v-102h-459v-440z" />
    <glyph glyph-name="B" unicode="B" 
d="M1059 1583h102v-86h-102v86zM1161 750h-102v186h186v459h103v-561h-187v-84zM872 1311v-103h-272v-243h-102v346h374zM872 723v-102h-272v-244h-102v346h374zM1161 -100h-936v102h834v186h186v459h103v-561h-187v-186z" />
    <glyph glyph-name="C" unicode="C" 
d="M1159 1497h-102v86h102v-86zM1348 1395v-373h-375v102h272v271h103zM598 377h-102v934h374v-103h-272v-831zM1159 -100h-747v102h645v186h188v273h103v-375h-189v-186zM309 86h-84v102h84v-102z" />
    <glyph glyph-name="D" unicode="D" 
d="M973 1497h-103v86h103v-86zM1057 1395h102v-84h-102v84zM870 1311v-103h-272v-831h-102v934h374zM973 -100h-748v102h645v186h187v189h188v831h103v-934h-189v-188h-186v-186z" />
    <glyph glyph-name="E" unicode="E" horiz-adv-x="1181" 
d="M1059 1311v272h102v-375h-561v-243h-102v346h561zM600 377h-102v346h561v139h102v-241h-561v-244zM1161 -100h-747v102h645v272h102v-374zM311 86h-86v102h86v-102z" />
    <glyph glyph-name="F" unicode="F" horiz-adv-x="1181" 
d="M1059 1311v272h102v-375h-561v-243h-102v346h561zM600 -100h-375v102h273v721h561v139h102v-241h-561v-721z" />
    <glyph glyph-name="G" unicode="G" 
d="M600 377h-102v934h561v272h102v-375h-561v-831zM1348 862v-962h-187v102h84v860h103zM872 621h-86v102h86v-102zM311 86h-86v102h86v-102zM975 -100h-561v102h458v186h187v-102h-84v-186z" />
    <glyph glyph-name="H" unicode="H" horiz-adv-x="1554" 
d="M600 965h-102v618h102v-618zM1432 2v1581h102v-1683h-375v102h273zM600 -100h-375v102h273v721h559v-102h-457v-721z" />
    <glyph glyph-name="I" unicode="I" horiz-adv-x="993" 
d="M786 377h-102v934h186v272h103v-375h-187v-831zM309 1311v-103h-84v103h84zM973 -100h-748v102h645v272h103v-374z" />
    <glyph glyph-name="J" unicode="J" 
d="M1348 1583v-1497h-187v-186h-747v102h645v186h186v1395h103zM872 1208h-458v103h458v-103zM600 377h-102v84h102v-84zM311 86h-86v102h86v-102z" />
    <glyph glyph-name="K" unicode="K" horiz-adv-x="1554" 
d="M1432 1311v272h102v-375h-186v-186h-189v-188h-186v-84h-103v186h187v188h188v187h187zM600 965h-102v618h102v-618zM600 -100h-375v102h273v721h186v-102h-84v-721zM1159 563h-102v84h102v-84zM1348 377h-103v84h103v-84zM870 274h-84v103h84v-103zM1534 -100h-375v102
h273v272h102v-374zM1057 86h-84v102h84v-102z" />
    <glyph glyph-name="L" unicode="L" horiz-adv-x="1181" 
d="M600 377h-102v1206h102v-1206zM1059 2v272h102v-374h-749v102h647zM309 86h-84v102h84v-102z" />
    <glyph glyph-name="M" unicode="M" horiz-adv-x="2115" 
d="M1909 1497h-103v86h103v-86zM786 1497h-102v86h102v-86zM973 1311h-103v84h103v-84zM1993 2v1393h102v-1495h-375v102h273zM600 -100h-375v102h273v1309h186v-103h-84v-1308zM1348 -100h-375v102h272v1122h187v187h186v-103h-84v-186h-186v-1122zM870 1022h-84v102h84
v-102z" />
    <glyph glyph-name="N" unicode="N" horiz-adv-x="1929" 
d="M600 1497h-102v86h102v-86zM1806 2v1581h103v-1683h-375v102h272zM786 1311h-102v84h102v-84zM973 1124h-103v84h103v-84zM600 -100h-375v102h273v1122h186v-102h-84v-1122zM1161 936h-102v86h102v-86zM870 834h-84v102h84v-102zM1348 750h-103v84h103v-84zM1059 647h-86
v103h86v-103zM1245 461h-84v102h84v-102zM1432 274h-84v103h84v-103z" />
    <glyph glyph-name="O" unicode="O" 
d="M1059 1583h102v-86h-102v86zM1161 -100h-749v102h647v186h186v1207h103v-1309h-187v-186zM870 1311v-103h-270v-831h-102v934h372zM309 86h-84v102h84v-102z" />
    <glyph glyph-name="P" unicode="P" horiz-adv-x="1366" 
d="M1159 1497h-102v86h102v-86zM1243 936v459h103v-561h-187v-187h-186v-186h-375v-561h-373v102h271v561h374v187h187v186h186zM870 1311v-103h-272v-272h-102v375h374z" />
    <glyph glyph-name="Q" unicode="Q" 
d="M1057 1583h102v-86h-102v86zM1159 2h-102v186h188v1207h103v-1309h-189v-84zM870 1311v-103h-272v-831h-102v934h374zM309 86h-84v102h84v-102zM870 -100h-458v102h458v-102zM1348 -475h-375v102h272v273h103v-375z" />
    <glyph glyph-name="R" unicode="R" 
d="M1059 1583h102v-86h-102v86zM1161 563h-102v373h186v459h103v-561h-187v-271zM872 1311v-103h-272v-272h-102v375h374zM600 -100h-375v102h273v561h374v-102h-272v-561zM1348 -100h-373v102h270v459h103v-561z" />
    <glyph glyph-name="S" unicode="S" 
d="M1159 1497h-102v86h102v-86zM1348 1395v-373h-375v102h272v271h103zM598 1124h-102v187h374v-103h-272v-84zM786 936h-102v86h102v-86zM309 834h-84v102h84v-102zM1159 750h-102v84h102v-84zM684 647h-272v103h272v-103zM1159 -100h-747v102h645v186h188v459h103v-561
h-189v-186zM870 461h-84v102h84v-102zM598 377h-102v84h102v-84zM309 86h-84v102h84v-102z" />
    <glyph glyph-name="T" unicode="T" 
d="M973 -100h-375v102h272v1309h375v272h103v-375h-375v-1308zM496 1311v-103h-271v103h271z" />
    <glyph glyph-name="U" unicode="U" 
d="M600 377h-102v1206h102v-1206zM1245 188v1395h103v-1497h-187v-186h-747v102h645v186h186zM311 86h-86v102h86v-102z" />
    <glyph glyph-name="V" unicode="V" 
d="M600 377h-102v1206h102v-1206zM1348 1583v-1309h-189v-188h-186v-186h-373v102h270v186h187v189h188v1206h103zM309 274h-84v103h84v-103zM498 86h-86v102h86v-102z" />
    <glyph glyph-name="W" unicode="W" horiz-adv-x="2115" 
d="M1348 563h-103v1020h103v-1020zM600 377h-102v1206h102v-1206zM1993 377v1206h102v-1309h-186v-188h-189v-186h-372v102h270v186h188v189h187zM1534 377h-102v84h102v-84zM309 274h-84v103h84v-103zM498 86h-86v102h86v-102zM973 -100h-373v102h270v186h375v-102h-272
v-186z" />
    <glyph glyph-name="X" unicode="X" horiz-adv-x="1554" 
d="M600 1124h-102v459h102v-459zM1432 1124v459h102v-561h-186v-188h-187v-84h-102v186h186v188h187zM309 1022h-84v102h84v-102zM786 936h-102v86h102v-86zM498 834h-86v102h86v-102zM600 -100h-375v102h273v561h186v187h186v-103h-84v-186h-186v-561zM1348 563h-103v84
h103v-84zM1059 461h-86v102h86v-102zM1534 -100h-373v102h271v459h102v-561z" />
    <glyph glyph-name="Y" unicode="Y" horiz-adv-x="1554" 
d="M598 1124h-102v459h102v-459zM1432 1124v459h102v-561h-188v-188h-187v-187h-94v-747h-373v102h271v748h94v186h186v188h189zM309 1022h-84v102h84v-102zM784 936h-102v86h102v-86zM496 834h-84v102h84v-102z" />
    <glyph glyph-name="Z" unicode="Z" 
d="M786 461h-188v-84h-102v186h188v187h373v186h188v647h103v-749h-189v-187h-373v-186zM870 1208h-645v103h645v-103zM1348 -100h-1123v102h1020v272h103v-374z" />
    <glyph glyph-name="bracketleft" unicode="[" horiz-adv-x="993" 
d="M870 1686v270h103v-373h-373v-1581h-102v1684h372zM973 -475h-748v102h645v273h103v-375z" />
    <glyph glyph-name="backslash" unicode="\" horiz-adv-x="2115" 
d="M598 1497h-102v86h102v-86zM309 1395h-84v102h84v-102zM786 1311h-102v84h102v-84zM496 1208h-84v103h84v-103zM973 1124h-103v84h103v-84zM684 1022h-86v102h86v-102zM1159 936h-102v86h102v-86zM870 834h-84v102h84v-102zM1348 750h-103v84h103v-84zM1057 647h-84v103
h84v-103zM1534 563h-102v84h102v-84zM1245 461h-86v102h86v-102zM1720 377h-102v84h102v-84zM1432 274h-84v103h84v-103zM1907 188h-103v86h103v-86zM1618 86h-84v102h84v-102zM1993 2v84h102v-186h-375v102h273z" />
    <glyph glyph-name="bracketright" unicode="]" horiz-adv-x="993" 
d="M870 -373v2329h103v-2431h-748v102h645zM498 1583h-273v103h273v-103z" />
    <glyph glyph-name="asciicircum" unicode="^" horiz-adv-x="1181" 
d="M786 1497h-102v86h102v-86zM498 1395h102v102h84v-102h-84v-561h-186v-187h-189v103h86v186h187v459zM872 1395h103v-84h-103v84zM1161 647h-186v103h84v458h102v-561zM872 834h-86v102h86v-102z" />
    <glyph glyph-name="underscore" unicode="_" horiz-adv-x="1556" 
d="M1434 -326v226h102v-328h-1311v102h1209z" />
    <glyph glyph-name="grave" unicode="`" horiz-adv-x="618" 
d="M412 2152h-103v86h103v-86zM598 1677h-186v103h84v270h102v-373zM309 1966v-102h-84v102h84z" />
    <glyph glyph-name="a" unicode="a" horiz-adv-x="1554" 
d="M1161 1497h-102v86h102v-86zM1245 1395h103v-84h-103v84zM600 684h-102v440h186v187h186v-103h-84v-186h-186v-338zM1534 -100h-373v102h271v1206h102v-1308zM1059 1124v-102h-86v102h86zM600 -100h-375v102h273v440h561v-102h-459v-440z" />
    <glyph glyph-name="b" unicode="b" 
d="M1059 1583h102v-86h-102v86zM1161 750h-102v186h186v459h103v-561h-187v-84zM872 1311v-103h-272v-243h-102v346h374zM872 723v-102h-272v-244h-102v346h374zM1161 -100h-936v102h834v186h186v459h103v-561h-187v-186z" />
    <glyph glyph-name="c" unicode="c" 
d="M1159 1497h-102v86h102v-86zM1348 1395v-373h-375v102h272v271h103zM598 377h-102v934h374v-103h-272v-831zM1159 -100h-747v102h645v186h188v273h103v-375h-189v-186zM309 86h-84v102h84v-102z" />
    <glyph glyph-name="d" unicode="d" 
d="M973 1497h-103v86h103v-86zM1057 1395h102v-84h-102v84zM870 1311v-103h-272v-831h-102v934h374zM973 -100h-748v102h645v186h187v189h188v831h103v-934h-189v-188h-186v-186z" />
    <glyph glyph-name="e" unicode="e" horiz-adv-x="1181" 
d="M1059 1311v272h102v-375h-561v-243h-102v346h561zM600 377h-102v346h561v139h102v-241h-561v-244zM1161 -100h-747v102h645v272h102v-374zM311 86h-86v102h86v-102z" />
    <glyph glyph-name="f" unicode="f" horiz-adv-x="1181" 
d="M1059 1311v272h102v-375h-561v-243h-102v346h561zM600 -100h-375v102h273v721h561v139h102v-241h-561v-721z" />
    <glyph glyph-name="g" unicode="g" 
d="M600 377h-102v934h561v272h102v-375h-561v-831zM1348 862v-962h-187v102h84v860h103zM872 621h-86v102h86v-102zM311 86h-86v102h86v-102zM975 -100h-561v102h458v186h187v-102h-84v-186z" />
    <glyph glyph-name="h" unicode="h" horiz-adv-x="1554" 
d="M600 965h-102v618h102v-618zM1432 2v1581h102v-1683h-375v102h273zM600 -100h-375v102h273v721h559v-102h-457v-721z" />
    <glyph glyph-name="i" unicode="i" horiz-adv-x="993" 
d="M786 377h-102v934h186v272h103v-375h-187v-831zM309 1311v-103h-84v103h84zM973 -100h-748v102h645v272h103v-374z" />
    <glyph glyph-name="j" unicode="j" 
d="M1348 1583v-1497h-187v-186h-747v102h645v186h186v1395h103zM872 1208h-458v103h458v-103zM600 377h-102v84h102v-84zM311 86h-86v102h86v-102z" />
    <glyph glyph-name="k" unicode="k" horiz-adv-x="1554" 
d="M1432 1311v272h102v-375h-186v-186h-189v-188h-186v-84h-103v186h187v188h188v187h187zM600 965h-102v618h102v-618zM600 -100h-375v102h273v721h186v-102h-84v-721zM1159 563h-102v84h102v-84zM1348 377h-103v84h103v-84zM870 274h-84v103h84v-103zM1534 -100h-375v102
h273v272h102v-374zM1057 86h-84v102h84v-102z" />
    <glyph glyph-name="l" unicode="l" horiz-adv-x="1181" 
d="M600 377h-102v1206h102v-1206zM1059 2v272h102v-374h-749v102h647zM309 86h-84v102h84v-102z" />
    <glyph glyph-name="m" unicode="m" horiz-adv-x="2115" 
d="M1909 1497h-103v86h103v-86zM786 1497h-102v86h102v-86zM973 1311h-103v84h103v-84zM1993 2v1393h102v-1495h-375v102h273zM600 -100h-375v102h273v1309h186v-103h-84v-1308zM1348 -100h-375v102h272v1122h187v187h186v-103h-84v-186h-186v-1122zM870 1022h-84v102h84
v-102z" />
    <glyph glyph-name="n" unicode="n" horiz-adv-x="1929" 
d="M600 1497h-102v86h102v-86zM1806 2v1581h103v-1683h-375v102h272zM786 1311h-102v84h102v-84zM973 1124h-103v84h103v-84zM600 -100h-375v102h273v1122h186v-102h-84v-1122zM1161 936h-102v86h102v-86zM870 834h-84v102h84v-102zM1348 750h-103v84h103v-84zM1059 647h-86
v103h86v-103zM1245 461h-84v102h84v-102zM1432 274h-84v103h84v-103z" />
    <glyph glyph-name="o" unicode="o" 
d="M1059 1583h102v-86h-102v86zM1161 -100h-749v102h647v186h186v1207h103v-1309h-187v-186zM870 1311v-103h-270v-831h-102v934h372zM309 86h-84v102h84v-102z" />
    <glyph glyph-name="p" unicode="p" horiz-adv-x="1366" 
d="M1159 1497h-102v86h102v-86zM1243 936v459h103v-561h-187v-187h-186v-186h-375v-561h-373v102h271v561h374v187h187v186h186zM870 1311v-103h-272v-272h-102v375h374z" />
    <glyph glyph-name="q" unicode="q" 
d="M1057 1583h102v-86h-102v86zM1159 2h-102v186h188v1207h103v-1309h-189v-84zM870 1311v-103h-272v-831h-102v934h374zM309 86h-84v102h84v-102zM870 -100h-458v102h458v-102zM1348 -475h-375v102h272v273h103v-375z" />
    <glyph glyph-name="r" unicode="r" 
d="M1059 1583h102v-86h-102v86zM1161 563h-102v373h186v459h103v-561h-187v-271zM872 1311v-103h-272v-272h-102v375h374zM600 -100h-375v102h273v561h374v-102h-272v-561zM1348 -100h-373v102h270v459h103v-561z" />
    <glyph glyph-name="s" unicode="s" 
d="M1159 1497h-102v86h102v-86zM1348 1395v-373h-375v102h272v271h103zM598 1124h-102v187h374v-103h-272v-84zM786 936h-102v86h102v-86zM309 834h-84v102h84v-102zM1159 750h-102v84h102v-84zM684 647h-272v103h272v-103zM1159 -100h-747v102h645v186h188v459h103v-561
h-189v-186zM870 461h-84v102h84v-102zM598 377h-102v84h102v-84zM309 86h-84v102h84v-102z" />
    <glyph glyph-name="t" unicode="t" 
d="M973 -100h-375v102h272v1309h375v272h103v-375h-375v-1308zM496 1311v-103h-271v103h271z" />
    <glyph glyph-name="u" unicode="u" 
d="M600 377h-102v1206h102v-1206zM1245 188v1395h103v-1497h-187v-186h-747v102h645v186h186zM311 86h-86v102h86v-102z" />
    <glyph glyph-name="v" unicode="v" 
d="M600 377h-102v1206h102v-1206zM1348 1583v-1309h-189v-188h-186v-186h-373v102h270v186h187v189h188v1206h103zM309 274h-84v103h84v-103zM498 86h-86v102h86v-102z" />
    <glyph glyph-name="w" unicode="w" horiz-adv-x="2115" 
d="M1348 563h-103v1020h103v-1020zM600 377h-102v1206h102v-1206zM1993 377v1206h102v-1309h-186v-188h-189v-186h-372v102h270v186h188v189h187zM1534 377h-102v84h102v-84zM309 274h-84v103h84v-103zM498 86h-86v102h86v-102zM973 -100h-373v102h270v186h375v-102h-272
v-186z" />
    <glyph glyph-name="x" unicode="x" horiz-adv-x="1554" 
d="M600 1124h-102v459h102v-459zM1432 1124v459h102v-561h-186v-188h-187v-84h-102v186h186v188h187zM309 1022h-84v102h84v-102zM786 936h-102v86h102v-86zM498 834h-86v102h86v-102zM600 -100h-375v102h273v561h186v187h186v-103h-84v-186h-186v-561zM1348 563h-103v84
h103v-84zM1059 461h-86v102h86v-102zM1534 -100h-373v102h271v459h102v-561z" />
    <glyph glyph-name="y" unicode="y" horiz-adv-x="1554" 
d="M598 1124h-102v459h102v-459zM1432 1124v459h102v-561h-188v-188h-187v-187h-94v-747h-373v102h271v748h94v186h186v188h189zM309 1022h-84v102h84v-102zM784 936h-102v86h102v-86zM496 834h-84v102h84v-102z" />
    <glyph glyph-name="z" unicode="z" 
d="M786 461h-188v-84h-102v186h188v187h373v186h188v647h103v-749h-189v-187h-373v-186zM870 1208h-645v103h645v-103zM1348 -100h-1123v102h1020v272h103v-374z" />
    <glyph glyph-name="braceleft" unicode="{" horiz-adv-x="1179" 
d="M598 834h-186v102h84v188h186v562h375v270h102v-373h-375v-561h-186v-188zM309 750v84h103v-84h-103zM309 647h-84v103h84v-103zM598 563h-102v84h102v-84zM784 2h-102v459h102v-459zM496 2v-102h-84v102h84zM1159 -475h-375v102h273v273h102v-375zM682 -287h-84v103h84
v-103z" />
    <glyph glyph-name="bar" unicode="|" horiz-adv-x="479" 
d="M356 1772h103v-2341h-234v102h131v2239z" />
    <glyph glyph-name="braceright" unicode="}" horiz-adv-x="1179" 
d="M598 1872h-102v84h102v-84zM786 1686h-102v83h102v-83zM496 1583h-271v103h271v-103zM973 936h-103v647h103v-647zM684 1022h-86v102h86v-102zM870 834h-84v102h84v-102zM1159 647h-186v103h84v84h102v-187zM870 2v645h103v-747h-187v-187h-188v-188h-373v102h271v189
h188v186h186z" />
    <glyph glyph-name="asciitilde" unicode="~" horiz-adv-x="1181" 
d="M786 1124h-102v84h102v-84zM1059 936v272h102v-374h-186v-187h-375v103h272v186h187zM414 647h-189v103h86v186h187v-102h-84v-187z" />
    <glyph glyph-name="cent" unicode="&#xa2;" 
d="M879 1686h-103v270h103v-270zM1159 1497h-102v86h102v-86zM1245 1124v271h103v-373h-375v102h272zM598 377h-102v934h374v-103h-272v-831zM879 -662h-187v103h84v561h281v186h188v273h103v-375h-189v-186h-280v-562zM309 86h-84v102h84v-102zM590 -100h-178v102h178v-102
z" />
    <glyph glyph-name="sterling" unicode="&#xa3;" horiz-adv-x="1740" 
d="M1534 1497h-102v86h102v-86zM1618 1124v271h102v-373h-374v102h272zM973 936h-103v375h373v-103h-270v-272zM973 377h-103v373h373v84h103v-187h-373v-270zM496 647h-271v103h271v-103zM1720 -100h-1308v102h1206v272h102v-374z" />
    <glyph glyph-name="yen" unicode="&#xa5;" horiz-adv-x="1554" 
d="M598 1124h-102v459h102v-459zM965 750h92v186h186v188h189v459h102v-561h-188v-188h-187v-185h-194v101zM309 1022h-84v102h84v-102zM786 936h-102v86h102v-86zM496 834h-84v102h84v-102zM1337 461v86h103v-189h-103v23h-372v80h372zM590 381h-273v80h273v-80zM1067 -100
h-375v102h273v193h372v84h103v-187h-373v-192zM590 92h-273v103h273v-103z" />
    <glyph glyph-name="brokenbar" unicode="&#xa6;" horiz-adv-x="479" 
d="M356 938v834h103v-936h-234v102h131zM356 -467v1069h103v-1171h-234v102h131z" />
    <glyph glyph-name="dieresis" unicode="&#xa8;" horiz-adv-x="1148" 
d="M1026 2105h102v-374h-374v102h272v272zM496 2105h102v-374h-373v102h271v272z" />
    <glyph glyph-name="copyright" unicode="&#xa9;" horiz-adv-x="1622" 
d="M1208 1444h-102v94h102v-94zM618 1145h-196v102h94v94h102v103h488v-103h-488v-196zM1405 1247h-102v94h102v-94zM1303 1145h-95v102h95v-102zM1155 948h-393v103h291v94h102v-197zM422 657h-103v488h103v-488zM1602 555h-197v102h94v488h103v-590zM659 854v94h103v-94
h-103zM659 752h-94v102h94v-102zM762 657h291v95h102v-95h-49v-102h-344v102zM319 555h-94v102h94v-102zM618 461h-102v94h102v-94zM1303 461v94h102v-197h-197v103h95zM516 358h-94v103h94v-103zM1106 264v94h102v-196h-590v102h488z" />
    <glyph glyph-name="registered" unicode="&#xae;" horiz-adv-x="1228" 
d="M1012 1444h-103v94h103v-94zM319 1341h103v103h487v-103h-487v-487h-103v487zM1208 752h-196v102h94v487h102v-589zM815 948h-197v103h95v94h102v-197zM319 752h-94v102h94v-102zM1012 555h-590v102h487v95h103v-197z" />
    <glyph glyph-name="degree" unicode="&#xb0;" horiz-adv-x="806" 
d="M684 1124v459h102v-561h-561v102h459zM496 1497v-102h-84v-84h-103v186h187z" />
    <glyph glyph-name="plusminus" unicode="&#xb1;" horiz-adv-x="1142" 
d="M823 1098h-102v196h102v-196zM1020 995h102v-299h-299v-297h-299v103h197v297h299v196zM422 696h-197v103h197v-103zM1020 2v195h102v-297h-897v102h795z" />
    <glyph glyph-name="twosuperior" unicode="&#xb2;" horiz-adv-x="1032" 
d="M815 1444h-102v94h102v-94zM319 1341h103v103h291v-103h-291v-196h-197v102h94v94zM1012 1145h-197v102h94v94h103v-196zM713 1051v94h102v-197h-197v103h95zM516 854v94h102v-94h-102zM1012 555h-787v102h684v95h103v-197z" />
    <glyph glyph-name="threesuperior" unicode="&#xb3;" horiz-adv-x="1032" 
d="M1012 1145h-197v102h94v291h103v-393zM713 1341h-488v103h488v-103zM713 1051v94h102v-94h-102zM713 948h-95v103h95v-103zM422 854h-103v94h103v-94zM1012 752h-197v102h94v94h103v-196zM319 752h-94v102h94v-102zM713 657v95h102v-197h-393v102h291z" />
    <glyph glyph-name="acute" unicode="&#xb4;" horiz-adv-x="618" 
d="M412 1864v-187h-187v103h84v186h187v272h102v-374h-186z" />
    <glyph glyph-name="cedilla" unicode="&#xb8;" horiz-adv-x="806" 
d="M598 0h-102v84h102v-84zM496 0v-102h-84v102h84zM598 -664h-373v103h271v186h188v273h102v-375h-188v-187z" />
    <glyph glyph-name="onesuperior" unicode="&#xb9;" horiz-adv-x="835" 
d="M618 854h-102v684h102v-684zM319 1341h-94v103h94v-103zM713 657v95h102v-197h-590v102h488z" />
    <glyph glyph-name="onequarter" unicode="&#xbc;" horiz-adv-x="2211" 
d="M618 854h-102v684h102v-684zM1995 1276h-197v102h94v95h103v-197zM319 1341h-94v103h94v-103zM1696 1182v94h102v-197h-196v103h94zM1499 985v94h103v-196h-197v102h94zM1303 788v95h102v-197h-197v102h95zM2089 2v881h102v-983h-196v102h94zM1798 489h-196v103h94v94
h102v102h94v-102h-94v-197zM713 555h-488v102h488v95h102v-160h-102v-37zM1106 592v94h102v-197h-196v103h94zM1602 395h-103v94h103v-94zM909 395v94h103v-196h-197v102h94zM1405 395h94v-102h-94v102zM713 199v94h102v-197h-197v103h95zM1892 96h-290v103h290v-103zM516 2
v94h102v-196h-196v102h94z" />
    <glyph glyph-name="onehalf" unicode="&#xbd;" horiz-adv-x="2408" 
d="M618 854h-102v684h102v-684zM1995 1276h-197v102h94v95h103v-197zM319 1341h-94v103h94v-103zM1696 1182v94h102v-197h-196v103h94zM1499 985v94h103v-196h-197v102h94zM2191 788h-102v95h102v-95zM1303 788v95h102v-197h-197v102h95zM1696 686h102v102h291v-102h-291
v-197h-196v103h94v94zM713 555h-488v102h488v95h102v-160h-102v-37zM1106 592v94h102v-197h-196v103h94zM2388 489h-197v103h95v94h102v-197zM2191 293h-196v102h94v94h102v-196zM909 395v94h103v-196h-197v102h94zM1995 199h-103v94h103v-94zM713 199v94h102v-197h-197v103
h95zM2388 -100h-786v102h684v94h102v-196zM516 2v94h102v-196h-196v102h94z" />
    <glyph glyph-name="threequarters" unicode="&#xbe;" horiz-adv-x="2248" 
d="M1012 1145h-197v102h94v291h103v-393zM2032 1276h-197v102h94v95h103v-197zM713 1341h-488v103h488v-103zM1733 1182v94h102v-197h-197v103h95zM713 1051v94h102v-94h-102zM1536 985v94h102v-196h-196v102h94zM713 948h-95v103h95v-103zM319 854v94h103v-94h-103z
M946 752h-131v-160h-65v-37h-328v102h291v95h102v102h94v94h103v-160h-66v-36zM1339 788v95h103v-197h-197v102h94zM2228 -100h-196v102h94v881h102v-983zM319 752h-94v102h94v-102zM1835 489h-197v103h95v94h102v102h94v-102h-94v-197zM1143 592v94h102v-197h-196v103h94z
M1536 395v94h102v-94h-102zM946 395v94h103v-196h-197v102h94zM1442 293v102h94v-102h-94zM750 199v94h102v-197h-197v103h95zM1929 96h-291v103h291v-103zM553 2v94h102v-196h-196v102h94z" />
    <glyph glyph-name="Agrave" unicode="&#xc0;" horiz-adv-x="1554" 
d="M879 2236h-103v86h103v-86zM1065 1761h-186v103h84v270h102v-373zM776 1948h-84v102h84v-102zM1161 1497h-102v86h102v-86zM1245 1395h103v-84h-103v84zM600 684h-102v440h186v187h186v-103h-84v-186h-186v-338zM1534 -100h-373v102h271v1206h102v-1308zM1059 1124v-102
h-86v102h86zM600 -100h-375v102h273v440h561v-102h-459v-440z" />
    <glyph glyph-name="Aacute" unicode="&#xc1;" horiz-adv-x="1554" 
d="M1067 1958h-186v-186h-187v102h84v186h187v273h102v-375zM1161 1497h-102v86h102v-86zM1245 1395h103v-84h-103v84zM600 684h-102v440h186v187h186v-103h-84v-186h-186v-338zM1534 -100h-373v102h271v1206h102v-1308zM1059 1124v-102h-86v102h86zM600 -100h-375v102h273
v440h561v-102h-459v-440z" />
    <glyph glyph-name="Acircumflex" unicode="&#xc2;" horiz-adv-x="1554" 
d="M973 2279h-103v86h103v-86zM684 2177h102v102h84v-102h-84v-373h-374v103h272v270zM1159 2093h-102v84h102v-84zM1348 1804h-375v103h272v84h103v-187zM1161 1497h-102v86h102v-86zM1245 1395h103v-84h-103v84zM600 684h-102v440h186v187h186v-103h-84v-186h-186v-338z
M1534 -100h-373v102h271v1206h102v-1308zM1059 1124v-102h-86v102h86zM600 -100h-375v102h273v440h561v-102h-459v-440z" />
    <glyph glyph-name="Atilde" unicode="&#xc3;" horiz-adv-x="1554" 
d="M975 2075h-103v84h103v-84zM1350 1972h-189v103h86v84h103v-187zM498 1972h102v103h86v-103h-86v-188h-186v102h84v86zM1161 1784h-373v102h271v86h102v-188zM1161 1497h-102v86h102v-86zM1245 1395h103v-84h-103v84zM600 684h-102v440h186v187h186v-103h-84v-186h-186
v-338zM1534 -100h-373v102h271v1206h102v-1308zM1059 1124v-102h-86v102h86zM600 -100h-375v102h273v440h561v-102h-459v-440z" />
    <glyph glyph-name="Adieresis" unicode="&#xc4;" horiz-adv-x="1554" 
d="M1214 1892v273h103v-375h-375v102h272zM684 1892v273h102v-375h-372v102h270zM1161 1497h-102v86h102v-86zM1245 1395h103v-84h-103v84zM600 684h-102v440h186v187h186v-103h-84v-186h-186v-338zM1534 -100h-373v102h271v1206h102v-1308zM1059 1124v-102h-86v102h86z
M600 -100h-375v102h273v440h561v-102h-459v-440z" />
    <glyph glyph-name="Aring" unicode="&#xc5;" horiz-adv-x="1554" 
d="M1161 2394v-561h-561v102h459v459h102zM870 2208h-84v-84h-102v186h186v-102zM1161 1497h-102v86h102v-86zM1245 1395h103v-84h-103v84zM600 684h-102v440h186v187h186v-103h-84v-186h-186v-338zM1534 -100h-373v102h271v1206h102v-1308zM1059 1124v-102h-86v102h86z
M600 -100h-375v102h273v440h561v-102h-459v-440z" />
    <glyph glyph-name="AE" unicode="&#xc6;" horiz-adv-x="2115" 
d="M1161 1497h-102v86h102v-86zM1993 1311v272h102v-375h-561v-243h-102v346h561zM498 684v440h186v187h186v-103h-84v-186h-186v-338h-102zM1059 1124v-102h-86v102h86zM1534 377h-102v346h561v139h102v-241h-561v-244zM600 -100h-375v102h273v440h561v-102h-459v-440z
M2095 -100h-747v102h645v272h102v-374zM1245 86h-84v102h84v-102z" />
    <glyph glyph-name="Ccedilla" unicode="&#xc7;" 
d="M1159 1497h-102v86h102v-86zM1348 1022h-375v102h272v271h103v-373zM598 377h-102v934h374v-103h-272v-831zM879 -653h-373v102h270v186h189v367h92v186h188v273h103v-375h-189v-186h-92v-367h-188v-186zM309 86h-84v102h84v-102zM776 2v-102h-364v102h364z" />
    <glyph glyph-name="Egrave" unicode="&#xc8;" horiz-adv-x="1181" 
d="M729 2212h-102v86h102v-86zM915 1737h-186v102h84v270h102v-372zM627 2025v-102h-84v102h84zM1059 1311v272h102v-375h-561v-243h-102v346h561zM600 377h-102v346h561v139h102v-241h-561v-244zM1161 -100h-747v102h645v272h102v-374zM311 86h-86v102h86v-102z" />
    <glyph glyph-name="Eacute" unicode="&#xc9;" horiz-adv-x="1181" 
d="M723 1898v-186h-186v103h84v186h186v272h102v-375h-186zM1059 1311v272h102v-375h-561v-243h-102v346h561zM600 377h-102v346h561v139h102v-241h-561v-244zM1161 -100h-747v102h645v272h102v-374zM311 86h-86v102h86v-102z" />
    <glyph glyph-name="Ecircumflex" unicode="&#xca;" horiz-adv-x="1181" 
d="M788 2228h-102v86h102v-86zM500 2126h102v102h84v-102h-84v-373h-375v102h273v271zM975 2042h-103v84h103v-84zM1163 1753h-375v102h273v84h102v-186zM1059 1311v272h102v-375h-561v-243h-102v346h561zM600 377h-102v346h561v139h102v-241h-561v-244zM1161 -100h-747v102
h645v272h102v-374zM311 86h-86v102h86v-102z" />
    <glyph glyph-name="Edieresis" unicode="&#xcb;" horiz-adv-x="1181" 
d="M1042 2118h103v-375h-375v102h272v273zM512 2118h102v-375h-372v102h270v273zM1059 1311v272h102v-375h-561v-243h-102v346h561zM600 377h-102v346h561v139h102v-241h-561v-244zM1161 -100h-747v102h645v272h102v-374zM311 86h-86v102h86v-102z" />
    <glyph glyph-name="Igrave" unicode="&#xcc;" horiz-adv-x="993" 
d="M629 2187h-103v86h103v-86zM815 1712h-186v103h84v270h102v-373zM526 2001v-103h-84v103h84zM786 377h-102v934h186v272h103v-375h-187v-831zM309 1311v-103h-84v103h84zM973 -100h-748v102h645v272h103v-374z" />
    <glyph glyph-name="Iacute" unicode="&#xcd;" horiz-adv-x="993" 
d="M600 1915v-186h-186v102h84v186h186v273h102v-375h-186zM786 377h-102v934h186v272h103v-375h-187v-831zM309 1311v-103h-84v103h84zM973 -100h-748v102h645v272h103v-374z" />
    <glyph glyph-name="Icircumflex" unicode="&#xce;" horiz-adv-x="993" 
d="M653 2247h-102v86h102v-86zM365 2144h102v103h84v-103h-84v-372h-375v102h273v270zM840 2060h-103v84h103v-84zM1028 1772h-375v102h273v84h102v-186zM786 377h-102v934h186v272h103v-375h-187v-831zM309 1208h-84v103h84v-103zM973 -100h-748v102h645v272h103v-374z" />
    <glyph glyph-name="Idieresis" unicode="&#xcf;" horiz-adv-x="993" 
d="M948 2103h103v-374h-375v102h272v272zM418 2103h102v-374h-373v102h271v272zM786 377h-102v934h186v272h103v-375h-187v-831zM309 1311v-103h-84v103h84zM973 -100h-748v102h645v272h103v-374z" />
    <glyph glyph-name="Eth" unicode="&#xd0;" 
d="M973 1497h-103v86h103v-86zM1159 1311h-102v84h102v-84zM870 1311v-103h-272v-121h-102v224h374zM973 -100h-748v102h645v186h187v189h188v831h103v-934h-189v-188h-186v-186zM870 657h-272v-280h-102v383h374v-103z" />
    <glyph glyph-name="Ntilde" unicode="&#xd1;" horiz-adv-x="1929" 
d="M1192 1993h-102v84h102v-84zM1567 1890h-189v103h86v84h103v-187zM715 1890h102v103h86v-103h-86v-188h-186v102h84v86zM1378 1702h-372v102h270v86h102v-188zM600 1497h-102v86h102v-86zM1806 2v1581h103v-1683h-375v102h272zM786 1311h-102v84h102v-84zM973 1124h-103
v84h103v-84zM600 -100h-375v102h273v1122h186v-102h-84v-1122zM1161 936h-102v86h102v-86zM870 834h-84v102h84v-102zM1348 750h-103v84h103v-84zM1059 647h-86v103h86v-103zM1245 461h-84v102h84v-102zM1432 274h-84v103h84v-103z" />
    <glyph glyph-name="Ograve" unicode="&#xd2;" 
d="M786 2212h-102v86h102v-86zM973 1737h-187v102h84v270h103v-372zM684 1923h-84v102h84v-102zM1059 1583h102v-86h-102v86zM1161 -100h-749v102h647v186h186v1207h103v-1309h-187v-186zM870 1311v-103h-270v-831h-102v934h372zM309 86h-84v102h84v-102z" />
    <glyph glyph-name="Oacute" unicode="&#xd3;" 
d="M973 1903h-187v-187h-186v103h84v186h186v272h103v-374zM1059 1583h102v-86h-102v86zM1161 -100h-749v102h647v186h186v1207h103v-1309h-187v-186zM870 1311v-103h-270v-831h-102v934h372zM309 86h-84v102h84v-102z" />
    <glyph glyph-name="Ocircumflex" unicode="&#xd4;" 
d="M909 2214h-102v86h102v-86zM621 2111h102v103h84v-103h-84v-372h-375v102h273v270zM1096 2028h-103v83h103v-83zM1284 1739h-375v102h273v84h102v-186zM1059 1583h102v-86h-102v86zM1161 -100h-749v102h647v186h186v1207h103v-1309h-187v-186zM870 1311v-103h-270v-831
h-102v934h372zM309 86h-84v102h84v-102z" />
    <glyph glyph-name="Otilde" unicode="&#xd5;" 
d="M909 2025h-102v84h102v-84zM1284 1923h-188v102h86v84h102v-186zM432 1923h103v102h86v-102h-86v-188h-187v102h84v86zM1096 1735h-373v102h270v86h103v-188zM1059 1583h102v-86h-102v86zM1161 -100h-749v102h647v186h186v1207h103v-1309h-187v-186zM870 1311v-103h-270
v-831h-102v934h372zM309 86h-84v102h84v-102z" />
    <glyph glyph-name="Odieresis" unicode="&#xd6;" 
d="M1135 1864v272h102v-375h-375v103h273zM604 1864v272h103v-375h-373v103h270zM1059 1583h102v-86h-102v86zM1161 -100h-749v102h647v186h186v1207h103v-1309h-187v-186zM870 1311v-103h-270v-831h-102v934h372zM309 86h-84v102h84v-102z" />
    <glyph glyph-name="multiply" unicode="&#xd7;" horiz-adv-x="1228" 
d="M422 1094h-103v94h103v-94zM1208 991h-196v103h94v94h102v-197zM319 991h-94v103h94v-103zM618 897h-102v94h102v-94zM909 897v94h103v-196h-197v102h94zM516 795h-94v102h94v-102zM713 700v95h102v-95h-102zM618 401h-196v103h94v94h102v102h95v-102h-95v-197zM1012 504
h-103v94h103v-94zM909 401h-94v103h94v-103zM422 205h-197v102h94v94h103v-196zM1208 205h-196v102h94v94h102v-196z" />
    <glyph glyph-name="Oslash" unicode="&#xd8;" 
d="M881 1686h-103v270h103v-270zM1059 1583h102v-86h-102v86zM881 -475h-189v102h86v375h281v186h186v1207h103v-1309h-187v-186h-280v-375zM590 377h-92v934h92v-934zM870 377h-92v934h92v-934zM311 86h-86v102h86v-102zM590 -100h-176v102h176v-102z" />
    <glyph glyph-name="Ugrave" unicode="&#xd9;" 
d="M786 2234h-102v86h102v-86zM973 1759h-187v103h84v270h103v-373zM684 2048v-102h-84v102h84zM600 377h-102v1206h102v-1206zM1245 188v1395h103v-1497h-187v-186h-747v102h645v186h186zM311 86h-86v102h86v-102z" />
    <glyph glyph-name="Uacute" unicode="&#xda;" 
d="M786 1909v-187h-186v103h84v186h186v273h103v-375h-187zM600 377h-102v1206h102v-1206zM1245 188v1395h103v-1497h-187v-186h-747v102h645v186h186zM311 86h-86v102h86v-102z" />
    <glyph glyph-name="Ucircumflex" unicode="&#xdb;" 
d="M881 2243h-103v86h103v-86zM592 2140h102v103h84v-103h-84v-373h-375v103h273v270zM1067 2056h-102v84h102v-84zM1255 1767h-374v103h272v84h102v-187zM600 377h-102v1206h102v-1206zM1245 188v1395h103v-1497h-187v-186h-747v102h645v186h186zM311 86h-86v102h86v-102z
" />
    <glyph glyph-name="Udieresis" unicode="&#xdc;" 
d="M1090 2124h102v-375h-375v102h273v273zM559 2124h103v-375h-373v102h270v273zM600 377h-102v1206h102v-1206zM1245 188v1395h103v-1497h-187v-186h-747v102h645v186h186zM311 86h-86v102h86v-102z" />
    <glyph glyph-name="Yacute" unicode="&#xdd;" horiz-adv-x="1554" 
d="M836 1901v-187h-187v103h84v186h187v272h102v-374h-186zM598 1124h-102v459h102v-459zM1432 1124v459h102v-561h-188v-188h-187v-187h-94v-747h-373v102h271v748h94v186h186v188h189zM309 1022h-84v102h84v-102zM784 936h-102v86h102v-86zM496 834h-84v102h84v-102z" />
    <glyph glyph-name="Thorn" unicode="&#xde;" 
d="M600 1405h-102v178h102v-178zM1159 1217h-102v86h102v-86zM1245 469v645h103v-747h-189v-187h-559v-280h-375v102h273v281h559v186h188zM870 1030v-102h-270v-271h-102v373h372z" />
    <glyph glyph-name="germandbls" unicode="&#xdf;" horiz-adv-x="1366" 
d="M1159 1497h-102v86h102v-86zM1243 936v459h103v-561h-187v-84h-102v186h186zM598 -287h-373v103h271v1495h374v-103h-272v-1495zM870 621h-118v102h118v-102zM1346 -100h-562v102h459v645h103v-747z" />
    <glyph glyph-name="agrave" unicode="&#xe0;" horiz-adv-x="1554" 
d="M881 2152h-103v86h103v-86zM881 1780h84v270h102v-373h-8v9h-178v94zM778 1864h-84v102h84v-102zM1161 1497h-102v86h102v-86zM1245 1395h103v-84h-103v84zM600 684h-102v440h186v187h186v-103h-84v-186h-186v-338zM1534 -100h-373v102h271v1206h102v-1308zM1059 1124
v-102h-86v102h86zM600 -100h-375v102h273v440h561v-102h-459v-440z" />
    <glyph glyph-name="aacute" unicode="&#xe1;" horiz-adv-x="1554" 
d="M778 1966h187v272h102v-374h-186v-178h-187v94h84v186zM1161 1497h-102v86h102v-86zM1245 1395h103v-84h-103v84zM600 684h-102v440h186v187h186v-103h-84v-186h-186v-338zM1534 -100h-373v102h271v1206h102v-1308zM1059 1124v-102h-86v102h86zM600 -100h-375v102h273
v440h561v-102h-459v-440z" />
    <glyph glyph-name="acircumflex" unicode="&#xe2;" horiz-adv-x="1554" 
d="M973 2152h-103v86h103v-86zM870 2050h-84v-364h-288v-9h-86v103h272v270h102v102h84v-102zM1159 1966h-102v84h102v-84zM1059 1686h-86v94h272v84h103v-187h-289v9zM1161 1497h-102v86h102v-86zM1245 1395h103v-84h-103v84zM600 684h-102v440h186v187h186v-103h-84v-186
h-186v-338zM1534 -100h-373v102h271v1206h102v-1308zM1059 1124v-102h-86v102h86zM600 -100h-375v102h273v440h561v-102h-459v-440z" />
    <glyph glyph-name="atilde" unicode="&#xe3;" horiz-adv-x="1554" 
d="M973 2021h-103v84h103v-84zM1348 1919h-189v102h86v84h103v-186zM496 1919h102v102h86v-102h-86v-188h-186v102h84v86zM1159 1731h-373v102h271v86h102v-188zM1161 1497h-102v86h102v-86zM1245 1395h103v-84h-103v84zM600 684h-102v440h186v187h186v-103h-84v-186h-186
v-338zM1534 -100h-373v102h271v1206h102v-1308zM1059 1124v-102h-86v102h86zM600 -100h-375v102h273v440h561v-102h-459v-440z" />
    <glyph glyph-name="adieresis" unicode="&#xe4;" horiz-adv-x="1554" 
d="M1229 1833v272h102v-374h-375v102h273zM698 1833v272h103v-374h-373v102h270zM1161 1497h-102v86h102v-86zM1245 1395h103v-84h-103v84zM600 684h-102v440h186v187h186v-103h-84v-186h-186v-338zM1534 -100h-373v102h271v1206h102v-1308zM1059 1124v-102h-86v102h86z
M600 -100h-375v102h273v440h561v-102h-459v-440z" />
    <glyph glyph-name="aring" unicode="&#xe5;" horiz-adv-x="1554" 
d="M1161 2292v-561h-561v102h459v459h102zM870 2105h-84v-84h-102v187h186v-103zM1161 1497h-102v86h102v-86zM1245 1395h103v-84h-103v84zM600 684h-102v440h186v187h186v-103h-84v-186h-186v-338zM1534 -100h-373v102h271v1206h102v-1308zM1059 1124v-102h-86v102h86z
M600 -100h-375v102h273v440h561v-102h-459v-440z" />
    <glyph glyph-name="ae" unicode="&#xe6;" horiz-adv-x="2115" 
d="M1159 1497h-102v86h102v-86zM1993 1311v272h102v-375h-561v-243h-102v346h561zM496 684v440h188v187h186v-103h-84v-186h-188v-338h-102zM1057 1124v-102h-84v102h84zM1534 377h-102v346h561v139h102v-241h-561v-244zM598 -100h-373v102h271v440h561v-102h-459v-440z
M2095 -100h-749v102h647v272h102v-374zM1243 86h-84v102h84v-102z" />
    <glyph glyph-name="ccedilla" unicode="&#xe7;" 
d="M1159 1497h-102v86h102v-86zM1348 1022h-375v102h272v271h103v-373zM598 377h-102v934h374v-103h-272v-831zM879 -655h-373v102h270v186h189v369h92v186h188v273h103v-375h-189v-186h-92v-369h-188v-186zM309 86h-84v102h84v-102zM776 2v-102h-364v102h364z" />
    <glyph glyph-name="egrave" unicode="&#xe8;" horiz-adv-x="1181" 
d="M694 2152h-102v86h102v-86zM881 1686h-187v94h84v270h103v-364zM592 1864h-84v102h84v-102zM1059 1311v272h102v-375h-561v-243h-102v346h561zM600 377h-102v346h561v139h102v-241h-561v-244zM1161 -100h-747v102h645v272h102v-374zM311 86h-86v102h86v-102z" />
    <glyph glyph-name="eacute" unicode="&#xe9;" horiz-adv-x="1181" 
d="M592 1780v186h186v272h103v-374h-187v-178h-186v94h84zM1059 1311v272h102v-375h-561v-243h-102v346h561zM600 377h-102v346h561v139h102v-241h-561v-244zM1161 -100h-747v102h645v272h102v-374zM311 86h-86v102h86v-102z" />
    <glyph glyph-name="ecircumflex" unicode="&#xea;" horiz-adv-x="1181" 
d="M786 2152h-102v86h102v-86zM684 2050h-84v-364h-289v-9h-86v103h273v270h102v102h84v-102zM973 1966h-103v84h103v-84zM1059 1686h-273v94h273v84h102v-187h-102v9zM1059 1311v272h102v-375h-561v-243h-102v346h561zM600 377h-102v346h561v139h102v-241h-561v-244z
M1161 -100h-747v102h645v272h102v-374zM311 86h-86v102h86v-102z" />
    <glyph glyph-name="edieresis" unicode="&#xeb;" horiz-adv-x="1181" 
d="M1042 2105h103v-374h-375v102h272v272zM512 2105h102v-374h-372v102h270v272zM1059 1311v272h102v-375h-561v-243h-102v346h561zM600 377h-102v346h561v139h102v-241h-561v-244zM1161 -100h-747v102h645v272h102v-374zM311 86h-86v102h86v-102z" />
    <glyph glyph-name="igrave" unicode="&#xec;" horiz-adv-x="993" 
d="M600 2152h-102v86h102v-86zM786 1686h-186v94h84v270h102v-364zM498 1864h-84v102h84v-102zM786 377h-102v934h186v272h103v-375h-187v-831zM309 1311v-103h-84v103h84zM973 -100h-748v102h645v272h103v-374z" />
    <glyph glyph-name="iacute" unicode="&#xed;" horiz-adv-x="993" 
d="M498 1780v186h186v272h102v-374h-186v-178h-186v94h84zM786 377h-102v934h186v272h103v-375h-187v-831zM309 1311v-103h-84v103h84zM973 -100h-748v102h645v272h103v-374z" />
    <glyph glyph-name="icircumflex" unicode="&#xee;" horiz-adv-x="993" 
d="M692 2152h-102v86h102v-86zM403 2050h103v102h84v-102h-84v-364h-375v94h272v270zM879 1966h-103v84h103v-84zM870 1686h-178v94h273v84h102v-187h-197v9zM786 377h-102v934h186v272h103v-375h-187v-831zM309 1208h-84v103h84v-103zM973 -100h-748v102h645v272h103v-374z
" />
    <glyph glyph-name="idieresis" unicode="&#xef;" horiz-adv-x="993" 
d="M948 2105h103v-374h-375v102h272v272zM418 2105h102v-374h-373v102h271v272zM786 377h-102v934h186v272h103v-375h-187v-831zM309 1311v-103h-84v103h84zM973 -100h-748v102h645v272h103v-374z" />
    <glyph glyph-name="ntilde" unicode="&#xf1;" horiz-adv-x="1929" 
d="M1161 2021h-102v84h102v-84zM1536 1919h-188v102h86v84h102v-186zM684 1919h102v102h86v-102h-86v-188h-186v102h84v86zM1348 1731h-373v102h270v86h103v-188zM600 1497h-102v86h102v-86zM1806 2v1581h103v-1683h-375v102h272zM786 1311h-102v84h102v-84zM973 1124h-103
v84h103v-84zM600 -100h-375v102h273v1122h186v-102h-84v-1122zM1161 936h-102v86h102v-86zM870 834h-84v102h84v-102zM1348 750h-103v84h103v-84zM1059 647h-86v103h86v-103zM1245 461h-84v102h84v-102zM1432 274h-84v103h84v-103z" />
    <glyph glyph-name="ograve" unicode="&#xf2;" 
d="M786 2152h-102v86h102v-86zM786 1780h84v270h103v-364h-187v94zM684 1864h-84v102h84v-102zM1059 1583h102v-86h-102v86zM1161 -100h-749v102h647v186h186v1207h103v-1309h-187v-186zM870 1311v-103h-270v-831h-102v934h372zM309 86h-84v102h84v-102z" />
    <glyph glyph-name="oacute" unicode="&#xf3;" 
d="M684 1966h186v272h103v-374h-187v-178h-186v94h84v186zM1059 1583h102v-86h-102v86zM1161 -100h-749v102h647v186h186v1207h103v-1309h-187v-186zM870 1311v-103h-270v-831h-102v934h372zM309 86h-84v102h84v-102z" />
    <glyph glyph-name="ocircumflex" unicode="&#xf4;" 
d="M881 2152h-103v86h103v-86zM592 2050h102v102h84v-102h-84v-364h-375v94h273v270zM1067 1966h-102v84h102v-84zM1059 1686h-178v94h272v84h102v-187h-196v9zM1059 1583h102v-86h-102v86zM1161 -100h-749v102h647v186h186v1207h103v-1309h-187v-186zM870 1311v-103h-270
v-831h-102v934h372zM309 86h-84v102h84v-102z" />
    <glyph glyph-name="otilde" unicode="&#xf5;" 
d="M881 2021h-103v84h103v-84zM1255 1919h-188v102h86v84h102v-186zM403 1919h103v102h86v-102h-86v-188h-187v102h84v86zM1067 1731h-373v102h271v86h102v-188zM1059 1583h102v-86h-102v86zM1161 -100h-749v102h647v186h186v1207h103v-1309h-187v-186zM870 1311v-103h-270
v-831h-102v934h372zM309 86h-84v102h84v-102z" />
    <glyph glyph-name="odieresis" unicode="&#xf6;" 
d="M1137 1833v272h102v-374h-375v102h273zM606 1833v272h103v-374h-373v102h270zM1059 1583h102v-86h-102v86zM1161 -100h-749v102h647v186h186v1207h103v-1309h-187v-186zM870 1311v-103h-270v-831h-102v934h372zM309 86h-84v102h84v-102z" />
    <glyph glyph-name="oslash" unicode="&#xf8;" 
d="M879 1686h-103v270h103v-270zM1057 1583h102v-86h-102v86zM879 -475h-187v102h84v375h281v186h188v1207h103v-1309h-189v-186h-280v-375zM590 377h-94v934h94v-934zM870 377h-94v934h94v-934zM309 86h-84v102h84v-102zM590 -100h-178v102h178v-102z" />
    <glyph glyph-name="ugrave" unicode="&#xf9;" 
d="M786 2152h-102v86h102v-86zM872 1677h-86v103h84v270h103v-364h-101v-9zM684 1864h-84v102h84v-102zM600 377h-102v1206h102v-1206zM1245 188v1395h103v-1497h-187v-186h-747v102h645v186h186zM311 86h-86v102h86v-102z" />
    <glyph glyph-name="uacute" unicode="&#xfa;" 
d="M786 1864v-187h-186v103h84v186h186v272h103v-374h-187zM600 377h-102v1206h102v-1206zM1245 188v1395h103v-1497h-187v-186h-747v102h645v186h186zM311 86h-86v102h86v-102z" />
    <glyph glyph-name="ucircumflex" unicode="&#xfb;" 
d="M881 2152h-103v86h103v-86zM592 2050h102v102h84v-102h-84v-373h-196v9h-179v94h273v270zM1067 1966h-102v84h102v-84zM881 1780h272v84h102v-187h-10v9h-364v94zM498 377v1206h102v-1206h-102zM1245 188v1395h103v-1497h-187v-186h-747v102h645v186h186zM311 86h-86v102
h86v-102z" />
    <glyph glyph-name="udieresis" unicode="&#xfc;" 
d="M1137 2105h102v-374h-375v102h273v272zM606 2105h103v-374h-373v102h270v272zM600 377h-102v1206h102v-1206zM1245 188v1395h103v-1497h-187v-186h-747v102h645v186h186zM311 86h-86v102h86v-102z" />
    <glyph glyph-name="yacute" unicode="&#xfd;" horiz-adv-x="1554" 
d="M881 1864v-187h-187v103h84v186h187v272h102v-374h-186zM598 1124h-102v459h102v-459zM1432 1124v459h102v-561h-188v-188h-187v-187h-94v-747h-373v102h271v748h94v186h186v188h189zM309 1022h-84v102h84v-102zM784 936h-102v86h102v-86zM496 834h-84v102h84v-102z" />
    <glyph glyph-name="thorn" unicode="&#xfe;" 
d="M600 1405h-102v178h102v-178zM1161 1217h-102v86h102v-86zM1245 469v645h103v-747h-187v-187h-561v-280h-375v102h273v281h561v186h186zM870 1030v-102h-270v-271h-102v373h372z" />
    <glyph glyph-name="ydieresis" unicode="&#xff;" horiz-adv-x="1554" 
d="M1229 2105h102v-374h-375v102h273v272zM698 2105h103v-374h-373v102h270v272zM598 1124h-102v459h102v-459zM1432 1124v459h102v-561h-188v-188h-187v-187h-94v-747h-373v102h271v748h94v186h186v188h189zM309 1022h-84v102h84v-102zM784 936h-102v86h102v-86zM496 834
h-84v102h84v-102z" />
    <glyph glyph-name="Dcroat" unicode="&#x110;" 
d="M973 1497h-103v86h103v-86zM1159 1311h-102v84h102v-84zM870 1311v-103h-272v-121h-102v224h374zM973 -100h-748v102h645v186h187v189h188v831h103v-934h-189v-188h-186v-186zM870 657h-272v-280h-102v383h374v-103z" />
    <glyph glyph-name="Lslash" unicode="&#x141;" horiz-adv-x="1181" 
d="M498 1583h102v-598h-102v598zM600 377h-102v280h544v226h103v-328h-545v-178zM123 555h-86v102h86v-102zM1161 -100h-749v102h647v272h102v-374zM309 86h-84v102h84v-102z" />
    <glyph glyph-name="lslash" unicode="&#x142;" horiz-adv-x="1181" 
d="M498 1583h102v-598h-102v598zM600 377h-102v280h542v226h103v-328h-543v-178zM123 555h-86v102h86v-102zM1161 -100h-749v102h647v272h102v-374zM309 86h-84v102h84v-102z" />
    <glyph glyph-name="OE" unicode="&#x152;" horiz-adv-x="1929" 
d="M1806 1311v272h103v-375h-561v-243h-103v346h561zM870 1208h-270v-831h-102v934h372v-103zM1348 377h-103v346h561v139h103v-241h-561v-244zM1909 -100h-1497v102h1394v272h103v-374zM309 86h-84v102h84v-102z" />
    <glyph glyph-name="oe" unicode="&#x153;" horiz-adv-x="1929" 
d="M1806 1311v272h103v-375h-561v-243h-103v346h561zM872 1208h-272v-831h-102v934h374v-103zM1348 377h-103v346h561v139h103v-241h-561v-244zM1909 -100h-1495v102h1392v272h103v-374zM311 86h-86v102h86v-102z" />
    <glyph glyph-name="Scaron" unicode="&#x160;" 
d="M692 2001h-102v272h102v-272zM1067 1898h-186v103h84v186h186v86h102v-188h-186v-187zM403 2085h-84v102h84v-102zM590 1898h-84v103h84v-103zM778 1815v83h103v-186h-189v103h86zM1159 1497h-102v86h102v-86zM1245 1395h103v-373h-375v102h272v271zM598 1124h-102v187
h374v-103h-272v-84zM786 936h-102v86h102v-86zM309 834h-84v102h84v-102zM1159 750h-102v84h102v-84zM684 647h-272v103h272v-103zM1159 -100h-747v102h645v186h188v459h103v-561h-189v-186zM870 461h-84v102h84v-102zM598 377h-102v84h102v-84zM309 86h-84v102h84v-102z
" />
    <glyph glyph-name="scaron" unicode="&#x161;" 
d="M692 1966h-102v272h102v-272zM1067 1864h-186v102h84v186h186v86h102v-188h-186v-186zM403 2050h-84v102h84v-102zM590 1864h-84v102h84v-102zM778 1780v84h103v-178h-189v94h86zM1159 1497h-102v86h102v-86zM1245 1395h103v-373h-375v102h272v271zM598 1124h-102v187
h374v-103h-272v-84zM786 936h-102v86h102v-86zM309 834h-84v102h84v-102zM1159 750h-102v84h102v-84zM684 647h-272v103h272v-103zM1159 -100h-747v102h645v186h188v459h103v-561h-189v-186zM870 461h-84v102h84v-102zM598 377h-102v84h102v-84zM309 86h-84v102h84v-102z
" />
    <glyph glyph-name="Ydieresis" unicode="&#x178;" horiz-adv-x="1554" 
d="M1212 2099h103v-375h-375v103h272v272zM682 2099h102v-375h-372v103h270v272zM598 1124h-102v459h102v-459zM1432 1124v459h102v-561h-188v-188h-187v-187h-94v-747h-373v102h271v748h94v186h186v188h189zM309 1022h-84v102h84v-102zM784 936h-102v86h102v-86zM496 834
h-84v102h84v-102z" />
    <glyph glyph-name="Zcaron" unicode="&#x17d;" 
d="M657 1995h-102v272h102v-272zM1032 1892h-186v103h84v186h186v86h103v-188h-187v-187zM369 2079h-84v102h84v-102zM555 1892h-84v103h84v-103zM743 1808v84h103v-186h-189v102h86zM786 647v-186h-188v-84h-102v186h188v187h373v186h188v647h103v-749h-189v-187h-373z
M870 1208h-645v103h645v-103zM1348 -100h-1123v102h1020v272h103v-374z" />
    <glyph glyph-name="zcaron" unicode="&#x17e;" 
d="M692 1966h-102v272h102v-272zM1067 1864h-186v102h84v186h186v86h102v-188h-186v-186zM403 2050h-84v102h84v-102zM590 1864h-84v102h84v-102zM778 1780v84h103v-178h-189v94h86zM786 647v-186h-188v-84h-102v186h188v187h373v186h188v647h103v-749h-189v-187h-373z
M870 1208h-645v103h645v-103zM1348 -100h-1123v102h1020v272h103v-374z" />
    <glyph glyph-name="circumflex" unicode="&#x2c6;" horiz-adv-x="1181" 
d="M786 2152h-102v86h102v-86zM498 2050h102v102h84v-102h-84v-373h-375v103h273v270zM973 1966h-103v84h103v-84zM1161 1677h-375v103h273v84h102v-187z" />
    <glyph glyph-name="caron" unicode="&#x2c7;" horiz-adv-x="1179" 
d="M598 1966h-102v272h102v-272zM973 1864h-187v102h84v186h187v86h102v-188h-186v-186zM309 2050h-84v102h84v-102zM496 1864h-84v102h84v-102zM684 1780v84h102v-187h-188v103h86z" />
    <glyph glyph-name="ring" unicode="&#x2da;" horiz-adv-x="806" 
d="M786 1731h-561v102h459v459h102v-561zM496 2208v-103h-84v-84h-103v187h187z" />
    <glyph glyph-name="tilde" unicode="&#x2dc;" horiz-adv-x="1181" 
d="M786 2021h-102v84h102v-84zM1161 1919h-188v102h86v84h102v-186zM309 1919h103v102h86v-102h-86v-188h-187v102h84v86zM973 1731h-373v102h270v86h103v-188z" />
    <glyph glyph-name="endash" unicode="&#x2013;" horiz-adv-x="1556" 
d="M1434 657v226h102v-328h-1311v102h1209z" />
    <glyph glyph-name="emdash" unicode="&#x2014;" horiz-adv-x="1884" 
d="M1761 657v226h103v-328h-1639v102h1536z" />
    <glyph glyph-name="quoteleft" unicode="&#x2018;" horiz-adv-x="620" 
d="M414 1497h-103v86h103v-86zM498 1124v271h102v-373h-375v102h273z" />
    <glyph glyph-name="quoteright" unicode="&#x2019;" horiz-adv-x="620" 
d="M498 1124v459h102v-561h-188v102h86zM309 1208h-84v103h84v-103z" />
    <glyph glyph-name="quotesinglbase" unicode="&#x201a;" horiz-adv-x="620" 
d="M498 -373v459h102v-561h-188v102h86zM309 -287h-84v103h84v-103z" />
    <glyph glyph-name="quotedblleft" unicode="&#x201c;" horiz-adv-x="1075" 
d="M868 1497h-102v86h102v-86zM412 1497h-103v86h103v-86zM498 1124v271h80v-271h22v-102h-375v102h273zM1055 1022h-375v102h272v271h103v-373z" />
    <glyph glyph-name="quotedblright" unicode="&#x201d;" horiz-adv-x="1075" 
d="M1055 1022h-187v102h84v459h103v-561zM498 1124v459h82v-272h20v-289h-188v102h86zM309 1208h-84v103h84v-103zM766 1208h-84v103h84v-103z" />
    <glyph glyph-name="quotedblbase" unicode="&#x201e;" horiz-adv-x="1075" 
d="M952 -373v459h103v-561h-187v102h84zM578 86v-270h22v-291h-188v102h86v459h80zM309 -287h-84v103h84v-103zM766 -287h-86v103h86v-103z" />
    <glyph glyph-name="Euro" unicode="&#x20ac;" horiz-adv-x="1554" 
d="M1346 1497h-103v86h103v-86zM1432 1124v271h102v-373h-375v102h273zM784 1079h-102v232h375v-103h-273v-129zM784 772h-102v119h375v86h102v-189h-375v-16zM309 788h-84v103h84v-103zM1057 563v-80h-273v-106h-102v209h375v84h102v-107h-102zM309 483h-84v103h84v-103z
M1477 -100h-879v102h776v186h58v273h102v-375h-57v-186zM496 86h-84v102h84v-102z" />
    <glyph glyph-name="trademark" unicode="&#x2122;" horiz-adv-x="1818" 
d="M1602 1444h-103v94h103v-94zM1208 1444h-102v94h102v-94zM815 1444h-102v94h102v-94zM319 1341h-94v103h94v-103zM618 752h-196v102h94v590h197v-103h-95v-589zM909 1341h103v103h94v-103h-94v-589h-197v102h94v487zM1303 1341h102v103h94v-103h-94v-589h-197v102h95v487
zM1798 752h-196v102h94v487h102v-589z" />
    </font>
</defs>
</svg>
