<?xml version="1.0" standalone="no"?>
<!DOCTYPE svg PUBLIC "-//W3C//DTD SVG 1.1//EN" "http://www.w3.org/Graphics/SVG/1.1/DTD/svg11.dtd" >
<svg xmlns="http://www.w3.org/2000/svg" xmlns:xlink="http://www.w3.org/1999/xlink" version="1.1">
<metadata>
Created by FontForge 20170731 at Wed Aug 17 14:51:56 2022
 By Aleksey,,,
Pangram Pangram Foundry
</metadata>
<defs>
<font id="Fuji-Medium" horiz-adv-x="0" >
  <font-face 
    font-family="Fuji Medium"
    font-weight="500"
    font-stretch="normal"
    units-per-em="2048"
    panose-1="0 0 6 0 0 0 0 0 0 0"
    ascent="1638"
    descent="-410"
    x-height="1014"
    cap-height="1434"
    bbox="-1473 -606 1964 1970"
    underline-thickness="102"
    underline-position="-307"
    unicode-range="U+0020-25CA"
  />
<missing-glyph horiz-adv-x="962" 
d="M788 1516v-1926h-610v1926h610zM641 1386h-317v-63h125v-72h-127v-63h319v63h-127v72h127v63zM514 1139h-192v-201h319v66h-127v135zM449 1073v-69h-64v69h64zM641 887h-319v-64h127v-71h-127v-64h192v135h127v64zM641 770h-63v-127h-256v-65h319v192zM641 537h-192v-109
h65v45h64v-92h-193v156h-63v-220h319v220zM641 203h-319v-217h319v217zM578 139v-90h-193v90h193zM641 -59h-319v-64h135l-135 -90v-63h319v63h-197l136 90h61v64z" />
    <glyph glyph-name=".notdef" horiz-adv-x="962" 
d="M788 1516v-1926h-610v1926h610zM641 1386h-317v-63h125v-72h-127v-63h319v63h-127v72h127v63zM514 1139h-192v-201h319v66h-127v135zM449 1073v-69h-64v69h64zM641 887h-319v-64h127v-71h-127v-64h192v135h127v64zM641 770h-63v-127h-256v-65h319v192zM641 537h-192v-109
h65v45h64v-92h-193v156h-63v-220h319v220zM641 203h-319v-217h319v217zM578 139v-90h-193v90h193zM641 -59h-319v-64h135l-135 -90v-63h319v63h-197l136 90h61v64z" />
    <glyph glyph-name=".null" 
 />
    <glyph glyph-name="nonmarkingreturn" horiz-adv-x="682" 
 />
    <glyph glyph-name="space" unicode=" " horiz-adv-x="497" 
 />
    <glyph glyph-name="exclam" unicode="!" horiz-adv-x="595" 
d="M184 489l-41 945h351l-41 -945h-269zM319 283q68 0 109 -38.5t41 -107.5t-41.5 -108t-108.5 -39q-69 0 -110 39t-41 108t41 107.5t110 38.5z" />
    <glyph glyph-name="quotedbl" unicode="&#x22;" horiz-adv-x="851" 
d="M154 1006l-52 376v134h289v-134l-51 -376h-186zM532 1006l-51 376v134h289v-134l-51 -376h-187z" />
    <glyph glyph-name="numbersign" unicode="#" horiz-adv-x="1331" 
d="M1249 858h-250l-90 -244h238v-155h-297l-172 -459h-166l172 459h-223l-172 -459h-166l172 459h-172v155h231l90 244h-219v156h279l158 420h165l-157 -420h223l158 420h166l-158 -420h190v-156zM743 614l91 244h-224l-90 -244h223z" />
    <glyph glyph-name="dollar" unicode="$" horiz-adv-x="1259" 
d="M1147 393q0 -88 -25.5 -157t-65 -112t-96.5 -72.5t-112 -42t-119 -17.5v-176h-178v180q-63 8 -119 24.5t-112 47t-96.5 72.5t-65.5 105t-25 140v72l309 41v-43q0 -197 222 -197q83 0 129.5 30.5t46.5 88.5q0 63 -50 105t-196 112q-236 110 -328 216.5t-92 254.5
q0 93 32 164t87.5 113.5t119 66t138.5 31.5v178h178v-180q58 -8 110 -24.5t102 -48t85.5 -73.5t57.5 -104.5t22 -138.5v-41l-307 -41q0 209 -172 209q-72 0 -108 -28t-36 -75q0 -55 58.5 -106t206.5 -127q101 -48 169 -90.5t123 -95.5t81 -117t26 -144z" />
    <glyph glyph-name="percent" unicode="%" horiz-adv-x="1331" 
d="M391 946q-103 0 -175.5 73t-72.5 177q0 103 72.5 175.5t175.5 72.5q104 0 177 -72.5t73 -175.5q0 -104 -73 -177t-177 -73zM1026 1434h182l-882 -1434h-183zM391 1102q43 0 68.5 25.5t25.5 68.5q0 41 -25.5 66.5t-68.5 25.5q-41 0 -66.5 -25.5t-25.5 -66.5
q0 -43 25.5 -68.5t66.5 -25.5zM958 -10q-103 0 -175 73t-72 177q0 103 72 175t175 72q104 0 177 -72t73 -175q0 -104 -73 -177t-177 -73zM958 145q43 0 69 26t26 69q0 41 -26 66.5t-69 25.5q-41 0 -66.5 -25.5t-25.5 -66.5q0 -43 25.5 -69t66.5 -26z" />
    <glyph glyph-name="ampersand" unicode="&#x26;" horiz-adv-x="1560" 
d="M1417 227l-145 -227l-162 117q-160 -127 -430 -127q-85 0 -161.5 13t-146 42.5t-119.5 74t-80 112t-30 151.5q0 118 60.5 203.5t156.5 124.5q-77 85 -111 160t-34 161q0 89 30.5 161t80 118t116 76.5t134.5 43.5t139 13q72 0 139.5 -13t135.5 -46.5t117.5 -84.5
t80.5 -133t31 -186v-16l-308 -41v47q0 104 -55.5 154.5t-142.5 50.5q-88 0 -139.5 -35t-51.5 -111q0 -80 97.5 -175t381.5 -310q13 83 13 157v37l307 -41v-36q0 -188 -53 -322q78 -58 149 -113zM686 258q100 0 172 43q-251 187 -338 260q-31 -18 -50 -56t-19 -75
q0 -89 65.5 -130.5t169.5 -41.5z" />
    <glyph glyph-name="quotesingle" unicode="'" horiz-adv-x="473" 
d="M154 1006l-52 376v134h289v-134l-51 -376h-186z" />
    <glyph glyph-name="parenleft" unicode="(" horiz-adv-x="690" 
d="M629 -328v269q-240 0 -240 209v806q0 209 240 209v269q-86 0 -160.5 -12t-147.5 -44.5t-124.5 -83t-83 -133.5t-31.5 -190v-836q0 -107 31.5 -190t83 -133.5t124.5 -83t147.5 -44.5t160.5 -12z" />
    <glyph glyph-name="parenright" unicode=")" horiz-adv-x="690" 
d="M82 -328q86 0 160.5 12t147.5 44.5t124.5 83t83 133.5t31.5 190v836q0 107 -31.5 190t-83 133.5t-124.5 83t-147.5 44.5t-160.5 12v-269q240 0 240 -209v-806q0 -209 -240 -209v-269z" />
    <glyph glyph-name="asterisk" unicode="*" horiz-adv-x="966" 
d="M143 1040v228l228 -43l-152 174l199 117l76 -220l77 220l197 -115l-152 -176l228 43v-228l-228 43l152 -176l-197 -112l-77 219l-76 -219l-199 114l152 174z" />
    <glyph glyph-name="plus" unicode="+" horiz-adv-x="1036" 
d="M913 696v-155h-307v-308h-155v308h-308v155h308v308h155v-308h307z" />
    <glyph glyph-name="comma" unicode="," horiz-adv-x="503" 
d="M401 137v-2q0 -78 -33.5 -152t-73 -118t-81.5 -74l-70 29q88 94 82 172q-57 8 -90 45.5t-33 99.5q0 69 41.5 107.5t110.5 38.5q67 0 107 -38.5t40 -107.5z" />
    <glyph glyph-name="hyphen" unicode="-" horiz-adv-x="1015" 
d="M143 670h750v-238h-750v238z" />
    <glyph glyph-name="period" unicode="." horiz-adv-x="503" 
d="M254 283q67 0 107 -38.5t40 -107.5t-40 -108t-107 -39q-69 0 -110.5 39t-41.5 108t41.5 107.5t110.5 38.5z" />
    <glyph glyph-name="slash" unicode="/" horiz-adv-x="923" 
d="M715 1556h168l-633 -1679h-168z" />
    <glyph glyph-name="zero" unicode="0" horiz-adv-x="1183" 
d="M602 -10q68 0 130.5 9.5t130 37t116 70.5t80 116t31.5 168v651q0 95 -31.5 168t-80 116.5t-115.5 71t-130 37t-131 9.5t-130.5 -9.5t-129.5 -37t-115.5 -71t-80 -116.5t-31.5 -168v-651q0 -95 31.5 -168t80 -116t115.5 -70.5t129.5 -37t130.5 -9.5zM602 258
q-180 0 -180 178v561q0 179 180 179q178 0 178 -179v-561q0 -178 -178 -178z" />
    <glyph glyph-name="one" unicode="1" horiz-adv-x="772" 
d="M442 1434h228v-1434h-310v899h-235v268h70q135 0 191 63t56 204z" />
    <glyph glyph-name="two" unicode="2" horiz-adv-x="1191" 
d="M1098 1032q0 -82 -23 -151.5t-61.5 -119t-88.5 -91.5t-105 -74t-110 -60.5t-105 -57t-88.5 -58t-61.5 -68.5t-23 -84h666l-41 -268h-932v268q0 76 23 139.5t61.5 107.5t88.5 81.5t105 66t110 55t105 55.5t88.5 61t61.5 77t23 99q0 79 -42 122.5t-126 43.5
q-191 0 -191 -209v-52l-307 41v66q0 86 30 158t79 120t114.5 81t134 48t138.5 15q71 0 137 -12.5t129 -43t109 -76.5t74 -118t28 -162z" />
    <glyph glyph-name="three" unicode="3" horiz-adv-x="1232" 
d="M432 524l-307 -41v-30q0 -116 42.5 -206.5t116.5 -145.5t168.5 -83t204.5 -28q96 0 179.5 24t149.5 71.5t104 126t38 179.5q0 79 -24.5 142.5t-65.5 102t-84.5 61t-89.5 30.5q95 17 159 95.5t64 221.5q0 187 -124.5 293.5t-323.5 106.5q-223 0 -354 -119t-131 -344v-20
l309 -41v47q0 209 168 209q149 0 149 -156q0 -72 -36.5 -115t-116.5 -43h-95v-268h95q90 0 142 -40.5t52 -127.5q0 -86 -51.5 -127t-134.5 -41q-98 0 -150.5 55.5t-52.5 153.5v57z" />
    <glyph glyph-name="four" unicode="4" horiz-adv-x="1304" 
d="M1210 551v-268h-186v-283h-309v283h-611v268l611 883h309v-883h186zM434 551h281v407z" />
    <glyph glyph-name="five" unicode="5" horiz-adv-x="1202" 
d="M752 952q71 0 130 -20.5t109 -65.5t78.5 -128t28.5 -197v-140q0 -92 -28.5 -164t-74.5 -118t-110.5 -75.5t-132 -41.5t-142.5 -12q-72 0 -138 10.5t-130.5 38t-111.5 69t-76 109.5t-29 154v4l307 41v-10q0 -148 178 -148q95 0 138 43.5t43 134.5v70q0 90 -42 134t-133 44
q-152 0 -184 -113h-287l72 863h307h523l-41 -269h-510l-31 -288q153 75 287 75z" />
    <glyph glyph-name="six" unicode="6" horiz-adv-x="1212" 
d="M1110 1059l-309 -41v10q0 77 -52 112.5t-133 35.5q-80 0 -132 -35t-52 -113v-176q164 90 313 90q51 0 98 -9.5t97.5 -37t86.5 -70.5t59.5 -116t23.5 -168v-150q0 -401 -494 -401q-491 0 -491 391v180v502q0 89 30 158t77 110t113.5 67.5t131.5 36t139 9.5t139.5 -9.5
t132 -36t114.5 -67.5t78 -110t30 -158v-4zM616 674q-89 0 -136.5 -37.5t-47.5 -130.5v-80q0 -93 47.5 -130.5t136.5 -37.5q87 0 136 38t49 130v80q0 92 -49 130t-136 38z" />
    <glyph glyph-name="seven" unicode="7" horiz-adv-x="1064" 
d="M84 1434h907v-269l-524 -1165h-322l525 1165h-586v269z" />
    <glyph glyph-name="eight" unicode="8" horiz-adv-x="1204" 
d="M104 401q0 -112 41 -194t113.5 -128t160 -67.5t193.5 -21.5q104 0 191.5 21.5t160.5 67.5t114.5 128t41.5 194q0 61 -17 114.5t-44 90.5t-62.5 65t-71 44t-71.5 22q95 17 160 93.5t65 211.5q0 108 -37.5 188t-104.5 125.5t-147.5 67t-177.5 21.5t-178 -21.5t-147.5 -67
t-104 -125.5t-37.5 -188q0 -135 64.5 -211.5t159.5 -93.5q-45 -8 -89.5 -31.5t-85 -63t-65.5 -102.5t-25 -139zM453 1018q0 158 159 158q160 0 160 -158q0 -162 -160 -162q-159 0 -159 162zM412 436q0 185 200 185q201 0 201 -185q0 -178 -201 -178q-200 0 -200 178z" />
    <glyph glyph-name="nine" unicode="9" horiz-adv-x="1212" 
d="M618 1444q77 0 143 -9.5t132.5 -36.5t112.5 -69.5t75 -113t29 -162.5v-181v-501q0 -89 -30 -158t-77.5 -110t-114 -67.5t-131.5 -36t-139 -9.5t-139 9.5t-132 36t-114.5 67.5t-77.5 110t-30 158v4l307 41v-10q0 -77 52.5 -112.5t133.5 -35.5q80 0 131.5 35t51.5 113v176
q-164 -90 -314 -90q-51 0 -98 9.5t-96.5 37t-85.5 70.5t-59 116t-23 168v149q0 402 493 402zM801 928v80q0 92 -48 130t-135 38q-89 0 -137.5 -38t-48.5 -130v-80q0 -92 48.5 -130t137.5 -38q87 0 135 38t48 130z" />
    <glyph glyph-name="colon" unicode=":" horiz-adv-x="483" 
d="M254 848q67 0 107 -38.5t40 -107.5t-40 -108t-107 -39q-69 0 -110.5 39t-41.5 108t41.5 107.5t110.5 38.5zM254 283q67 0 107 -38.5t40 -107.5t-40 -108t-107 -39q-69 0 -110.5 39t-41.5 108t41.5 107.5t110.5 38.5z" />
    <glyph glyph-name="semicolon" unicode=";" horiz-adv-x="524" 
d="M254 555q-69 0 -110.5 39t-41.5 108t41.5 107.5t110.5 38.5q67 0 107 -38.5t40 -107.5t-40 -108t-107 -39zM422 137v-2q0 -112 -59.5 -203t-129.5 -141l-71 29q89 89 82 172q-57 8 -90 45.5t-33 99.5q0 69 41 107.5t110 38.5q68 0 109 -38.5t41 -107.5z" />
    <glyph glyph-name="less" unicode="&#x3c;" horiz-adv-x="806" 
d="M684 963v-172l-381 -173l381 -172v-172l-541 263v163z" />
    <glyph glyph-name="equal" unicode="=" horiz-adv-x="1036" 
d="M143 748h770v-156h-770v156zM143 489h770v-155h-770v155z" />
    <glyph glyph-name="greater" unicode="&#x3e;" horiz-adv-x="806" 
d="M143 963l541 -263v-163l-541 -263v172l381 172l-381 173v172z" />
    <glyph glyph-name="question" unicode="?" horiz-adv-x="1095" 
d="M645 489q0 74 19 130.5t50 91.5t68 64.5t74 58t68 62.5t50 88.5t19 125.5q0 68 -24 124t-64.5 94.5t-94.5 65t-113.5 38.5t-123.5 12q-82 0 -155 -21t-136.5 -65t-101 -123.5t-37.5 -185.5v-41l308 -41q0 47 5 81t18.5 65t40 47t65.5 16q104 0 104 -103
q0 -41 -17.5 -72.5t-45.5 -54.5t-62 -47t-67.5 -57t-61.5 -76t-45.5 -114.5t-17.5 -162.5h278zM506 283q68 0 108.5 -38t40.5 -108q0 -72 -40.5 -109.5t-108.5 -37.5q-69 0 -109.5 37.5t-40.5 109.5q0 71 40.5 108.5t109.5 37.5z" />
    <glyph glyph-name="at" unicode="@" horiz-adv-x="1966" 
d="M1085 1030h297v-758q0 -75 53 -109q54 -35 116 3q92 56 123 232q14 77 14 171q0 197 -89.5 356t-248 249t-355.5 90q-198 0 -357 -90t-249 -249t-90 -356q0 -198 90 -357t249 -249t357 -90q139 0 256 49l205 -69q-198 -136 -461 -136q-119 0 -230.5 29.5t-205 83.5
t-171.5 132t-132 171.5t-83.5 205t-29.5 230.5q0 178 65.5 335.5t178.5 270.5t271.5 178.5t336.5 65.5q177 0 334.5 -65.5t270 -178.5t178 -270.5t65.5 -335.5q0 -354 -177 -502q-120 -101 -282 -82q-133 15 -221 97q-78 71 -78 158q-47 -80 -111 -121t-159 -41
q-144 0 -205 84.5t-63 240.5v177v135q0 154 62 239.5t206 85.5q95 0 159 -40.5t111 -120.5v151zM965 315q65 0 92.5 31.5t27.5 106.5v213q0 73 -27.5 104t-92.5 31t-93 -31t-28 -104v-127v-86q0 -75 28 -106.5t93 -31.5z" />
    <glyph glyph-name="A" unicode="A" horiz-adv-x="1382" 
d="M1008 0l-74 248h-467l-74 -248h-309l457 1434h319h2l457 -1434h-311zM547 516h307l-154 516z" />
    <glyph glyph-name="B" unicode="B" horiz-adv-x="1173" 
d="M778 743q137 0 224.5 -91.5t87.5 -266.5q0 -96 -29.5 -166.5t-76.5 -112t-121 -66t-148 -32.5t-172 -8h-439v1434h357q72 0 124.5 -2.5t113.5 -11.5t103 -25t83.5 -44t66.5 -67.5t40.5 -97.5t15.5 -131q0 -140 -73 -226t-157 -86zM412 1165v-288h49q50 0 82 2t65 10
t51 23t29.5 41t11.5 63q0 91 -52 120t-187 29h-49zM543 268q129 0 184 38t55 132q0 97 -61 133.5t-201 36.5h-59h-49v-340h131z" />
    <glyph glyph-name="C" unicode="C" horiz-adv-x="1187" 
d="M827 528l308 -41v-41q0 -104 -28 -184.5t-75 -131t-114.5 -83t-139.5 -45t-157 -12.5t-157 12.5t-140 45t-115.5 83t-76 131t-28.5 184.5v541q0 104 28.5 184.5t76 131t115.5 83t140 45.5t157 13t157 -13t139.5 -45.5t114.5 -83t75 -131t28 -184.5v-41l-308 -41v72
q0 199 -206 199q-209 0 -209 -199v-520q0 -199 209 -199q206 0 206 199v71z" />
    <glyph glyph-name="D" unicode="D" horiz-adv-x="1173" 
d="M575 1434q85 0 157 -13t139.5 -45.5t114.5 -83t75.5 -131t28.5 -184.5v-520q0 -104 -28.5 -184.5t-75.5 -131t-114.5 -83t-139.5 -45.5t-157 -13h-471v1434h471zM782 467v500q0 198 -207 198h-163v-897h163q207 0 207 199z" />
    <glyph glyph-name="E" unicode="E" horiz-adv-x="1003" 
d="M412 268h508v-268h-652h-164v1434h308h487v-269h-487v-321h354v-269h-354v-307z" />
    <glyph glyph-name="F" unicode="F" horiz-adv-x="993" 
d="M930 1165h-518v-362h344v-268h-344v-535h-308v1434h308h518v-269z" />
    <glyph glyph-name="G" unicode="G" horiz-adv-x="1196" 
d="M1124 956l-307 -41v52q0 209 -207 209q-209 0 -209 -209v-510q0 -199 209 -199q207 0 207 199v55h-207v268h514v-268v-66q0 -104 -28 -184.5t-75 -131t-114.5 -83t-139.5 -45t-157 -12.5t-157.5 12.5t-140.5 45t-115.5 83t-76 131t-28.5 184.5v541q0 104 28.5 184.5
t76 131t115.5 83t140.5 45.5t157.5 13t157 -13t139.5 -45.5t114.5 -83t75 -131t28 -184.5v-31z" />
    <glyph glyph-name="H" unicode="H" horiz-adv-x="1306" 
d="M928 1434h307v-1434h-307v575h-516v-575h-308v1434h308v-590h516v590z" />
    <glyph glyph-name="I" unicode="I" horiz-adv-x="495" 
d="M104 1434v-1434h308v1434h-308z" />
    <glyph glyph-name="J" unicode="J" horiz-adv-x="806" 
d="M416 1434h309v-1006q0 -101 -20.5 -176.5t-57 -123t-93.5 -76.5t-123 -40.5t-152 -11.5h-175l-41 268h144q42 0 70.5 3.5t56.5 15t45 32t27 55.5t10 85v975z" />
    <glyph glyph-name="K" unicode="K" horiz-adv-x="1228" 
d="M1167 1434l-407 -717l407 -717h-342l-311 584h-102v-584h-308v1434h308v-582h104l309 582h342z" />
    <glyph glyph-name="L" unicode="L" horiz-adv-x="989" 
d="M412 268h493v-268h-608h-193v1434h308v-1166z" />
    <glyph glyph-name="M" unicode="M" horiz-adv-x="1605" 
d="M1214 1434h308v-1434h-308v842l-401 -662l-401 662v-842h-308v1434h308l401 -680z" />
    <glyph glyph-name="N" unicode="N" horiz-adv-x="1329" 
d="M938 1434h307v-1434h-307l-526 870v-870h-308v1434h308l526 -871v871z" />
    <glyph glyph-name="O" unicode="O" horiz-adv-x="1218" 
d="M621 -10q85 0 157 12.5t139.5 45t114.5 83t75 131t28 184.5v541q0 104 -28 184.5t-75 131t-114.5 83t-139.5 45.5t-157 13t-157 -13t-140 -45.5t-115.5 -83t-76 -131t-28.5 -184.5v-541q0 -104 28.5 -184.5t76 -131t115.5 -83t140 -45t157 -12.5zM621 258
q-209 0 -209 199v520q0 199 209 199q206 0 206 -199v-520q0 -199 -206 -199z" />
    <glyph glyph-name="P" unicode="P" horiz-adv-x="1157" 
d="M571 1434q76 0 143.5 -12t135 -43.5t116.5 -79.5t79 -126.5t30 -179.5v-131q0 -101 -30 -179t-79 -126.5t-116.5 -79.5t-135 -43t-143.5 -12h-159v-422h-308v1434h467zM766 883v90q0 100 -56.5 146t-138.5 46h-159v-475h159q82 0 138.5 46.5t56.5 146.5z" />
    <glyph glyph-name="Q" unicode="Q" horiz-adv-x="1218" 
d="M1135 446q0 -371 -342 -440q15 -77 83 -107t238 -30l-41 -268q-278 0 -422 93t-168 306q-379 56 -379 446v541q0 104 28.5 184.5t76 131t115.5 83t140 45.5t157 13t157 -13t139.5 -45.5t114.5 -83t75 -131t28 -184.5v-541zM827 457v520q0 199 -206 199q-209 0 -209 -199
v-520q0 -199 209 -199q206 0 206 199z" />
    <glyph glyph-name="R" unicode="R" horiz-adv-x="1196" 
d="M1133 0h-345l-225 475q-10 -2 -28 -2h-123v-473h-308v1434h431q85 0 158.5 -12.5t144.5 -45t121.5 -83t81 -131.5t30.5 -185v-45q0 -287 -221 -395zM412 1165v-424h123q112 0 169.5 46t57.5 147v39q0 102 -57 147t-170 45h-123z" />
    <glyph glyph-name="S" unicode="S" horiz-adv-x="1159" 
d="M84 385v72l307 41v-43q0 -197 221 -197q83 0 129.5 30.5t46.5 88.5q0 63 -50 105.5t-195 111.5q-236 110 -327 216t-91 255q0 85 28 152.5t73 109t106 69t122.5 38t127.5 10.5t129 -11t126.5 -39.5t111 -71.5t77 -113.5t29.5 -159.5v-41l-307 -41q0 102 -40.5 155.5
t-132.5 53.5q-72 0 -107.5 -28t-35.5 -75q0 -55 59 -106t207 -127q80 -38 137.5 -71.5t109.5 -74.5t83 -84.5t49.5 -98t18.5 -118.5q0 -99 -32 -173.5t-80 -117t-116.5 -69t-130 -35t-131.5 -8.5q-68 0 -134.5 10t-138.5 38t-125.5 70.5t-88.5 114t-35 162.5z" />
    <glyph glyph-name="T" unicode="T" horiz-adv-x="1101" 
d="M1049 1434v-269h-334v-1165h-307v1165h-336v269h643h334z" />
    <glyph glyph-name="U" unicode="U" horiz-adv-x="1218" 
d="M827 1434v-977q0 -199 -206 -199q-209 0 -209 199v977h-308v-988q0 -104 28.5 -184.5t76 -131t115.5 -83t140 -45t157 -12.5t157 12.5t139.5 45t114.5 83t75 131t28 184.5v988h-308z" />
    <glyph glyph-name="V" unicode="V" horiz-adv-x="1341" 
d="M979 1434h309l-446 -1434h-320h-2l-448 1434h311l297 -1008z" />
    <glyph glyph-name="W" unicode="W" horiz-adv-x="2015" 
d="M1655 1434h309l-387 -1434h-322h-2l-235 944l-234 -944h-323h-2l-387 1434h311l240 -975l237 975h316l239 -975z" />
    <glyph glyph-name="X" unicode="X" horiz-adv-x="1349" 
d="M1296 1436l-428 -719l428 -717h-348l-264 483l-264 -483h-348l428 717l-428 717h348l264 -484l264 486h348z" />
    <glyph glyph-name="Y" unicode="Y" horiz-adv-x="1388" 
d="M989 1436h330l-459 -873v-563h-307v563l-461 871h330l283 -580z" />
    <glyph glyph-name="Z" unicode="Z" horiz-adv-x="1181" 
d="M1118 1434v-269l-659 -897h659v-268h-1026v268l662 897h-662v269h1026z" />
    <glyph glyph-name="bracketleft" unicode="[" horiz-adv-x="657" 
d="M596 -328v269h-207v1224h207v269h-514v-1762h514z" />
    <glyph glyph-name="backslash" unicode="\" horiz-adv-x="923" 
d="M250 1556l633 -1679h-168l-633 1679h168z" />
    <glyph glyph-name="bracketright" unicode="]" horiz-adv-x="657" 
d="M82 -328h514v1762h-514v-269h207v-1224h-207v-269z" />
    <glyph glyph-name="asciicircum" unicode="^" horiz-adv-x="989" 
d="M575 1516l291 -469h-184l-178 307l-176 -307h-185l291 469h141z" />
    <glyph glyph-name="underscore" unicode="_" horiz-adv-x="1517" 
d="M82 -123h1374v-156h-1374v156z" />
    <glyph glyph-name="grave" unicode="`" horiz-adv-x="755" 
d="M434 1468l199 -311l-199 -37l-291 314z" />
    <glyph glyph-name="a" unicode="a" horiz-adv-x="1034" 
d="M528 1014q88 0 150 -9.5t117 -36.5t87.5 -74.5t51 -124t18.5 -185.5v-584h-256l-41 131q-31 -63 -97.5 -102t-158.5 -39q-133 0 -214 84t-81 254q0 172 81 256t214 84q94 0 160 -35t96 -96v47q0 94 -34 142t-134 48h-278l41 240h278zM528 227q62 0 94.5 23.5t32.5 77.5
q0 56 -32 78t-95 22t-95 -22t-32 -78q0 -54 32.5 -77.5t94.5 -23.5z" />
    <glyph glyph-name="b" unicode="b" horiz-adv-x="1032" 
d="M688 1024q127 0 193.5 -82.5t66.5 -222.5v-291v-135q0 -139 -66.5 -221t-193.5 -82q-182 0 -278 162l-41 -152h-256v1516h297v-654q96 162 278 162zM651 659q0 125 -121 125q-120 0 -120 -125v-305q0 -127 120 -127q121 0 121 127v305z" />
    <glyph glyph-name="c" unicode="c" horiz-adv-x="1003" 
d="M643 412l297 -41v-11q0 -104 -35.5 -179t-97 -115t-132 -58t-153.5 -18t-153.5 18t-132 58t-97 115t-35.5 179v293q0 83 24 148.5t63.5 106.5t94.5 68t113 37.5t123 10.5t123 -10.5t113 -37.5t94.5 -68t63.5 -106.5t24 -148.5v-8l-297 -41v45q0 72 -29 103.5t-92 31.5
q-121 0 -121 -125v-305q0 -127 121 -127q63 0 92 32t29 106v47z" />
    <glyph glyph-name="d" unicode="d" horiz-adv-x="1021" 
d="M643 1516h297v-1516h-256l-41 152q-96 -162 -278 -162q-127 0 -194 82t-67 221v291v135q0 139 67 222t194 83q182 0 278 -162v654zM643 354v305q0 125 -121 125t-121 -125v-231v-74q0 -127 121 -127t121 127z" />
    <glyph glyph-name="e" unicode="e" horiz-adv-x="1036" 
d="M524 1024q82 0 155 -20t136 -61.5t100 -116t37 -173.5v-45v-159h-561v-95q0 -127 133 -127q66 0 98.5 30.5t32.5 96.5v15l297 -41q0 -70 -24.5 -127t-66 -95.5t-97.5 -65t-116 -38.5t-124 -12q-82 0 -155 19.5t-136.5 61t-101 116t-37.5 173.5v293q0 99 37.5 173.5
t101 116t136.5 61.5t155 20zM391 627h264v32q0 61 -31 93t-100 32q-71 0 -102 -32t-31 -93v-32z" />
    <glyph glyph-name="f" unicode="f" horiz-adv-x="747" 
d="M674 1196q-34 0 -50.5 -1t-43.5 -8.5t-40 -22t-23.5 -44.5t-10.5 -73v-33h168v-240h-168v-774h-297v774h-125v240h125v33q0 83 10.5 143.5t34.5 103.5t56.5 70t84.5 43t110 21.5t140 5.5h29v-238z" />
    <glyph glyph-name="g" unicode="g" horiz-adv-x="1021" 
d="M692 1014h256v-996q0 -108 -19.5 -184.5t-53 -123.5t-89 -74t-116.5 -36.5t-146 -9.5h-307l-41 238h307q100 0 134 48t34 142v134q-96 -162 -276 -162q-127 0 -194.5 82t-67.5 221v291v135q0 139 67.5 222t194.5 83q180 0 276 -162zM651 354v305q0 125 -121 125
q-120 0 -120 -125v-231v-74q0 -127 120 -127q121 0 121 127z" />
    <glyph glyph-name="h" unicode="h" horiz-adv-x="1042" 
d="M692 1024q146 0 212.5 -88t66.5 -238v-698h-297v637q0 75 -30.5 111t-100.5 36q-72 0 -102.5 -35.5t-30.5 -111.5v-637h-297v1516h297v-633q102 141 282 141z" />
    <glyph glyph-name="i" unicode="i" horiz-adv-x="487" 
d="M264 1153q-70 0 -115 36t-45 105t45 105.5t115 36.5q71 0 115.5 -36.5t44.5 -105.5t-44.5 -105t-115.5 -36zM113 1014h297v-1014h-297v1014z" />
    <glyph glyph-name="j" unicode="j" horiz-adv-x="489" 
d="M268 1153q-70 0 -114.5 36t-44.5 105t44.5 105.5t114.5 36.5q71 0 115.5 -36.5t44.5 -105.5t-44.5 -105t-115.5 -36zM117 1014h297v-1037q0 -88 -10 -151t-34.5 -106t-55 -68.5t-83.5 -39.5t-106 -18t-135 -4l-41 238q34 0 50.5 1t43.5 8.5t40 22t23.5 44.5t10.5 73v1037
z" />
    <glyph glyph-name="k" unicode="k" horiz-adv-x="1124" 
d="M1061 1014l-326 -508l326 -506h-326l-227 387h-98v-387h-297v1516h297v-891h96l229 389h326z" />
    <glyph glyph-name="l" unicode="l" horiz-adv-x="483" 
d="M113 1516h297v-1516h-297v1516z" />
    <glyph glyph-name="m" unicode="m" horiz-adv-x="1478" 
d="M1155 1024q57 0 101 -16t71.5 -41.5t45.5 -62t25 -74t7 -80.5v-750h-297v659q0 67 -22.5 96t-75.5 29t-78 -30t-25 -95v-659h-297v659q0 67 -22.5 96t-75.5 29t-77.5 -29.5t-24.5 -95.5v-659h-297v1014h256l41 -131q32 60 96.5 100.5t150.5 40.5q198 0 240 -168
q33 75 99 121.5t159 46.5z" />
    <glyph glyph-name="n" unicode="n" horiz-adv-x="1042" 
d="M692 1024q146 0 212.5 -88t66.5 -238v-698h-297v637q0 75 -30.5 111t-100.5 36q-72 0 -102.5 -35.5t-30.5 -111.5v-637h-297v1014h256l41 -131q53 65 126.5 103t155.5 38z" />
    <glyph glyph-name="o" unicode="o" horiz-adv-x="1034" 
d="M528 -10q85 0 156 18t133 58t97.5 115t35.5 179v293q0 83 -24 148.5t-63.5 106.5t-95 68t-114 37.5t-125.5 10.5q-85 0 -157 -18.5t-134 -59t-97.5 -115.5t-35.5 -178v-293q0 -84 24 -149t63.5 -106t95.5 -67.5t115 -37t126 -10.5zM528 227q-127 0 -127 127v305
q0 125 127 125q125 0 125 -125v-305q0 -127 -125 -127z" />
    <glyph glyph-name="p" unicode="p" horiz-adv-x="1032" 
d="M688 1024q127 0 193.5 -82.5t66.5 -222.5v-291v-135q0 -139 -66.5 -221t-193.5 -82q-182 0 -278 162v-562h-297v1424h256l41 -152q96 162 278 162zM651 659q0 125 -121 125q-120 0 -120 -125v-305q0 -127 120 -127q121 0 121 127v305z" />
    <glyph glyph-name="q" unicode="q" horiz-adv-x="1021" 
d="M684 1014h256v-1424h-297v562q-96 -162 -278 -162q-127 0 -194 82t-67 221v291v135q0 139 67 222t194 83q182 0 278 -162zM643 354v305q0 125 -121 125t-121 -125v-231v-74q0 -127 121 -127t121 127z" />
    <glyph glyph-name="r" unicode="r" horiz-adv-x="956" 
d="M670 1024q77 0 130 -37.5t76 -102t27.5 -151.5t-16.5 -186l-297 -41v156q0 66 -21 94t-69 28q-47 0 -68.5 -28.5t-21.5 -93.5v-662h-297v1014h256l41 -131q37 64 107 102.5t153 38.5z" />
    <glyph glyph-name="s" unicode="s" horiz-adv-x="1013" 
d="M104 303l297 41q0 -56 31.5 -86.5t112.5 -30.5q108 0 108 72q0 23 -14 39.5t-45 29t-59.5 20t-79 19.5t-82.5 21q-124 36 -186 104.5t-62 182.5q0 81 33 142t90.5 96.5t127 53t150.5 17.5q80 0 150.5 -18t128.5 -54.5t91.5 -98t33.5 -142.5l-297 -41q0 56 -24 85t-89 29
q-98 0 -98 -67q0 -16 6.5 -29.5t20.5 -23.5t29.5 -18t41.5 -16t47.5 -13.5t56 -14.5t58.5 -16q61 -17 106 -39.5t83.5 -56.5t58.5 -84t20 -115q0 -64 -22.5 -116t-60.5 -86t-90.5 -56.5t-110 -32.5t-121.5 -10q-65 0 -125.5 10t-119 34t-101.5 59t-69 89t-26 121z" />
    <glyph glyph-name="t" unicode="t" horiz-adv-x="806" 
d="M735 774h-198v-387q0 -43 10.5 -73t23.5 -44.5t40 -22t43.5 -8.5t50.5 -1h30v-238h-71q-48 0 -82 1t-72.5 4.5t-64.5 9.5t-54.5 16.5t-47 26t-37 37t-29.5 49.5t-20 64t-13 80.5t-4 98.5v387h-146v240q67 0 111 18t66 55t30 79.5t8 105.5h228v-258h198v-240z" />
    <glyph glyph-name="u" unicode="u" horiz-adv-x="1042" 
d="M674 1014h297v-1014h-256l-41 129q-51 -64 -125 -101.5t-158 -37.5q-146 0 -212 87.5t-66 237.5v699h297v-637q0 -77 30.5 -113.5t102.5 -36.5q70 0 100.5 36.5t30.5 113.5v637z" />
    <glyph glyph-name="v" unicode="v" horiz-adv-x="1140" 
d="M774 1014h293l-332 -1014h-317h-2l-332 1014h293l198 -699z" />
    <glyph glyph-name="w" unicode="w" horiz-adv-x="1705" 
d="M1346 1014h286l-291 -1014h-317h-2l-164 645l-164 -645h-317h-2l-291 1014h287l164 -688l163 688h320l164 -688z" />
    <glyph glyph-name="x" unicode="x" horiz-adv-x="1107" 
d="M1034 1014l-301 -508l301 -506h-321l-154 315l-153 -315h-322l301 506l-301 508h322l153 -316l154 316h321z" />
    <glyph glyph-name="y" unicode="y" horiz-adv-x="1054" 
d="M674 1014h297v-996q0 -108 -19.5 -184.5t-53 -123.5t-89 -74t-116.5 -36.5t-146 -9.5h-330l-41 238h330q100 0 134 48t34 142v117q-100 -139 -283 -139q-146 0 -212 87.5t-66 238.5v696h297v-635q0 -77 30.5 -113.5t102.5 -36.5q70 0 100.5 36.5t30.5 113.5v631z" />
    <glyph glyph-name="z" unicode="z" horiz-adv-x="1015" 
d="M924 1014v-240l-463 -536h463v-238h-811v238l462 536h-462v240h811z" />
    <glyph glyph-name="braceleft" unicode="{" horiz-adv-x="774" 
d="M713 -328v269q-112 0 -164.5 43.5t-52.5 165.5v52q2 42 0.5 84t-4 81t-12 73t-24.5 59t-41.5 39.5t-62.5 14.5q107 0 134 137q12 63 10 231v35q0 122 52.5 165.5t164.5 43.5v269q-83 0 -147 -5.5t-126.5 -19.5t-106.5 -40t-78.5 -65t-51.5 -97t-17 -134q0 -45 5.5 -101
t10.5 -93.5t5 -76.5t-9 -62t-34.5 -37.5t-69.5 -14.5v-268q38 0 62 -10t35 -30.5t14.5 -45t1 -61t-7 -71t-9 -82t-4.5 -87.5q0 -91 26 -156.5t69.5 -104.5t113.5 -62t143.5 -30.5t174.5 -7.5z" />
    <glyph glyph-name="bar" unicode="|" horiz-adv-x="360" 
d="M279 1540v-1646h-156v1646h156z" />
    <glyph glyph-name="braceright" unicode="}" horiz-adv-x="761" 
d="M82 -328q71 0 127 3.5t112 14t98 27.5t79 44.5t60 65t36.5 89.5t13.5 117q0 40 -4.5 87.5t-9 82t-7 71t1 61t14.5 45t35 30.5t62 10v268q-44 0 -69.5 14.5t-34.5 37.5t-9 62t5 76.5t10.5 93.5t5.5 101q0 65 -13.5 117t-36.5 89.5t-60 65t-79 44.5t-98 27.5t-112 14
t-127 3.5v-269q112 0 164.5 -43.5t52.5 -165.5q0 -18 -0.5 -53.5t-0.5 -56.5t1 -54.5t3 -54t7 -48.5t12 -45.5t18 -36.5t25 -29.5t34 -17.5t44 -7q-24 0 -44 -7t-34 -17.5t-25 -29.5t-18 -36.5t-12 -45.5t-7 -48.5t-3 -54t-1 -54.5t0.5 -56.5t0.5 -53.5q0 -122 -52.5 -165.5
t-164.5 -43.5v-269z" />
    <glyph glyph-name="asciitilde" unicode="~" horiz-adv-x="1126" 
d="M143 485q0 146 74 222.5t180 76.5q53 0 97 -18t74 -44t56.5 -52t56 -44t60.5 -18q55 0 81 40.5t26 103.5h156q0 -146 -74 -222.5t-180 -76.5q-53 0 -97 18t-74 44t-56.5 52t-56 44t-60.5 18q-55 0 -81 -40.5t-26 -103.5h-156z" />
    <glyph glyph-name="exclamdown" unicode="&#xa1;" horiz-adv-x="595" 
d="M319 741q-69 0 -110 38.5t-41 107.5t41 108t110 39q67 0 108.5 -39t41.5 -108t-41 -107.5t-109 -38.5zM184 535h269l41 -945h-351z" />
    <glyph glyph-name="cent" unicode="&#xa2;" horiz-adv-x="1036" 
d="M950 645l-297 -41v45q0 72 -29 103.5t-92 31.5q-120 0 -120 -125v-305q0 -127 120 -127q63 0 92 32t29 106v47l297 -41v-11q0 -90 -26 -158t-73 -109t-103 -64.5t-125 -32.5v-180h-179v180q-69 8 -125.5 31t-103.5 65t-73.5 110t-26.5 158v293q0 89 26.5 157t73.5 110
t103.5 65.5t125.5 32.5v190h179v-190q69 -9 125 -32.5t103 -65.5t73 -110t26 -157v-8z" />
    <glyph glyph-name="sterling" unicode="&#xa3;" horiz-adv-x="1312" 
d="M1200 920l-309 -41v84q0 113 -47 163t-146 50q-194 0 -194 -189q0 -44 11.5 -91.5t36.5 -117.5t32 -94h254v-156h-230q-7 -151 -186 -260h778v-268h-1067v268q179 116 172 260h-172v156h139q-3 10 -16.5 47t-18.5 52t-15.5 49t-14.5 56.5t-8 53t-4 59.5q0 99 27.5 176.5
t74.5 127t113.5 81.5t138.5 45t156 13q495 0 495 -463v-61z" />
    <glyph glyph-name="currency" unicode="&#xa4;" horiz-adv-x="1136" 
d="M1026 770q0 -179 -102 -281l110 -143l-137 -86l-104 146q-90 -37 -213 -37q-117 0 -213 41l-107 -150l-137 86l115 148q-105 105 -105 276v27q0 171 105 276l-115 148l137 86l107 -150q96 41 213 41q123 0 213 -37l104 146l137 -86l-110 -144q102 -102 102 -280v-27z
M440 774q0 -66 37 -101.5t103 -35.5t101.5 35t35.5 102v19q0 67 -35.5 102t-101.5 35t-103 -35.5t-37 -101.5v-19z" />
    <glyph glyph-name="yen" unicode="&#xa5;" horiz-adv-x="1435" 
d="M1352 1436l-428 -813h204v-156h-235v-72h235v-155h-235v-240h-307v240h-238v155h238v72h-238v156h207l-430 811h330l282 -580l285 582h330z" />
    <glyph glyph-name="brokenbar" unicode="&#xa6;" horiz-adv-x="360" 
d="M279 1540v-598h-156v598h156zM279 492v-598h-156v598h156z" />
    <glyph glyph-name="section" unicode="&#xa7;" horiz-adv-x="1228" 
 />
    <glyph glyph-name="dieresis" unicode="&#xa8;" horiz-adv-x="1036" 
d="M303 1124q-70 0 -115 36.5t-45 105.5t45 105t115 36q71 0 115.5 -36t44.5 -105t-44.5 -105.5t-115.5 -36.5zM723 1124q-71 0 -115.5 36.5t-44.5 105.5t44.5 105t115.5 36t114.5 -36t43.5 -105t-43.5 -105.5t-114.5 -36.5z" />
    <glyph glyph-name="copyright" unicode="&#xa9;" horiz-adv-x="1720" 
d="M870 -10q-197 0 -364.5 97.5t-265 265t-97.5 364.5t97.5 364.5t265 265t364.5 97.5t364.5 -97.5t265 -265t97.5 -364.5t-97.5 -364.5t-265 -265t-364.5 -97.5zM870 145q122 0 228.5 43.5t181.5 118.5t118.5 181.5t43.5 228.5q0 247 -162 409t-410 162
q-163 0 -293.5 -73.5t-204 -204t-73.5 -293.5q0 -248 162 -410t409 -162zM1065 629q0 -79 -49.5 -122.5t-138.5 -43.5q-93 0 -146 50.5t-53 158.5v90q0 108 53 158.5t146 50.5q89 0 138.5 -43.5t49.5 -122.5l156 29q0 121 -99 206.5t-245 85.5q-75 0 -138 -22.5t-112.5 -67
t-77 -119t-27.5 -172.5v-57q0 -98 27.5 -172.5t77 -119t112.5 -67t138 -22.5q146 0 245 86t99 207z" />
    <glyph glyph-name="guillemotleft" unicode="&#xab;" horiz-adv-x="1110" 
d="M608 942l-205 -391l205 -391h-321l-205 391l205 391h321zM1049 942l-205 -391l205 -391h-322l-205 391l205 391h322z" />
    <glyph glyph-name="logicalnot" unicode="&#xac;" horiz-adv-x="1036" 
d="M143 696h770v-155v-226h-155v226h-615v155z" />
    <glyph glyph-name="registered" unicode="&#xae;" horiz-adv-x="1454" 
d="M737 1526q170 0 307 -80t212 -215.5t75 -298.5t-75 -298.5t-212 -215.5t-307 -80t-307 80t-212 215.5t-75 298.5t75 298.5t212 215.5t307 80zM737 494q191 0 315 125.5t124 312.5t-124 312.5t-315 125.5t-314.5 -125.5t-123.5 -312.5t123.5 -312.5t314.5 -125.5z
M969 1014q0 -66 -20 -106.5t-68 -63.5l114 -182h-184l-78 153q-14 -2 -47 -2v-151h-156v552h156q159 0 221 -46.5t62 -153.5zM686 1069v-111q31 0 46 0.5t34 3.5t27 8.5t14 16.5t6 27t-6 26.5t-13.5 16.5t-27 8.5t-34 3t-46.5 0.5z" />
    <glyph glyph-name="macron" unicode="&#xaf;" horiz-adv-x="1069" 
d="M143 1380h682v-227h-682v227z" />
    <glyph glyph-name="degree" unicode="&#xb0;" horiz-adv-x="782" 
d="M401 928q-107 0 -182.5 75.5t-75.5 182.5t75.5 182.5t182.5 75.5t182.5 -75.5t75.5 -182.5t-75.5 -182.5t-182.5 -75.5zM401 1083q46 0 74.5 28.5t28.5 74.5t-28.5 74t-74.5 28t-74 -28t-28 -74t28 -74.5t74 -28.5z" />
    <glyph glyph-name="plusminus" unicode="&#xb1;" horiz-adv-x="1036" 
d="M606 819h307v-155h-307v-175h-155v175h-308v155h308v174h155v-174zM143 244v155h770v-155h-770z" />
    <glyph glyph-name="acute" unicode="&#xb4;" horiz-adv-x="755" 
d="M342 1468l291 -34l-291 -314l-199 37z" />
    <glyph glyph-name="paragraph" unicode="&#xb6;" horiz-adv-x="1196" 
d="M143 1004q0 107 31 186.5t79 125.5t119 73.5t138 36t149 8.5h156v-1434h-156v573q-82 0 -149 9t-138 36.5t-119 73t-79 125.5t-31 187zM918 1434h155v-1434h-155v1434z" />
    <glyph glyph-name="periodcentered" unicode="&#xb7;" horiz-adv-x="503" 
d="M254 696q67 0 107 -39t40 -108q0 -70 -40 -109t-107 -39q-69 0 -110.5 39.5t-41.5 108.5t41.5 108t110.5 39z" />
    <glyph glyph-name="cedilla" unicode="&#xb8;" horiz-adv-x="739" 
d="M190 -154l82 174h152l-21 -104q95 0 154 -52.5t59 -150.5q0 -59 -21.5 -101.5t-56.5 -67.5t-93 -39.5t-118 -19.5t-143 -5l-41 176h27q126 0 172.5 19.5t46.5 72.5t-45 75.5t-154 22.5z" />
    <glyph glyph-name="guillemotright" unicode="&#xbb;" horiz-adv-x="1110" 
d="M403 942l205 -391l-205 -391h-321l205 391l-205 391h321zM844 942l205 -391l-205 -391h-320l205 391l-205 391h320z" />
    <glyph glyph-name="questiondown" unicode="&#xbf;" horiz-adv-x="1095" 
d="M629 743q-68 0 -108 38t-40 108q0 72 40 109.5t108 37.5q69 0 110 -37.5t41 -109.5q0 -70 -41 -108t-110 -38zM492 537q0 -74 -19 -130.5t-50 -91.5t-68 -64.5t-74.5 -58t-68.5 -62.5t-50 -88.5t-19 -125.5q0 -68 24 -124t64.5 -94.5t94.5 -65t113.5 -38.5t123.5 -12
q82 0 155 21t136.5 65t101 123.5t37.5 185.5v41l-309 41q0 -47 -5 -81t-17.5 -65t-39 -47t-65.5 -16q-106 0 -106 103q0 41 17.5 72.5t45.5 54.5t62.5 47t68.5 57t62 76t45.5 114.5t17.5 162.5h-278z" />
    <glyph glyph-name="Agrave" unicode="&#xc0;" horiz-adv-x="1382" 
d="M797 1577l-199 -37l-291 313l291 35zM1008 0l-74 248h-467l-74 -248h-309l457 1434h319h2l457 -1434h-311zM547 516h307l-154 516z" />
    <glyph glyph-name="Aacute" unicode="&#xc1;" horiz-adv-x="1382" 
d="M1069 1853l-291 -313l-198 37l198 311zM1008 0l-74 248h-467l-74 -248h-309l457 1434h319h2l457 -1434h-311zM547 516h307l-154 516z" />
    <glyph glyph-name="Acircumflex" unicode="&#xc2;" horiz-adv-x="1382" 
d="M696 1683l-88 -159h-219l215 348h184l216 -348h-220zM1008 0l-74 248h-467l-74 -248h-309l457 1434h319h2l457 -1434h-311zM547 516h307l-154 516z" />
    <glyph glyph-name="Atilde" unicode="&#xc3;" horiz-adv-x="1382" 
d="M610 1655q-71 0 -71 -113h-207q0 320 211 320q39 0 69.5 -12.5t50 -31t36 -36.5t37 -30.5t44.5 -12.5q70 0 70 112h209q0 -319 -211 -319q-39 0 -70 12.5t-50 31t-36 36.5t-37.5 30.5t-44.5 12.5zM1008 0l-74 248h-467l-74 -248h-309l457 1434h319h2l457 -1434h-311z
M547 516h307l-154 516z" />
    <glyph glyph-name="Adieresis" unicode="&#xc4;" horiz-adv-x="1382" 
d="M487 1544q-70 0 -114.5 36.5t-44.5 105.5t44.5 105t114.5 36q71 0 115.5 -36t44.5 -105t-44.5 -105.5t-115.5 -36.5zM907 1544q-71 0 -115 36.5t-44 105.5t44 105t115 36t114.5 -36t43.5 -105t-43.5 -105.5t-114.5 -36.5zM1008 0l-74 248h-467l-74 -248h-309l457 1434
h319h2l457 -1434h-311zM547 516h307l-154 516z" />
    <glyph glyph-name="Aring" unicode="&#xc5;" horiz-adv-x="1382" 
d="M696 1475q-101 0 -168 67t-67 168q0 102 66.5 168t168.5 66q103 0 168.5 -65.5t65.5 -168.5q0 -102 -66 -168.5t-168 -66.5zM696 1788q-34 0 -57 -21t-23 -57t23.5 -58t56.5 -22q32 0 55 22t23 58q0 35 -23 56.5t-55 21.5zM1008 0l-74 248h-467l-74 -248h-309l457 1434
h319h2l457 -1434h-311zM547 516h307l-154 516z" />
    <glyph glyph-name="AE" unicode="&#xc6;" horiz-adv-x="1753" 
d="M1184 268h508v-268h-650h-165v248h-404l-80 -248h-309l479 1434h438h183h487v-269h-487v-321h356v-269h-356v-307zM559 516h318v649h-109z" />
    <glyph glyph-name="Ccedilla" unicode="&#xc7;" horiz-adv-x="1187" 
d="M1135 946l-308 -41v72q0 199 -206 199q-209 0 -209 -199v-520q0 -199 209 -199q206 0 206 199v71l308 -41v-41q0 -424 -447 -454l-14 -76q95 0 154 -52.5t59 -150.5q0 -59 -21.5 -101.5t-56.5 -67.5t-93 -39.5t-118 -19.5t-143 -5l-41 176h26q126 0 172.5 19.5t46.5 72.5
t-44.5 75.5t-153.5 22.5l69 148q-72 6 -133 24t-116.5 53t-93.5 84.5t-60.5 123.5t-22.5 167v541q0 104 28.5 184.5t76 131t115.5 83t140 45.5t157 13t157 -13t139.5 -45.5t114.5 -83t75 -131t28 -184.5v-41z" />
    <glyph glyph-name="Egrave" unicode="&#xc8;" horiz-adv-x="1003" 
d="M602 1577l-199 -37l-290 313l290 35zM412 268h508v-268h-652h-164v1434h308h487v-269h-487v-321h354v-269h-354v-307z" />
    <glyph glyph-name="Eacute" unicode="&#xc9;" horiz-adv-x="1003" 
d="M874 1853l-290 -313l-199 37l199 311zM412 268h508v-268h-652h-164v1434h308h487v-269h-487v-321h354v-269h-354v-307z" />
    <glyph glyph-name="Ecircumflex" unicode="&#xca;" horiz-adv-x="1003" 
d="M502 1683l-88 -159h-219l215 348h184l215 -348h-219zM412 268h508v-268h-652h-164v1434h308h487v-269h-487v-321h354v-269h-354v-307z" />
    <glyph glyph-name="Edieresis" unicode="&#xcb;" horiz-adv-x="1003" 
d="M295 1544q-70 0 -115 36.5t-45 105.5t45 105t115 36q71 0 115.5 -36t44.5 -105t-44.5 -105.5t-115.5 -36.5zM715 1544q-71 0 -115.5 36.5t-44.5 105.5t44.5 105t115.5 36t114 -36t43 -105t-43 -105.5t-114 -36.5zM412 268h508v-268h-652h-164v1434h308h487v-269h-487
v-321h354v-269h-354v-307z" />
    <glyph glyph-name="Igrave" unicode="&#xcc;" horiz-adv-x="495" 
d="M160 1888l198 -311l-198 -37l-291 313zM104 1434v-1434h308v1434h-308z" />
    <glyph glyph-name="Iacute" unicode="&#xcd;" horiz-adv-x="495" 
d="M342 1888l291 -35l-291 -313l-199 37zM104 1434v-1434h308v1434h-308z" />
    <glyph glyph-name="Icircumflex" unicode="&#xce;" horiz-adv-x="495" 
d="M258 1683l-88 -159h-219l215 348h184l215 -348h-219zM104 0v1434h308v-1434h-308z" />
    <glyph glyph-name="Idieresis" unicode="&#xcf;" horiz-adv-x="495" 
d="M51 1544q-70 0 -115 36.5t-45 105.5t45 105t115 36q71 0 115.5 -36t44.5 -105t-44.5 -105.5t-115.5 -36.5zM471 1544q-71 0 -115.5 36.5t-44.5 105.5t44.5 105t115.5 36t114.5 -36t43.5 -105t-43.5 -105.5t-114.5 -36.5zM104 1434v-1434h308v1434h-308z" />
    <glyph glyph-name="Eth" unicode="&#xd0;" horiz-adv-x="1173" 
d="M575 1434q85 0 157 -13t139.5 -45.5t114.5 -83t75.5 -131t28.5 -184.5v-520q0 -104 -28.5 -184.5t-75.5 -131t-114.5 -83t-139.5 -45.5t-157 -13h-471v598h-145v238h145v598h471zM782 467v500q0 198 -207 198h-163v-329h159v-238h-159v-330h163q207 0 207 199z" />
    <glyph glyph-name="Ntilde" unicode="&#xd1;" horiz-adv-x="1329" 
d="M600 1655q-72 0 -72 -113h-206q0 320 210 320q39 0 70 -12.5t50 -31t36 -36.5t37.5 -30.5t44.5 -12.5q70 0 70 112h209q0 -319 -211 -319q-39 0 -70 12.5t-50 31t-36 36.5t-37.5 30.5t-44.5 12.5zM938 1434h307v-1434h-307l-526 870v-870h-308v1434h308l526 -871v871z
" />
    <glyph glyph-name="Ograve" unicode="&#xd2;" horiz-adv-x="1218" 
d="M518 1888l199 -311l-199 -37l-291 313zM621 -10q85 0 157 12.5t139.5 45t114.5 83t75 131t28 184.5v541q0 104 -28 184.5t-75 131t-114.5 83t-139.5 45.5t-157 13t-157 -13t-140 -45.5t-115.5 -83t-76 -131t-28.5 -184.5v-541q0 -104 28.5 -184.5t76 -131t115.5 -83
t140 -45t157 -12.5zM621 258q-209 0 -209 199v520q0 199 209 199q206 0 206 -199v-520q0 -199 -206 -199z" />
    <glyph glyph-name="Oacute" unicode="&#xd3;" horiz-adv-x="1218" 
d="M698 1888l291 -35l-291 -313l-198 37zM621 -10q85 0 157 12.5t139.5 45t114.5 83t75 131t28 184.5v541q0 104 -28 184.5t-75 131t-114.5 83t-139.5 45.5t-157 13t-157 -13t-140 -45.5t-115.5 -83t-76 -131t-28.5 -184.5v-541q0 -104 28.5 -184.5t76 -131t115.5 -83
t140 -45t157 -12.5zM621 258q-209 0 -209 199v520q0 199 209 199q206 0 206 -199v-520q0 -199 -206 -199z" />
    <glyph glyph-name="Ocircumflex" unicode="&#xd4;" horiz-adv-x="1218" 
d="M616 1683l-88 -159h-219l215 348h185l215 -348h-219zM621 1444q85 0 157 -13t139.5 -45.5t114.5 -83t75 -131t28 -184.5v-541q0 -104 -28 -184.5t-75 -131t-114.5 -83t-139.5 -45t-157 -12.5t-157 12.5t-140 45t-115.5 83t-76 131t-28.5 184.5v541q0 104 28.5 184.5
t76 131t115.5 83t140 45.5t157 13zM827 457v520q0 199 -206 199q-209 0 -209 -199v-520q0 -199 209 -199q206 0 206 199z" />
    <glyph glyph-name="Otilde" unicode="&#xd5;" horiz-adv-x="1218" 
d="M252 1542q0 320 211 320q39 0 69.5 -12.5t50 -31t36 -36.5t37 -30.5t44.5 -12.5q70 0 70 112h209q0 -319 -211 -319q-39 0 -70 12.5t-50 31t-36 36.5t-37.5 30.5t-44.5 12.5q-71 0 -71 -113h-207zM621 -10q85 0 157 12.5t139.5 45t114.5 83t75 131t28 184.5v541
q0 104 -28 184.5t-75 131t-114.5 83t-139.5 45.5t-157 13t-157 -13t-140 -45.5t-115.5 -83t-76 -131t-28.5 -184.5v-541q0 -104 28.5 -184.5t76 -131t115.5 -83t140 -45t157 -12.5zM621 258q-209 0 -209 199v520q0 199 209 199q206 0 206 -199v-520q0 -199 -206 -199z" />
    <glyph glyph-name="Odieresis" unicode="&#xd6;" horiz-adv-x="1218" 
d="M408 1544q-70 0 -115 36.5t-45 105.5t45 105t115 36q71 0 115 -36t44 -105t-44 -105.5t-115 -36.5zM827 1544q-71 0 -115 36.5t-44 105.5t44 105t115 36t114.5 -36t43.5 -105t-43.5 -105.5t-114.5 -36.5zM621 -10q85 0 157 12.5t139.5 45t114.5 83t75 131t28 184.5v541
q0 104 -28 184.5t-75 131t-114.5 83t-139.5 45.5t-157 13t-157 -13t-140 -45.5t-115.5 -83t-76 -131t-28.5 -184.5v-541q0 -104 28.5 -184.5t76 -131t115.5 -83t140 -45t157 -12.5zM621 258q-209 0 -209 199v520q0 199 209 199q206 0 206 -199v-520q0 -199 -206 -199z" />
    <glyph glyph-name="multiply" unicode="&#xd7;" horiz-adv-x="921" 
d="M799 829l-217 -217l217 -217l-111 -108l-217 217l-217 -217l-111 108l217 217l-217 217l111 111l217 -217l217 217z" />
    <glyph glyph-name="Oslash" unicode="&#xd8;" horiz-adv-x="1218" 
d="M1194 1516l-145 -234q86 -109 86 -295v-541q0 -104 -28 -184.5t-75 -131t-114.5 -83t-139.5 -45t-157 -12.5q-203 0 -324 71l-88 -143h-182l153 248q-76 105 -76 280v541q0 104 28.5 184.5t76 131t115.5 83t140 45.5t157 13q187 0 307 -64l84 136h182zM412 977v-434
l362 585q-51 48 -153 48q-209 0 -209 -199zM827 457v465l-372 -605q49 -59 166 -59q206 0 206 199z" />
    <glyph glyph-name="Ugrave" unicode="&#xd9;" horiz-adv-x="1218" 
d="M522 1888l199 -311l-199 -37l-291 313zM827 1434v-977q0 -199 -206 -199q-209 0 -209 199v977h-308v-988q0 -104 28.5 -184.5t76 -131t115.5 -83t140 -45t157 -12.5t157 12.5t139.5 45t114.5 83t75 131t28 184.5v988h-308z" />
    <glyph glyph-name="Uacute" unicode="&#xda;" horiz-adv-x="1218" 
d="M702 1888l291 -35l-291 -313l-198 37zM827 1434v-977q0 -199 -206 -199q-209 0 -209 199v977h-308v-988q0 -104 28.5 -184.5t76 -131t115.5 -83t140 -45t157 -12.5t157 12.5t139.5 45t114.5 83t75 131t28 184.5v988h-308z" />
    <glyph glyph-name="Ucircumflex" unicode="&#xdb;" horiz-adv-x="1218" 
d="M621 1683l-89 -159h-219l215 348h185l215 -348h-219zM827 1434h308v-988q0 -104 -28 -184.5t-75 -131t-114.5 -83t-139.5 -45t-157 -12.5t-157 12.5t-140 45t-115.5 83t-76 131t-28.5 184.5v988h308v-977q0 -199 209 -199q206 0 206 199v977z" />
    <glyph glyph-name="Udieresis" unicode="&#xdc;" horiz-adv-x="1218" 
d="M414 1544q-70 0 -115 36.5t-45 105.5t45 105t115 36q71 0 115 -36t44 -105t-44 -105.5t-115 -36.5zM834 1544q-71 0 -115.5 36.5t-44.5 105.5t44.5 105t115.5 36t114 -36t43 -105t-43 -105.5t-114 -36.5zM827 1434v-977q0 -199 -206 -199q-209 0 -209 199v977h-308v-988
q0 -104 28.5 -184.5t76 -131t115.5 -83t140 -45t157 -12.5t157 12.5t139.5 45t114.5 83t75 131t28 184.5v988h-308z" />
    <glyph glyph-name="Yacute" unicode="&#xdd;" horiz-adv-x="1388" 
d="M1073 1853l-291 -313l-198 37l198 311zM989 1436h330l-459 -873v-563h-307v563l-461 871h330l283 -580z" />
    <glyph glyph-name="Thorn" unicode="&#xde;" horiz-adv-x="1157" 
d="M516 1229q559 0 559 -479v-66q0 -479 -559 -479h-104v-205h-308v1434h308v-205h104zM766 682v70q0 112 -64.5 160.5t-185.5 48.5h-104v-488h104q121 0 185.5 48.5t64.5 160.5z" />
    <glyph glyph-name="germandbls" unicode="&#xdf;" horiz-adv-x="1220" 
d="M588 0q105 0 185 10t151 35.5t116.5 68t72 109.5t26.5 158q0 158 -92.5 249t-233.5 107q89 16 146 93.5t57 201.5q0 203 -118 307.5t-320 104.5q-106 0 -191 -26.5t-149 -81t-99 -144.5t-35 -211v-981h308v967q0 209 155 209q59 0 99.5 -40t40.5 -118q0 -70 -36.5 -108
t-86.5 -38h-35v-268h45q235 0 235 -178q0 -88 -70 -123t-212 -35z" />
    <glyph glyph-name="agrave" unicode="&#xe0;" horiz-adv-x="1034" 
d="M672 1157l-199 -37l-291 314l291 34zM528 1014q88 0 150 -9.5t117 -36.5t87.5 -74.5t51 -124t18.5 -185.5v-584h-256l-41 131q-31 -63 -97.5 -102t-158.5 -39q-133 0 -214 84t-81 254q0 172 81 256t214 84q94 0 160 -35t96 -96v47q0 94 -34 142t-134 48h-278l41 240h278z
M528 227q62 0 94.5 23.5t32.5 77.5q0 56 -32 78t-95 22t-95 -22t-32 -78q0 -54 32.5 -77.5t94.5 -23.5z" />
    <glyph glyph-name="aacute" unicode="&#xe1;" horiz-adv-x="1034" 
d="M944 1434l-291 -314l-198 37l198 311zM528 1014q88 0 150 -9.5t117 -36.5t87.5 -74.5t51 -124t18.5 -185.5v-584h-256l-41 131q-31 -63 -97.5 -102t-158.5 -39q-133 0 -214 84t-81 254q0 172 81 256t214 84q94 0 160 -35t96 -96v47q0 94 -34 142t-134 48h-278l41 240h278
zM528 227q62 0 94.5 23.5t32.5 77.5q0 56 -32 78t-95 22t-95 -22t-32 -78q0 -54 32.5 -77.5t94.5 -23.5z" />
    <glyph glyph-name="acircumflex" unicode="&#xe2;" horiz-adv-x="1034" 
d="M571 1264l-88 -160h-219l215 348h185l215 -348h-220zM528 1014q88 0 150 -9.5t117 -36.5t87.5 -74.5t51 -124t18.5 -185.5v-584h-256l-41 131q-31 -63 -97.5 -102t-158.5 -39q-133 0 -214 84t-81 254q0 172 81 256t214 84q94 0 160 -35t96 -96v47q0 94 -34 142t-134 48
h-278l41 240h278zM528 227q62 0 94.5 23.5t32.5 77.5q0 56 -32 78t-95 22t-95 -22t-32 -78q0 -54 32.5 -77.5t94.5 -23.5z" />
    <glyph glyph-name="atilde" unicode="&#xe3;" horiz-adv-x="1034" 
d="M485 1235q-71 0 -71 -113h-207q0 320 211 320q39 0 69.5 -12.5t50 -31t36 -36.5t37 -30.5t44.5 -12.5q70 0 70 113h209q0 -320 -211 -320q-39 0 -70 12.5t-50 31t-36 36.5t-37.5 30.5t-44.5 12.5zM528 1014q88 0 150 -9.5t117 -36.5t87.5 -74.5t51 -124t18.5 -185.5v-584
h-256l-41 131q-31 -63 -97.5 -102t-158.5 -39q-133 0 -214 84t-81 254q0 172 81 256t214 84q94 0 160 -35t96 -96v47q0 94 -34 142t-134 48h-278l41 240h278zM528 227q62 0 94.5 23.5t32.5 77.5q0 56 -32 78t-95 22t-95 -22t-32 -78q0 -54 32.5 -77.5t94.5 -23.5z" />
    <glyph glyph-name="adieresis" unicode="&#xe4;" horiz-adv-x="1034" 
d="M362 1124q-70 0 -114.5 36.5t-44.5 105.5t44.5 105t114.5 36q71 0 115.5 -36t44.5 -105t-44.5 -105.5t-115.5 -36.5zM782 1124q-71 0 -115 36.5t-44 105.5t44 105t115 36t114.5 -36t43.5 -105t-43.5 -105.5t-114.5 -36.5zM528 1014q88 0 150 -9.5t117 -36.5t87.5 -74.5
t51 -124t18.5 -185.5v-584h-256l-41 131q-31 -63 -97.5 -102t-158.5 -39q-133 0 -214 84t-81 254q0 172 81 256t214 84q94 0 160 -35t96 -96v47q0 94 -34 142t-134 48h-278l41 240h278zM528 227q62 0 94.5 23.5t32.5 77.5q0 56 -32 78t-95 22t-95 -22t-32 -78
q0 -54 32.5 -77.5t94.5 -23.5z" />
    <glyph glyph-name="aring" unicode="&#xe5;" horiz-adv-x="1034" 
d="M571 1055q-101 0 -168 67t-67 168q0 102 66.5 168t168.5 66q103 0 168.5 -65.5t65.5 -168.5q0 -102 -66 -168.5t-168 -66.5zM571 1368q-33 0 -56 -21t-23 -57t23 -58t56 -22q32 0 55 22t23 58q0 35 -23 56.5t-55 21.5zM528 1014q88 0 150 -9.5t117 -36.5t87.5 -74.5
t51 -124t18.5 -185.5v-584h-256l-41 131q-31 -63 -97.5 -102t-158.5 -39q-133 0 -214 84t-81 254q0 172 81 256t214 84q94 0 160 -35t96 -96v47q0 94 -34 142t-134 48h-278l41 240h278zM528 227q62 0 94.5 23.5t32.5 77.5q0 56 -32 78t-95 22t-95 -22t-32 -78
q0 -54 32.5 -77.5t94.5 -23.5z" />
    <glyph glyph-name="ae" unicode="&#xe6;" horiz-adv-x="1714" 
d="M1202 1024q82 0 155 -20t136.5 -61.5t101 -116t37.5 -173.5v-45v-159h-561v-95q0 -127 131 -127q67 0 100 30.5t33 96.5v15l297 -41q0 -70 -25 -127t-66.5 -95.5t-97.5 -65t-116.5 -38.5t-124.5 -12q-147 0 -250 57v-47h-256l-41 131q-31 -63 -97.5 -102t-158.5 -39
q-133 0 -214 84t-81 254q0 172 81 256t214 84q94 0 160 -35t96 -96v47q0 94 -34 142t-134 48h-278l41 240h278q127 0 209 -23t133 -84q117 117 332 117zM1071 627h264v32q0 61 -31 93t-102 32q-69 0 -100 -32t-31 -93v-32zM528 227q62 0 94.5 23.5t32.5 77.5q0 56 -32 78
t-95 22t-95 -22t-32 -78q0 -54 32.5 -77.5t94.5 -23.5z" />
    <glyph glyph-name="ccedilla" unicode="&#xe7;" horiz-adv-x="1003" 
d="M940 645l-297 -41v45q0 72 -29 103.5t-92 31.5q-121 0 -121 -125v-305q0 -127 121 -127q63 0 92 32t29 106v47l297 -41v-11q0 -92 -28 -161.5t-77.5 -111t-108.5 -64t-130 -29.5l-14 -78q95 0 154 -52.5t59 -150.5q0 -59 -21.5 -101.5t-57 -67.5t-93 -39.5t-118 -19.5
t-143.5 -5l-40 176h26q126 0 172.5 19.5t46.5 72.5t-44.5 75.5t-153.5 22.5l69 148q-70 9 -127 32.5t-105.5 65t-75 110t-26.5 158.5v293q0 83 24 148.5t63.5 106.5t94.5 68t113 37.5t123 10.5t123 -10.5t113 -37.5t94.5 -68t63.5 -106.5t24 -148.5v-8z" />
    <glyph glyph-name="egrave" unicode="&#xe8;" horiz-adv-x="1036" 
d="M625 1157l-199 -37l-291 314l291 34zM524 1024q82 0 155 -20t136 -61.5t100 -116t37 -173.5v-45v-159h-561v-95q0 -127 133 -127q66 0 98.5 30.5t32.5 96.5v15l297 -41q0 -70 -24.5 -127t-66 -95.5t-97.5 -65t-116 -38.5t-124 -12q-82 0 -155 19.5t-136.5 61t-101 116
t-37.5 173.5v293q0 99 37.5 173.5t101 116t136.5 61.5t155 20zM391 627h264v32q0 61 -31 93t-100 32q-71 0 -102 -32t-31 -93v-32z" />
    <glyph glyph-name="eacute" unicode="&#xe9;" horiz-adv-x="1036" 
d="M897 1434l-291 -314l-198 37l198 311zM524 1024q82 0 155 -20t136 -61.5t100 -116t37 -173.5v-45v-159h-561v-95q0 -127 133 -127q66 0 98.5 30.5t32.5 96.5v15l297 -41q0 -70 -24.5 -127t-66 -95.5t-97.5 -65t-116 -38.5t-124 -12q-82 0 -155 19.5t-136.5 61t-101 116
t-37.5 173.5v293q0 99 37.5 173.5t101 116t136.5 61.5t155 20zM391 627h264v32q0 61 -31 93t-100 32q-71 0 -102 -32t-31 -93v-32z" />
    <glyph glyph-name="ecircumflex" unicode="&#xea;" horiz-adv-x="1036" 
d="M524 1264l-88 -160h-219l215 348h184l215 -348h-219zM524 1024q82 0 155 -20t136 -61.5t100 -116t37 -173.5v-45v-159h-561v-95q0 -127 133 -127q66 0 98.5 30.5t32.5 96.5v15l297 -41q0 -70 -24.5 -127t-66 -95.5t-97.5 -65t-116 -38.5t-124 -12q-82 0 -155 19.5
t-136.5 61t-101 116t-37.5 173.5v293q0 99 37.5 173.5t101 116t136.5 61.5t155 20zM391 627h264v32q0 61 -31 93t-100 32q-71 0 -102 -32t-31 -93v-32z" />
    <glyph glyph-name="edieresis" unicode="&#xeb;" horiz-adv-x="1036" 
d="M315 1124q-70 0 -114.5 36.5t-44.5 105.5t44.5 105t114.5 36q71 0 115.5 -36t44.5 -105t-44.5 -105.5t-115.5 -36.5zM735 1124q-71 0 -115.5 36.5t-44.5 105.5t44.5 105t115.5 36t114.5 -36t43.5 -105t-43.5 -105.5t-114.5 -36.5zM524 1024q82 0 155 -20t136 -61.5
t100 -116t37 -173.5v-45v-159h-561v-95q0 -127 133 -127q66 0 98.5 30.5t32.5 96.5v15l297 -41q0 -70 -24.5 -127t-66 -95.5t-97.5 -65t-116 -38.5t-124 -12q-82 0 -155 19.5t-136.5 61t-101 116t-37.5 173.5v293q0 99 37.5 173.5t101 116t136.5 61.5t155 20zM391 627h264
v32q0 61 -31 93t-100 32q-71 0 -102 -32t-31 -93v-32z" />
    <glyph glyph-name="igrave" unicode="&#xec;" horiz-adv-x="483" 
d="M164 1468l198 -311l-198 -37l-291 314zM113 1014v-1014h297v1014h-297z" />
    <glyph glyph-name="iacute" unicode="&#xed;" horiz-adv-x="483" 
d="M346 1468l291 -34l-291 -314l-199 37zM113 1014v-1014h297v1014h-297z" />
    <glyph glyph-name="icircumflex" unicode="&#xee;" horiz-adv-x="483" 
d="M262 1264l-88 -160h-219l215 348h184l215 -348h-219zM113 0v1014h297v-1014h-297z" />
    <glyph glyph-name="idieresis" unicode="&#xef;" horiz-adv-x="483" 
d="M55 1124q-70 0 -114.5 36.5t-44.5 105.5t44.5 105t114.5 36q71 0 115.5 -36t44.5 -105t-44.5 -105.5t-115.5 -36.5zM475 1124q-71 0 -115.5 36.5t-44.5 105.5t44.5 105t115.5 36t114.5 -36t43.5 -105t-43.5 -105.5t-114.5 -36.5zM113 1014v-1014h297v1014h-297z" />
    <glyph glyph-name="eth" unicode="&#xf0;" horiz-adv-x="1191" 
d="M877 1300q221 -148 221 -460v-369v-100q0 -89 -28.5 -157.5t-75 -110t-112.5 -68t-132.5 -36t-143.5 -9.5t-143.5 9.5t-132.5 36t-112.5 68t-75.5 110t-29 157.5v159q0 89 26 158t66 110t94 67.5t104 36t101 9.5q143 0 287 -80v74q0 105 -78 176l-95 -127l-124 105
l75 100q-112 37 -252 37l37 238q218 0 379 -60l107 142l121 -103zM791 406v90q0 47 -15 80.5t-42 51.5t-58.5 26t-69.5 8t-69.5 -8t-58 -26t-41.5 -51.5t-15 -80.5v-90q0 -47 15 -80.5t41.5 -51.5t58 -26t69.5 -8t69.5 8t58.5 26t42 51.5t15 80.5z" />
    <glyph glyph-name="ntilde" unicode="&#xf1;" horiz-adv-x="1042" 
d="M453 1235q-72 0 -72 -113h-207q0 320 211 320q39 0 70 -12.5t50 -31t36 -36.5t37.5 -30.5t44.5 -12.5q69 0 69 113h209q0 -320 -211 -320q-39 0 -69.5 12.5t-50 31t-36 36.5t-37 30.5t-44.5 12.5zM692 1024q146 0 212.5 -88t66.5 -238v-698h-297v637q0 75 -30.5 111
t-100.5 36q-72 0 -102.5 -35.5t-30.5 -111.5v-637h-297v1014h256l41 -131q53 65 126.5 103t155.5 38z" />
    <glyph glyph-name="ograve" unicode="&#xf2;" horiz-adv-x="1034" 
d="M424 1468l199 -311l-199 -37l-291 314zM528 -10q85 0 156 18t133 58t97.5 115t35.5 179v293q0 83 -24 148.5t-63.5 106.5t-95 68t-114 37.5t-125.5 10.5q-85 0 -157 -18.5t-134 -59t-97.5 -115.5t-35.5 -178v-293q0 -84 24 -149t63.5 -106t95.5 -67.5t115 -37t126 -10.5z
M528 227q-127 0 -127 127v305q0 125 127 125q125 0 125 -125v-305q0 -127 -125 -127z" />
    <glyph glyph-name="oacute" unicode="&#xf3;" horiz-adv-x="1034" 
d="M606 1468l291 -34l-291 -314l-198 37zM528 -10q85 0 156 18t133 58t97.5 115t35.5 179v293q0 83 -24 148.5t-63.5 106.5t-95 68t-114 37.5t-125.5 10.5q-85 0 -157 -18.5t-134 -59t-97.5 -115.5t-35.5 -178v-293q0 -84 24 -149t63.5 -106t95.5 -67.5t115 -37t126 -10.5z
M528 227q-127 0 -127 127v305q0 125 127 125q125 0 125 -125v-305q0 -127 -125 -127z" />
    <glyph glyph-name="ocircumflex" unicode="&#xf4;" horiz-adv-x="1034" 
d="M522 1264l-88 -160h-219l215 348h184l215 -348h-219zM528 1024q67 0 125.5 -10.5t114 -37.5t95 -68t63.5 -106.5t24 -148.5v-293q0 -104 -35.5 -179t-97.5 -115t-133 -58t-156 -18q-67 0 -126 10.5t-115 37t-95.5 67.5t-63.5 106t-24 149v293q0 103 35.5 178t97.5 115.5
t134 59t157 18.5zM653 354v305q0 125 -125 125q-127 0 -127 -125v-305q0 -127 127 -127q125 0 125 127z" />
    <glyph glyph-name="otilde" unicode="&#xf5;" horiz-adv-x="1034" 
d="M160 1122q0 320 211 320q39 0 69.5 -12.5t50 -31t36 -36.5t37 -30.5t44.5 -12.5q70 0 70 113h209q0 -320 -211 -320q-39 0 -70 12.5t-50 31t-36 36.5t-37.5 30.5t-44.5 12.5q-71 0 -71 -113h-207zM528 -10q85 0 156 18t133 58t97.5 115t35.5 179v293q0 83 -24 148.5
t-63.5 106.5t-95 68t-114 37.5t-125.5 10.5q-85 0 -157 -18.5t-134 -59t-97.5 -115.5t-35.5 -178v-293q0 -84 24 -149t63.5 -106t95.5 -67.5t115 -37t126 -10.5zM528 227q-127 0 -127 127v305q0 125 127 125q125 0 125 -125v-305q0 -127 -125 -127z" />
    <glyph glyph-name="odieresis" unicode="&#xf6;" horiz-adv-x="1034" 
d="M315 1124q-70 0 -114.5 36.5t-44.5 105.5t44.5 105t114.5 36q71 0 115.5 -36t44.5 -105t-44.5 -105.5t-115.5 -36.5zM735 1124q-71 0 -115.5 36.5t-44.5 105.5t44.5 105t115.5 36t114.5 -36t43.5 -105t-43.5 -105.5t-114.5 -36.5zM528 -10q85 0 156 18t133 58t97.5 115
t35.5 179v293q0 83 -24 148.5t-63.5 106.5t-95 68t-114 37.5t-125.5 10.5q-85 0 -157 -18.5t-134 -59t-97.5 -115.5t-35.5 -178v-293q0 -84 24 -149t63.5 -106t95.5 -67.5t115 -37t126 -10.5zM528 227q-127 0 -127 127v305q0 125 127 125q125 0 125 -125v-305
q0 -127 -125 -127z" />
    <glyph glyph-name="divide" unicode="&#xf7;" horiz-adv-x="1036" 
d="M528 993q44 0 71.5 -25t27.5 -71q0 -45 -27.5 -70.5t-71.5 -25.5q-45 0 -71.5 25.5t-26.5 70.5q0 46 26.5 71t71.5 25zM143 696h770v-155h-770v155zM528 436q44 0 71.5 -25t27.5 -71q0 -45 -27.5 -70.5t-71.5 -25.5q-45 0 -71.5 25.5t-26.5 70.5q0 46 26.5 71t71.5 25z
" />
    <glyph glyph-name="oslash" unicode="&#xf8;" horiz-adv-x="1136" 
d="M1085 1165l-163 -260q86 -92 86 -252v-293q0 -84 -24 -149t-63.5 -106t-95.5 -67.5t-115 -37t-126 -10.5q-121 0 -213 35l-105 -166h-182l158 254q-82 88 -82 247v293q0 83 24 148.5t64 106.5t96 68t114.5 37.5t125.5 10.5q121 0 209 -35l110 176h182zM457 659v-204
l198 315q-25 14 -71 14q-127 0 -127 -125zM711 354v213l-203 -323q34 -17 76 -17q127 0 127 127z" />
    <glyph glyph-name="ugrave" unicode="&#xf9;" horiz-adv-x="1042" 
d="M641 1157l-199 -37l-290 314l290 34zM674 1014h297v-1014h-256l-41 129q-51 -64 -125 -101.5t-158 -37.5q-146 0 -212 87.5t-66 237.5v699h297v-637q0 -77 30.5 -113.5t102.5 -36.5q70 0 100.5 36.5t30.5 113.5v637z" />
    <glyph glyph-name="uacute" unicode="&#xfa;" horiz-adv-x="1042" 
d="M913 1434l-290 -314l-199 37l199 311zM674 1014h297v-1014h-256l-41 129q-51 -64 -125 -101.5t-158 -37.5q-146 0 -212 87.5t-66 237.5v699h297v-637q0 -77 30.5 -113.5t102.5 -36.5q70 0 100.5 36.5t30.5 113.5v637z" />
    <glyph glyph-name="ucircumflex" unicode="&#xfb;" horiz-adv-x="1042" 
d="M541 1264l-88 -160h-220l216 348h184l215 -348h-219zM674 1014h297v-1014h-256l-41 129q-51 -64 -125 -101.5t-158 -37.5q-146 0 -212 87.5t-66 237.5v699h297v-637q0 -77 30.5 -113.5t102.5 -36.5q70 0 100.5 36.5t30.5 113.5v637z" />
    <glyph glyph-name="udieresis" unicode="&#xfc;" horiz-adv-x="1042" 
d="M334 1124q-70 0 -115 36.5t-45 105.5t45 105t115 36q71 0 115.5 -36t44.5 -105t-44.5 -105.5t-115.5 -36.5zM754 1124q-71 0 -115.5 36.5t-44.5 105.5t44.5 105t115.5 36t114 -36t43 -105t-43 -105.5t-114 -36.5zM674 1014h297v-1014h-256l-41 129q-51 -64 -125 -101.5
t-158 -37.5q-146 0 -212 87.5t-66 237.5v699h297v-637q0 -77 30.5 -113.5t102.5 -36.5q70 0 100.5 36.5t30.5 113.5v637z" />
    <glyph glyph-name="yacute" unicode="&#xfd;" horiz-adv-x="1054" 
d="M905 1434l-291 -314l-198 37l198 311zM674 1014h297v-996q0 -108 -19.5 -184.5t-53 -123.5t-89 -74t-116.5 -36.5t-146 -9.5h-330l-41 238h330q100 0 134 48t34 142v117q-100 -139 -283 -139q-146 0 -212 87.5t-66 238.5v696h297v-635q0 -77 30.5 -113.5t102.5 -36.5
q70 0 100.5 36.5t30.5 113.5v631z" />
    <glyph glyph-name="thorn" unicode="&#xfe;" horiz-adv-x="1032" 
d="M688 1024q127 0 193.5 -82.5t66.5 -222.5v-291v-135q0 -139 -66.5 -221t-193.5 -82q-182 0 -278 162v-562h-297v1926h297v-654q96 162 278 162zM651 659q0 125 -121 125q-120 0 -120 -125v-305q0 -127 120 -127q121 0 121 127v305z" />
    <glyph glyph-name="ydieresis" unicode="&#xff;" horiz-adv-x="1054" 
d="M326 1124q-70 0 -115 36.5t-45 105.5t45 105t115 36q71 0 115 -36t44 -105t-44 -105.5t-115 -36.5zM745 1124q-71 0 -115 36.5t-44 105.5t44 105t115 36t114.5 -36t43.5 -105t-43.5 -105.5t-114.5 -36.5zM674 1014h297v-996q0 -108 -19.5 -184.5t-53 -123.5t-89 -74
t-116.5 -36.5t-146 -9.5h-330l-41 238h330q100 0 134 48t34 142v117q-100 -139 -283 -139q-146 0 -212 87.5t-66 238.5v696h297v-635q0 -77 30.5 -113.5t102.5 -36.5q70 0 100.5 36.5t30.5 113.5v631z" />
    <glyph glyph-name="Amacron" unicode="&#x100;" horiz-adv-x="1382" 
d="M1036 1800v-227h-682v227h682zM1008 0l-74 248h-467l-74 -248h-309l457 1434h319h2l457 -1434h-311zM547 516h307l-154 516z" />
    <glyph glyph-name="amacron" unicode="&#x101;" horiz-adv-x="1034" 
d="M911 1380v-227h-682v227h682zM528 1014q88 0 150 -9.5t117 -36.5t87.5 -74.5t51 -124t18.5 -185.5v-584h-256l-41 131q-31 -63 -97.5 -102t-158.5 -39q-133 0 -214 84t-81 254q0 172 81 256t214 84q94 0 160 -35t96 -96v47q0 94 -34 142t-134 48h-278l41 240h278z
M528 227q62 0 94.5 23.5t32.5 77.5q0 56 -32 78t-95 22t-95 -22t-32 -78q0 -54 32.5 -77.5t94.5 -23.5z" />
    <glyph glyph-name="Abreve" unicode="&#x102;" horiz-adv-x="1382" 
d="M694 1526q-148 0 -236.5 99.5t-88.5 246.5h217q0 -60 26.5 -94.5t81.5 -34.5q56 0 83.5 34.5t27.5 94.5h217q0 -147 -90 -246.5t-238 -99.5zM1008 0l-74 248h-467l-74 -248h-309l457 1434h319h2l457 -1434h-311zM547 516h307l-154 516z" />
    <glyph glyph-name="abreve" unicode="&#x103;" horiz-adv-x="1034" 
d="M569 1106q-148 0 -236.5 99.5t-88.5 246.5h217q0 -60 26.5 -94.5t81.5 -34.5q56 0 83.5 34.5t27.5 94.5h217q0 -147 -90 -246.5t-238 -99.5zM528 1014q88 0 150 -9.5t117 -36.5t87.5 -74.5t51 -124t18.5 -185.5v-584h-256l-41 131q-31 -63 -97.5 -102t-158.5 -39
q-133 0 -214 84t-81 254q0 172 81 256t214 84q94 0 160 -35t96 -96v47q0 94 -34 142t-134 48h-278l41 240h278zM528 227q62 0 94.5 23.5t32.5 77.5q0 56 -32 78t-95 22t-95 -22t-32 -78q0 -54 32.5 -77.5t94.5 -23.5z" />
    <glyph glyph-name="Aogonek" unicode="&#x104;" horiz-adv-x="1382" 
d="M1323 -291h27l-35 -196q-185 -46 -299.5 12.5t-114.5 200.5q0 49 16.5 91.5t48.5 76t63.5 57t74.5 49.5h-96l-74 248h-467l-74 -248h-309l457 1434h319h2l457 -1434h-55q-136 -92 -136 -166q0 -53 43.5 -89t151.5 -36zM547 516h307l-154 516z" />
    <glyph glyph-name="aogonek" unicode="&#x105;" horiz-adv-x="1034" 
d="M977 -291h27l-35 -196q-185 -46 -299.5 12.5t-114.5 200.5q0 49 16.5 91.5t48.5 76t63.5 57t74.5 49.5h-62l-41 131q-31 -63 -97.5 -102t-158.5 -39q-133 0 -214 84t-81 254q0 172 81 256t214 84q94 0 160 -35t96 -96v47q0 94 -34 142t-134 48h-278l41 240h278
q88 0 150 -9.5t117 -36.5t87.5 -74.5t51 -124t18.5 -185.5v-584h-34q-136 -92 -136 -166q0 -53 43.5 -89t151.5 -36zM528 227q62 0 94.5 23.5t32.5 77.5q0 56 -32 78t-95 22t-95 -22t-32 -78q0 -54 32.5 -77.5t94.5 -23.5z" />
    <glyph glyph-name="Cacute" unicode="&#x106;" horiz-adv-x="1187" 
d="M698 1888l291 -35l-291 -313l-198 37zM827 528l308 -41v-41q0 -104 -28 -184.5t-75 -131t-114.5 -83t-139.5 -45t-157 -12.5t-157 12.5t-140 45t-115.5 83t-76 131t-28.5 184.5v541q0 104 28.5 184.5t76 131t115.5 83t140 45.5t157 13t157 -13t139.5 -45.5t114.5 -83
t75 -131t28 -184.5v-41l-308 -41v72q0 199 -206 199q-209 0 -209 -199v-520q0 -199 209 -199q206 0 206 199v71z" />
    <glyph glyph-name="cacute" unicode="&#x107;" horiz-adv-x="1003" 
d="M604 1468l291 -34l-291 -314l-198 37zM643 412l297 -41v-11q0 -104 -35.5 -179t-97 -115t-132 -58t-153.5 -18t-153.5 18t-132 58t-97 115t-35.5 179v293q0 83 24 148.5t63.5 106.5t94.5 68t113 37.5t123 10.5t123 -10.5t113 -37.5t94.5 -68t63.5 -106.5t24 -148.5v-8
l-297 -41v45q0 72 -29 103.5t-92 31.5q-121 0 -121 -125v-305q0 -127 121 -127q63 0 92 32t29 106v47z" />
    <glyph glyph-name="Cdotaccent" unicode="&#x10a;" horiz-adv-x="1187" 
d="M616 1544q-71 0 -116 36.5t-45 105.5t45 105t116 36q70 0 114 -36t44 -105t-44 -105.5t-114 -36.5zM827 528l308 -41v-41q0 -104 -28 -184.5t-75 -131t-114.5 -83t-139.5 -45t-157 -12.5t-157 12.5t-140 45t-115.5 83t-76 131t-28.5 184.5v541q0 104 28.5 184.5t76 131
t115.5 83t140 45.5t157 13t157 -13t139.5 -45.5t114.5 -83t75 -131t28 -184.5v-41l-308 -41v72q0 199 -206 199q-209 0 -209 -199v-520q0 -199 209 -199q206 0 206 199v71z" />
    <glyph glyph-name="cdotaccent" unicode="&#x10b;" horiz-adv-x="1003" 
d="M522 1124q-71 0 -116.5 36.5t-45.5 105.5t45.5 105t116.5 36q70 0 114 -36t44 -105t-44 -105.5t-114 -36.5zM643 412l297 -41v-11q0 -104 -35.5 -179t-97 -115t-132 -58t-153.5 -18t-153.5 18t-132 58t-97 115t-35.5 179v293q0 83 24 148.5t63.5 106.5t94.5 68t113 37.5
t123 10.5t123 -10.5t113 -37.5t94.5 -68t63.5 -106.5t24 -148.5v-8l-297 -41v45q0 72 -29 103.5t-92 31.5q-121 0 -121 -125v-305q0 -127 121 -127q63 0 92 32t29 106v47z" />
    <glyph glyph-name="Ccaron" unicode="&#x10c;" horiz-adv-x="1187" 
d="M707 1536h-185l-215 348h219l88 -160l88 160h220zM1135 946l-308 -41v72q0 199 -206 199q-209 0 -209 -199v-520q0 -199 209 -199q206 0 206 199v71l308 -41v-41q0 -104 -28 -184.5t-75 -131t-114.5 -83t-139.5 -45t-157 -12.5t-157 12.5t-140 45t-115.5 83t-76 131
t-28.5 184.5v541q0 104 28.5 184.5t76 131t115.5 83t140 45.5t157 13t157 -13t139.5 -45.5t114.5 -83t75 -131t28 -184.5v-41z" />
    <glyph glyph-name="ccaron" unicode="&#x10d;" horiz-adv-x="1003" 
d="M614 1116h-184l-215 348h219l88 -159l88 159h219zM940 645l-297 -41v45q0 72 -29 103.5t-92 31.5q-121 0 -121 -125v-305q0 -127 121 -127q63 0 92 32t29 106v47l297 -41v-11q0 -104 -35.5 -179t-97 -115t-132 -58t-153.5 -18t-153.5 18t-132 58t-97 115t-35.5 179v293
q0 83 24 148.5t63.5 106.5t94.5 68t113 37.5t123 10.5t123 -10.5t113 -37.5t94.5 -68t63.5 -106.5t24 -148.5v-8z" />
    <glyph glyph-name="Dcaron" unicode="&#x10e;" horiz-adv-x="1173" 
d="M676 1536h-184l-216 348h220l88 -160l88 160h219zM575 1434q85 0 157 -13t139.5 -45.5t114.5 -83t75.5 -131t28.5 -184.5v-520q0 -104 -28.5 -184.5t-75.5 -131t-114.5 -83t-139.5 -45.5t-157 -13h-471v1434h471zM782 467v500q0 198 -207 198h-163v-897h163
q207 0 207 199z" />
    <glyph glyph-name="dcaron" unicode="&#x10f;" horiz-adv-x="1411" 
d="M643 862v654h297v-1516h-256l-41 152q-96 -162 -278 -162q-127 0 -194 82t-67 221v291v135q0 139 67 222t194 83q182 0 278 -162zM1051 1516h288v-134l-51 -376h-186l-51 376v134zM643 354v305q0 125 -121 125t-121 -125v-231v-74q0 -127 121 -127t121 127z" />
    <glyph glyph-name="Dcroat" unicode="&#x110;" horiz-adv-x="1173" 
d="M575 1434q85 0 157 -13t139.5 -45.5t114.5 -83t75.5 -131t28.5 -184.5v-520q0 -104 -28.5 -184.5t-75.5 -131t-114.5 -83t-139.5 -45.5t-157 -13h-471v598h-145v238h145v598h471zM782 467v500q0 198 -207 198h-163v-329h159v-238h-159v-330h163q207 0 207 199z" />
    <glyph glyph-name="dcroat" unicode="&#x111;" horiz-adv-x="1021" 
d="M1049 1364v-238h-109v-1126h-256l-41 152q-96 -162 -278 -162q-127 0 -194 82t-67 221v291v135q0 139 67 222t194 83q182 0 278 -162v264h-207v238h207v152h297v-152h109zM643 354v305q0 125 -121 125t-121 -125v-231v-74q0 -127 121 -127t121 127z" />
    <glyph glyph-name="Emacron" unicode="&#x112;" horiz-adv-x="1003" 
d="M842 1800v-227h-682v227h682zM412 268h508v-268h-652h-164v1434h308h487v-269h-487v-321h354v-269h-354v-307z" />
    <glyph glyph-name="emacron" unicode="&#x113;" horiz-adv-x="1036" 
d="M864 1380v-227h-682v227h682zM524 1024q82 0 155 -20t136 -61.5t100 -116t37 -173.5v-45v-159h-561v-95q0 -127 133 -127q66 0 98.5 30.5t32.5 96.5v15l297 -41q0 -70 -24.5 -127t-66 -95.5t-97.5 -65t-116 -38.5t-124 -12q-82 0 -155 19.5t-136.5 61t-101 116
t-37.5 173.5v293q0 99 37.5 173.5t101 116t136.5 61.5t155 20zM391 627h264v32q0 61 -31 93t-100 32q-71 0 -102 -32t-31 -93v-32z" />
    <glyph glyph-name="Edotaccent" unicode="&#x116;" horiz-adv-x="1003" 
d="M502 1544q-71 0 -116.5 36.5t-45.5 105.5t45.5 105t116.5 36q70 0 113.5 -36t43.5 -105t-44 -105.5t-113 -36.5zM412 268h508v-268h-652h-164v1434h308h487v-269h-487v-321h354v-269h-354v-307z" />
    <glyph glyph-name="edotaccent" unicode="&#x117;" horiz-adv-x="1036" 
d="M524 1124q-71 0 -116.5 36.5t-45.5 105.5t45.5 105t116.5 36q70 0 114 -36t44 -105t-44 -105.5t-114 -36.5zM524 1024q82 0 155 -20t136 -61.5t100 -116t37 -173.5v-45v-159h-561v-95q0 -127 133 -127q66 0 98.5 30.5t32.5 96.5v15l297 -41q0 -70 -24.5 -127t-66 -95.5
t-97.5 -65t-116 -38.5t-124 -12q-82 0 -155 19.5t-136.5 61t-101 116t-37.5 173.5v293q0 99 37.5 173.5t101 116t136.5 61.5t155 20zM391 627h264v32q0 61 -31 93t-100 32q-71 0 -102 -32t-31 -93v-32z" />
    <glyph glyph-name="Eogonek" unicode="&#x118;" horiz-adv-x="1003" 
d="M915 -291h27l-35 -196q-185 -46 -299 12.5t-114 200.5q0 49 16.5 91.5t48 76t63 57t74.5 49.5h-428h-164v1434h308h487v-269h-487v-321h354v-269h-354v-307h508v-268h-64q-135 -92 -135 -166q0 -53 43 -89t151 -36z" />
    <glyph glyph-name="eogonek" unicode="&#x119;" horiz-adv-x="1036" 
d="M524 1024q82 0 155 -20t136 -61.5t100 -116t37 -173.5v-45v-159h-561v-95q0 -127 133 -127q66 0 98.5 30.5t32.5 96.5v15l297 -41q0 -145 -98.5 -229t-245.5 -103q-129 -90 -129 -162q0 -53 43.5 -89t151.5 -36h26l-34 -196q-185 -46 -299.5 12.5t-114.5 200.5
q0 63 30 116.5t68 86t94 65.5q-71 9 -131 33.5t-110.5 67t-79.5 110.5t-29 155v293q0 99 37.5 173.5t101 116t136.5 61.5t155 20zM391 627h264v32q0 61 -31 93t-100 32q-71 0 -102 -32t-31 -93v-32z" />
    <glyph glyph-name="Ecaron" unicode="&#x11a;" horiz-adv-x="1003" 
d="M594 1536h-184l-215 348h219l88 -160l88 160h219zM412 268h508v-268h-652h-164v1434h308h487v-269h-487v-321h354v-269h-354v-307z" />
    <glyph glyph-name="ecaron" unicode="&#x11b;" horiz-adv-x="1036" 
d="M616 1116h-184l-215 348h219l88 -159l88 159h219zM524 1024q82 0 155 -20t136 -61.5t100 -116t37 -173.5v-45v-159h-561v-95q0 -127 133 -127q66 0 98.5 30.5t32.5 96.5v15l297 -41q0 -70 -24.5 -127t-66 -95.5t-97.5 -65t-116 -38.5t-124 -12q-82 0 -155 19.5t-136.5 61
t-101 116t-37.5 173.5v293q0 99 37.5 173.5t101 116t136.5 61.5t155 20zM391 627h264v32q0 61 -31 93t-100 32q-71 0 -102 -32t-31 -93v-32z" />
    <glyph glyph-name="Gbreve" unicode="&#x11e;" horiz-adv-x="1196" 
d="M604 1526q-148 0 -236.5 99.5t-88.5 246.5h217q0 -60 26.5 -94.5t81.5 -34.5q56 0 83.5 34.5t27.5 94.5h217q0 -147 -90 -246.5t-238 -99.5zM1124 956l-307 -41v52q0 209 -207 209q-209 0 -209 -209v-510q0 -199 209 -199q207 0 207 199v55h-207v268h514v-268v-66
q0 -104 -28 -184.5t-75 -131t-114.5 -83t-139.5 -45t-157 -12.5t-157.5 12.5t-140.5 45t-115.5 83t-76 131t-28.5 184.5v541q0 104 28.5 184.5t76 131t115.5 83t140.5 45.5t157.5 13t157 -13t139.5 -45.5t114.5 -83t75 -131t28 -184.5v-31z" />
    <glyph glyph-name="gbreve" unicode="&#x11f;" horiz-adv-x="1021" 
d="M530 1106q-148 0 -236.5 99.5t-88.5 246.5h217q0 -60 26.5 -94.5t81.5 -34.5q56 0 83.5 34.5t27.5 94.5h217q0 -147 -90 -246.5t-238 -99.5zM692 1014h256v-996q0 -108 -19.5 -184.5t-53 -123.5t-89 -74t-116.5 -36.5t-146 -9.5h-307l-41 238h307q100 0 134 48t34 142
v134q-96 -162 -276 -162q-127 0 -194.5 82t-67.5 221v291v135q0 139 67.5 222t194.5 83q180 0 276 -162zM651 354v305q0 125 -121 125q-120 0 -120 -125v-231v-74q0 -127 120 -127q121 0 121 127z" />
    <glyph glyph-name="Gdotaccent" unicode="&#x120;" horiz-adv-x="1196" 
d="M604 1544q-71 0 -116.5 36.5t-45.5 105.5t45.5 105t116.5 36q70 0 114 -36t44 -105t-44 -105.5t-114 -36.5zM1124 956l-307 -41v52q0 209 -207 209q-209 0 -209 -209v-510q0 -199 209 -199q207 0 207 199v55h-207v268h514v-268v-66q0 -104 -28 -184.5t-75 -131
t-114.5 -83t-139.5 -45t-157 -12.5t-157.5 12.5t-140.5 45t-115.5 83t-76 131t-28.5 184.5v541q0 104 28.5 184.5t76 131t115.5 83t140.5 45.5t157.5 13t157 -13t139.5 -45.5t114.5 -83t75 -131t28 -184.5v-31z" />
    <glyph glyph-name="gdotaccent" unicode="&#x121;" horiz-adv-x="1021" 
d="M532 1124q-71 0 -116 36.5t-45 105.5t45 105t116 36q70 0 114 -36t44 -105t-44 -105.5t-114 -36.5zM692 1014h256v-996q0 -108 -19.5 -184.5t-53 -123.5t-89 -74t-116.5 -36.5t-146 -9.5h-307l-41 238h307q100 0 134 48t34 142v134q-96 -162 -276 -162q-127 0 -194.5 82
t-67.5 221v291v135q0 139 67.5 222t194.5 83q180 0 276 -162zM651 354v305q0 125 -121 125q-120 0 -120 -125v-231v-74q0 -127 120 -127q121 0 121 127z" />
    <glyph glyph-name="Gcommaaccent" unicode="&#x122;" horiz-adv-x="1196" 
d="M1124 956l-307 -41v52q0 209 -207 209q-209 0 -209 -209v-510q0 -199 209 -199q207 0 207 199v55h-207v268h514v-268v-66q0 -104 -28 -184.5t-75 -131t-114.5 -83t-139.5 -45t-157 -12.5t-157.5 12.5t-140.5 45t-115.5 83t-76 131t-28.5 184.5v541q0 104 28.5 184.5
t76 131t115.5 83t140.5 45.5t157.5 13t157 -13t139.5 -45.5t114.5 -83t75 -131t28 -184.5v-31zM604 -115q67 0 107.5 -38t40.5 -107v-2q0 -112 -59.5 -203t-129.5 -141l-69 28q88 88 81 172q-56 8 -89 46t-33 100q0 69 41 107t110 38z" />
    <glyph glyph-name="gcommaaccent" unicode="&#x123;" horiz-adv-x="1021" 
d="M528 1147q-67 0 -107 38t-40 107v2q0 78 33.5 152t73 118t81.5 74l70 -28q-89 -89 -82 -172q57 -8 90 -46t33 -100q0 -69 -41.5 -107t-110.5 -38zM692 1014h256v-996q0 -108 -19.5 -184.5t-53 -123.5t-89 -74t-116.5 -36.5t-146 -9.5h-307l-41 238h307q100 0 134 48
t34 142v134q-96 -162 -276 -162q-127 0 -194.5 82t-67.5 221v291v135q0 139 67.5 222t194.5 83q180 0 276 -162zM651 354v305q0 125 -121 125q-120 0 -120 -125v-231v-74q0 -127 120 -127q121 0 121 127z" />
    <glyph glyph-name="Hbar" unicode="&#x126;" horiz-adv-x="1306" 
d="M1333 1235v-238h-98v-997h-307v575h-516v-575h-308v997h-120v238h120v199h308v-199h516v199h307v-199h98zM928 844v153h-516v-153h516z" />
    <glyph glyph-name="hbar" unicode="&#x127;" horiz-adv-x="1042" 
d="M692 1024q146 0 212.5 -88t66.5 -238v-698h-297v637q0 75 -30.5 111t-100.5 36q-72 0 -102.5 -35.5t-30.5 -111.5v-637h-297v1114h-117v238h117v164h297v-164h198v-238h-198v-231q102 141 282 141z" />
    <glyph glyph-name="Imacron" unicode="&#x12a;" horiz-adv-x="495" 
d="M-82 1800h682v-227h-682v227zM104 1434v-1434h308v1434h-308z" />
    <glyph glyph-name="imacron" unicode="&#x12b;" horiz-adv-x="483" 
d="M-78 1380h682v-227h-682v227zM113 1014v-1014h297v1014h-297z" />
    <glyph glyph-name="Iogonek" unicode="&#x12e;" horiz-adv-x="495" 
d="M412 -291h26l-35 -196q-185 -46 -299 12.5t-114 200.5q0 49 16.5 91.5t48.5 76t63.5 57t74.5 49.5h-89v1434h308v-1434h-60q-135 -92 -135 -166q0 -53 43.5 -89t151.5 -36z" />
    <glyph glyph-name="iogonek" unicode="&#x12f;" horiz-adv-x="483" 
d="M264 1124q-71 0 -116.5 36.5t-45.5 105.5t45.5 105t116.5 36q70 0 114 -36t44 -105t-44 -105.5t-114 -36.5zM403 -291h27l-35 -196q-185 -46 -299 12.5t-114 200.5q0 49 16.5 91.5t48 76t63 57t74.5 49.5h-71v1014h297v-1014h-66q-135 -92 -135 -166q0 -53 43 -89
t151 -36z" />
    <glyph glyph-name="Idotaccent" unicode="&#x130;" horiz-adv-x="495" 
d="M260 1544q-71 0 -116.5 36.5t-45.5 105.5t45.5 105t116.5 36q70 0 114 -36t44 -105t-44 -105.5t-114 -36.5zM104 1434v-1434h308v1434h-308z" />
    <glyph glyph-name="dotlessi" unicode="&#x131;" horiz-adv-x="483" 
d="M113 1014v-1014h297v1014h-297z" />
    <glyph glyph-name="Kcommaaccent" unicode="&#x136;" horiz-adv-x="1228" 
d="M1167 1434l-407 -717l407 -717h-342l-311 584h-102v-584h-308v1434h308v-582h104l309 582h342zM614 -115q67 0 107.5 -38t40.5 -107v-2q0 -112 -59.5 -203t-129.5 -141l-69 28q89 89 82 172q-57 8 -90 46t-33 100q0 69 41 107t110 38z" />
    <glyph glyph-name="kcommaaccent" unicode="&#x137;" horiz-adv-x="1124" 
d="M1061 1014l-326 -508l326 -506h-326l-227 387h-98v-387h-297v1516h297v-891h96l229 389h326zM563 -115q67 0 107.5 -38t40.5 -107v-2q0 -112 -59.5 -203t-129.5 -141l-69 28q89 89 82 172q-57 8 -90 46t-33 100q0 69 41 107t110 38z" />
    <glyph glyph-name="Lacute" unicode="&#x139;" horiz-adv-x="989" 
d="M635 1853l-291 -313l-199 37l199 311zM412 268h493v-268h-608h-193v1434h308v-1166z" />
    <glyph glyph-name="lacute" unicode="&#x13a;" horiz-adv-x="483" 
d="M346 1970l291 -35l-291 -313l-199 37zM113 1516h297v-1516h-297v1516z" />
    <glyph glyph-name="Lcommaaccent" unicode="&#x13b;" horiz-adv-x="989" 
d="M412 268h493v-268h-608h-193v1434h308v-1166zM496 -115q67 0 107 -38t40 -107v-2q0 -78 -33.5 -152t-73 -118t-81.5 -74l-70 28q89 89 82 172q-57 8 -90 46t-33 100q0 69 41.5 107t110.5 38z" />
    <glyph glyph-name="lcommaaccent" unicode="&#x13c;" horiz-adv-x="483" 
d="M113 1516h297v-1516h-297v1516zM262 -115q67 0 107.5 -38t40.5 -107v-2q0 -112 -59.5 -203t-129.5 -141l-69 28q88 88 81 172q-56 8 -89 46t-33 100q0 69 41 107t110 38z" />
    <glyph glyph-name="Lcaron" unicode="&#x13d;" horiz-adv-x="989" 
d="M834 1006h-187l-51 376v134h289v-134zM412 268h493v-268h-608h-193v1434h308v-1166z" />
    <glyph glyph-name="lcaron" unicode="&#x13e;" horiz-adv-x="880" 
d="M113 1516h297v-1516h-297v1516zM569 1006l-51 376v134h289v-134l-51 -376h-187z" />
    <glyph glyph-name="Lslash" unicode="&#x141;" horiz-adv-x="989" 
d="M412 268h493v-268h-608h-193v545l-202 -72v242l202 71v648h308v-539l282 100v-241l-282 -101v-385z" />
    <glyph glyph-name="lslash" unicode="&#x142;" horiz-adv-x="894" 
d="M864 1028v-242l-248 -88v-698h-297v594l-247 -88v242l247 88v680h297v-576z" />
    <glyph glyph-name="Nacute" unicode="&#x143;" horiz-adv-x="1329" 
d="M1059 1853l-291 -313l-199 37l199 311zM938 1434h307v-1434h-307l-526 870v-870h-308v1434h308l526 -871v871z" />
    <glyph glyph-name="nacute" unicode="&#x144;" horiz-adv-x="1042" 
d="M911 1434l-290 -314l-199 37l199 311zM692 1024q146 0 212.5 -88t66.5 -238v-698h-297v637q0 75 -30.5 111t-100.5 36q-72 0 -102.5 -35.5t-30.5 -111.5v-637h-297v1014h256l41 -131q53 65 126.5 103t155.5 38z" />
    <glyph glyph-name="Ncommaaccent" unicode="&#x145;" horiz-adv-x="1329" 
d="M938 1434h307v-1434h-307l-526 870v-870h-308v1434h308l526 -871v871zM684 -115q67 0 107 -38t40 -107v-2q0 -78 -33.5 -152t-73 -118t-81.5 -74l-70 28q89 89 82 172q-57 8 -90 46t-33 100q0 69 41.5 107t110.5 38z" />
    <glyph glyph-name="ncommaaccent" unicode="&#x146;" horiz-adv-x="1042" 
d="M692 1024q146 0 212.5 -88t66.5 -238v-698h-297v637q0 75 -30.5 111t-100.5 36q-72 0 -102.5 -35.5t-30.5 -111.5v-637h-297v1014h256l41 -131q53 65 126.5 103t155.5 38zM547 -115q67 0 107 -38t40 -107v-2q0 -78 -33.5 -152t-73 -118t-81.5 -74l-70 28q89 89 82 172
q-57 8 -90 46t-33 100q0 69 41.5 107t110.5 38z" />
    <glyph glyph-name="Ncaron" unicode="&#x147;" horiz-adv-x="1329" 
d="M776 1536h-184l-215 348h219l88 -160l88 160h219zM938 1434h307v-1434h-307l-526 870v-870h-308v1434h308l526 -871v871z" />
    <glyph glyph-name="ncaron" unicode="&#x148;" horiz-adv-x="1042" 
d="M631 1116h-185l-215 348h220l88 -159l88 159h219zM692 1024q146 0 212.5 -88t66.5 -238v-698h-297v637q0 75 -30.5 111t-100.5 36q-72 0 -102.5 -35.5t-30.5 -111.5v-637h-297v1014h256l41 -131q53 65 126.5 103t155.5 38z" />
    <glyph glyph-name="Eng" unicode="&#x14a;" horiz-adv-x="1329" 
d="M938 1434h307v-1434q0 -92 -11 -159t-37 -115t-61 -78t-91 -47t-117.5 -23t-149.5 -6h-143l-41 238h156q72 0 118.5 7.5t78 27t29.5 58.5t-38 97l-526 870v-870h-308v1434h308l526 -871v871z" />
    <glyph glyph-name="eng" unicode="&#x14b;" horiz-adv-x="1042" 
d="M692 1024q146 0 212.5 -88t66.5 -238v-698q0 -88 -10 -151t-34.5 -106t-55 -68.5t-83.5 -39.5t-106 -18t-135 -4l-41 237q28 0 42.5 1t38 4.5t36 13t26 25.5t19.5 43t6 63v637q0 75 -30.5 111t-100.5 36q-72 0 -102.5 -35.5t-30.5 -111.5v-637h-297v1014h256l41 -131
q53 65 126.5 103t155.5 38z" />
    <glyph glyph-name="Omacron" unicode="&#x14c;" horiz-adv-x="1218" 
d="M274 1800h682v-227h-682v227zM621 -10q85 0 157 12.5t139.5 45t114.5 83t75 131t28 184.5v541q0 104 -28 184.5t-75 131t-114.5 83t-139.5 45.5t-157 13t-157 -13t-140 -45.5t-115.5 -83t-76 -131t-28.5 -184.5v-541q0 -104 28.5 -184.5t76 -131t115.5 -83t140 -45
t157 -12.5zM621 258q-209 0 -209 199v520q0 199 209 199q206 0 206 -199v-520q0 -199 -206 -199z" />
    <glyph glyph-name="omacron" unicode="&#x14d;" horiz-adv-x="1034" 
d="M182 1380h682v-227h-682v227zM528 -10q85 0 156 18t133 58t97.5 115t35.5 179v293q0 83 -24 148.5t-63.5 106.5t-95 68t-114 37.5t-125.5 10.5q-85 0 -157 -18.5t-134 -59t-97.5 -115.5t-35.5 -178v-293q0 -84 24 -149t63.5 -106t95.5 -67.5t115 -37t126 -10.5zM528 227
q-127 0 -127 127v305q0 125 127 125q125 0 125 -125v-305q0 -127 -125 -127z" />
    <glyph glyph-name="Ohungarumlaut" unicode="&#x150;" horiz-adv-x="1218" 
d="M461 1888l291 -35l-291 -313l-199 37zM864 1888l291 -35l-291 -313l-198 37zM621 -10q85 0 157 12.5t139.5 45t114.5 83t75 131t28 184.5v541q0 104 -28 184.5t-75 131t-114.5 83t-139.5 45.5t-157 13t-157 -13t-140 -45.5t-115.5 -83t-76 -131t-28.5 -184.5v-541
q0 -104 28.5 -184.5t76 -131t115.5 -83t140 -45t157 -12.5zM621 258q-209 0 -209 199v520q0 199 209 199q206 0 206 -199v-520q0 -199 -206 -199z" />
    <glyph glyph-name="ohungarumlaut" unicode="&#x151;" horiz-adv-x="1034" 
d="M369 1468l290 -34l-290 -314l-199 37zM772 1468l291 -34l-291 -314l-199 37zM528 -10q85 0 156 18t133 58t97.5 115t35.5 179v293q0 83 -24 148.5t-63.5 106.5t-95 68t-114 37.5t-125.5 10.5q-85 0 -157 -18.5t-134 -59t-97.5 -115.5t-35.5 -178v-293q0 -84 24 -149
t63.5 -106t95.5 -67.5t115 -37t126 -10.5zM528 227q-127 0 -127 127v305q0 125 127 125q125 0 125 -125v-305q0 -127 -125 -127z" />
    <glyph glyph-name="OE" unicode="&#x152;" horiz-adv-x="1894" 
d="M1305 268h507v-268h-651h-166v96q-127 -106 -374 -106q-85 0 -157 12.5t-140 45t-115.5 83t-76 131t-28.5 184.5v541q0 104 28.5 184.5t76 131t115.5 83t140 45.5t157 13q246 0 374 -107v97h310h487v-269h-487v-321h354v-269h-354v-307zM827 457v520q0 199 -206 199
q-209 0 -209 -199v-520q0 -199 209 -199q206 0 206 199z" />
    <glyph glyph-name="oe" unicode="&#x153;" horiz-adv-x="1703" 
d="M1182 1024q82 0 155 -20t136.5 -61.5t101 -116t37.5 -173.5v-45v-159h-561v-95q0 -127 131 -127q67 0 100 30.5t33 96.5v15l297 -41q0 -70 -25 -127t-66.5 -95.5t-97.5 -65t-116.5 -38.5t-124.5 -12q-210 0 -326 108q-108 -108 -328 -108q-67 0 -126 10.5t-115 37
t-95.5 67.5t-63.5 106t-24 149v293q0 103 35.5 178t97.5 115.5t134 59t157 18.5q216 0 328 -109q117 109 326 109zM653 354v305q0 125 -125 125q-127 0 -127 -125v-305q0 -127 127 -127q125 0 125 127zM1051 627h264v32q0 61 -31 93t-102 32q-69 0 -100 -32t-31 -93v-32z
" />
    <glyph glyph-name="Racute" unicode="&#x154;" horiz-adv-x="1196" 
d="M961 1853l-291 -313l-199 37l199 311zM1133 0h-345l-225 475q-10 -2 -28 -2h-123v-473h-308v1434h431q85 0 158.5 -12.5t144.5 -45t121.5 -83t81 -131.5t30.5 -185v-45q0 -287 -221 -395zM412 1165v-424h123q112 0 169.5 46t57.5 147v39q0 102 -57 147t-170 45h-123z" />
    <glyph glyph-name="racute" unicode="&#x155;" horiz-adv-x="956" 
d="M840 1434l-291 -314l-199 37l199 311zM670 1024q77 0 130 -37.5t76 -102t27.5 -151.5t-16.5 -186l-297 -41v156q0 66 -21 94t-69 28q-47 0 -68.5 -28.5t-21.5 -93.5v-662h-297v1014h256l41 -131q37 64 107 102.5t153 38.5z" />
    <glyph glyph-name="Rcommaaccent" unicode="&#x156;" horiz-adv-x="1196" 
d="M850 537l283 -537h-345l-225 475q-10 -2 -28 -2h-123v-473h-308v1434h431q85 0 158.5 -12.5t144.5 -45t121.5 -83t81 -131.5t30.5 -185v-45q0 -287 -221 -395zM412 1165v-424h123q112 0 169.5 46t57.5 147v39q0 102 -57 147t-170 45h-123zM588 -115q67 0 107 -38t40 -107
v-2q0 -78 -33.5 -152t-73 -118t-81.5 -74l-70 28q89 89 82 172q-57 8 -90 46t-33 100q0 69 41.5 107t110.5 38z" />
    <glyph glyph-name="rcommaaccent" unicode="&#x157;" horiz-adv-x="956" 
d="M670 1024q77 0 130 -37.5t76 -102t27.5 -151.5t-16.5 -186l-297 -41v156q0 66 -21 94t-69 28q-47 0 -68.5 -28.5t-21.5 -93.5v-662h-297v1014h256l41 -131q37 64 107 102.5t153 38.5zM264 -115q67 0 107.5 -38t40.5 -107v-2q0 -112 -59.5 -203t-129.5 -141l-69 28
q89 89 82 172q-57 8 -90 46t-33 100q0 69 41 107t110 38z" />
    <glyph glyph-name="Rcaron" unicode="&#x158;" horiz-adv-x="1196" 
d="M680 1536h-184l-215 348h219l88 -160l88 160h219zM1133 0h-345l-225 475q-10 -2 -28 -2h-123v-473h-308v1434h431q85 0 158.5 -12.5t144.5 -45t121.5 -83t81 -131.5t30.5 -185v-45q0 -287 -221 -395zM412 1165v-424h123q112 0 169.5 46t57.5 147v39q0 102 -57 147
t-170 45h-123z" />
    <glyph glyph-name="rcaron" unicode="&#x159;" horiz-adv-x="956" 
d="M559 1116h-184l-215 348h219l88 -159l88 159h219zM670 1024q77 0 130 -37.5t76 -102t27.5 -151.5t-16.5 -186l-297 -41v156q0 66 -21 94t-69 28q-47 0 -68.5 -28.5t-21.5 -93.5v-662h-297v1014h256l41 -131q37 64 107 102.5t153 38.5z" />
    <glyph glyph-name="Sacute" unicode="&#x15a;" horiz-adv-x="1159" 
d="M668 1888l290 -35l-290 -313l-199 37zM84 385v72l307 41v-43q0 -197 221 -197q83 0 129.5 30.5t46.5 88.5q0 63 -50 105.5t-195 111.5q-236 110 -327 216t-91 255q0 85 28 152.5t73 109t106 69t122.5 38t127.5 10.5t129 -11t126.5 -39.5t111 -71.5t77 -113.5t29.5 -159.5
v-41l-307 -41q0 102 -40.5 155.5t-132.5 53.5q-72 0 -107.5 -28t-35.5 -75q0 -55 59 -106t207 -127q80 -38 137.5 -71.5t109.5 -74.5t83 -84.5t49.5 -98t18.5 -118.5q0 -99 -32 -173.5t-80 -117t-116.5 -69t-130 -35t-131.5 -8.5q-68 0 -134.5 10t-138.5 38t-125.5 70.5
t-88.5 114t-35 162.5z" />
    <glyph glyph-name="sacute" unicode="&#x15b;" horiz-adv-x="1013" 
d="M621 1468l290 -34l-290 -314l-199 37zM104 303l297 41q0 -56 31.5 -86.5t112.5 -30.5q108 0 108 72q0 23 -14 39.5t-45 29t-59.5 20t-79 19.5t-82.5 21q-124 36 -186 104.5t-62 182.5q0 81 33 142t90.5 96.5t127 53t150.5 17.5q80 0 150.5 -18t128.5 -54.5t91.5 -98
t33.5 -142.5l-297 -41q0 56 -24 85t-89 29q-98 0 -98 -67q0 -16 6.5 -29.5t20.5 -23.5t29.5 -18t41.5 -16t47.5 -13.5t56 -14.5t58.5 -16q61 -17 106 -39.5t83.5 -56.5t58.5 -84t20 -115q0 -64 -22.5 -116t-60.5 -86t-90.5 -56.5t-110 -32.5t-121.5 -10q-65 0 -125.5 10
t-119 34t-101.5 59t-69 89t-26 121z" />
    <glyph glyph-name="Scedilla" unicode="&#x15e;" horiz-adv-x="1159" 
d="M1096 393q0 -91 -27 -161.5t-69 -113t-102 -71t-117.5 -40.5t-123.5 -15l-14 -76q95 0 154 -52.5t59 -150.5q0 -59 -21.5 -101.5t-56.5 -67.5t-93 -39.5t-118 -19.5t-143 -5l-41 176h27q126 0 172.5 19.5t46.5 72.5t-45 75.5t-154 22.5l70 150q-79 10 -147.5 34.5
t-131.5 68.5t-100 117.5t-37 168.5v72l307 41v-43q0 -197 221 -197q83 0 129.5 30.5t46.5 88.5q0 63 -50 105.5t-195 111.5q-236 110 -327 216t-91 255q0 85 28 152.5t73 109t106 69t122.5 38t127.5 10.5t129 -11t126.5 -39.5t111 -71.5t77 -113.5t29.5 -159.5v-41l-307 -41
q0 102 -40.5 155.5t-132.5 53.5q-72 0 -107.5 -28t-35.5 -75q0 -55 59 -106t207 -127q80 -38 137.5 -71.5t109.5 -74.5t83 -84.5t49.5 -98t18.5 -118.5z" />
    <glyph glyph-name="scedilla" unicode="&#x15f;" horiz-adv-x="1013" 
d="M950 291q0 -71 -27 -127t-75 -91t-107.5 -55t-130.5 -26l-14 -76q95 0 154 -52.5t59 -150.5q0 -59 -21.5 -101.5t-56.5 -67.5t-93 -39.5t-118 -19.5t-143 -5l-41 176h26q126 0 173 19.5t47 72.5t-45 75.5t-154 22.5l70 150q-70 8 -130 29.5t-110.5 57.5t-79.5 92.5
t-29 127.5l297 41q0 -56 31.5 -86.5t112.5 -30.5q108 0 108 72q0 23 -14 39.5t-45 29t-59.5 20t-79 19.5t-82.5 21q-124 36 -186 104.5t-62 182.5q0 81 33 142t90.5 96.5t127 53t150.5 17.5q80 0 150.5 -18t128.5 -54.5t91.5 -98t33.5 -142.5l-297 -41q0 56 -24 85t-89 29
q-98 0 -98 -67q0 -16 6.5 -29.5t20.5 -23.5t29.5 -18t41.5 -16t47.5 -13.5t56 -14.5t58.5 -16q61 -17 106 -39.5t83.5 -56.5t58.5 -84t20 -115z" />
    <glyph glyph-name="Scaron" unicode="&#x160;" horiz-adv-x="1159" 
d="M676 1536h-184l-216 348h220l88 -160l88 160h219zM698 840q80 -38 137.5 -71.5t109.5 -74.5t83 -84.5t49.5 -98t18.5 -118.5q0 -99 -32 -173.5t-80 -117t-116.5 -69t-130 -35t-131.5 -8.5q-68 0 -134.5 10t-138.5 38t-125.5 70.5t-88.5 114t-35 162.5v72l307 41v-43
q0 -197 221 -197q83 0 129.5 30.5t46.5 88.5q0 63 -50 105.5t-195 111.5q-236 110 -327 216t-91 255q0 85 28 152.5t73 109t106 69t122.5 38t127.5 10.5t129 -11t126.5 -39.5t111 -71.5t77 -113.5t29.5 -159.5v-41l-307 -41q0 102 -40.5 155.5t-132.5 53.5q-72 0 -107.5 -28
t-35.5 -75q0 -55 59 -106t207 -127z" />
    <glyph glyph-name="scaron" unicode="&#x161;" horiz-adv-x="1013" 
d="M631 1116h-185l-215 348h220l88 -159l88 159h219zM682 586q61 -17 106 -39.5t83.5 -56.5t58.5 -84t20 -115q0 -64 -22.5 -116t-60.5 -86t-90.5 -56.5t-110 -32.5t-121.5 -10q-65 0 -125.5 10t-119 34t-101.5 59t-69 89t-26 121l297 41q0 -56 31.5 -86.5t112.5 -30.5
q108 0 108 72q0 23 -14 39.5t-45 29t-59.5 20t-79 19.5t-82.5 21q-124 36 -186 104.5t-62 182.5q0 81 33 142t90.5 96.5t127 53t150.5 17.5q80 0 150.5 -18t128.5 -54.5t91.5 -98t33.5 -142.5l-297 -41q0 56 -24 85t-89 29q-98 0 -98 -67q0 -16 6.5 -29.5t20.5 -23.5
t29.5 -18t41.5 -16t47.5 -13.5t56 -14.5t58.5 -16z" />
    <glyph glyph-name="uni0162" unicode="&#x162;" horiz-adv-x="1101" 
d="M715 0h-72l-16 -84q95 0 154 -52.5t59 -150.5q0 -59 -21.5 -101.5t-56.5 -67.5t-93 -39.5t-118 -19.5t-143 -5l-41 176h26q126 0 172.5 19.5t46.5 72.5t-44.5 75.5t-153.5 22.5l71 154h-77v1165h-336v269h643h334v-269h-334v-1165z" />
    <glyph glyph-name="uni0163" unicode="&#x163;" horiz-adv-x="806" 
d="M600 -84q95 0 154 -52.5t59 -150.5q0 -59 -21.5 -101.5t-56.5 -67.5t-93 -39.5t-118 -19.5t-143 -5l-41 176h27q126 0 172.5 19.5t46.5 72.5t-45 75.5t-154 22.5l78 164q-80 14 -127.5 51t-72.5 116t-25 210v387h-146v240q67 0 111 18t66 55t30 79.5t8 105.5h228v-258
h198v-240h-198v-387q0 -43 10.5 -73t23.5 -44.5t40 -22t43.5 -8.5t50.5 -1h30v-238h-71h-48z" />
    <glyph glyph-name="Tcaron" unicode="&#x164;" horiz-adv-x="1101" 
d="M659 1536h-184l-215 348h219l88 -160l88 160h219zM1049 1434v-269h-334v-1165h-307v1165h-336v269h643h334z" />
    <glyph glyph-name="tcaron" unicode="&#x165;" horiz-adv-x="1138" 
d="M766 1516h289v-134l-51 -376h-187l-51 376v134zM537 1272v-258h198v-240h-198v-387q0 -43 10.5 -73t23.5 -44.5t40 -22t43.5 -8.5t50.5 -1h30v-238h-71q-48 0 -82 1t-72.5 4.5t-64.5 9.5t-54.5 16.5t-47 26t-37 37t-29.5 49.5t-20 64t-13 80.5t-4 98.5v387h-146v240
q67 0 111 18t66 55t30 79.5t8 105.5h228z" />
    <glyph glyph-name="Tbar" unicode="&#x166;" horiz-adv-x="1101" 
d="M1049 1165h-334v-329h153v-238h-153v-598h-307v598h-152v238h152v329h-336v269h643h334v-269z" />
    <glyph glyph-name="tbar" unicode="&#x167;" horiz-adv-x="806" 
d="M735 774h-198v-117h174v-237h-174v-33q0 -43 10.5 -73t23.5 -44.5t40 -22t43.5 -8.5t50.5 -1h30v-238h-71q-48 0 -82 1t-72.5 4.5t-64.5 9.5t-54.5 16.5t-47 26t-37 37t-29.5 49.5t-20 64t-13 80.5t-4 98.5v33h-142v237h142v117h-146v240q67 0 111 18t66 55t30 79.5
t8 105.5h228v-258h198v-240z" />
    <glyph glyph-name="Umacron" unicode="&#x16a;" horiz-adv-x="1218" 
d="M279 1800h682v-227h-682v227zM827 1434v-977q0 -199 -206 -199q-209 0 -209 199v977h-308v-988q0 -104 28.5 -184.5t76 -131t115.5 -83t140 -45t157 -12.5t157 12.5t139.5 45t114.5 83t75 131t28 184.5v988h-308z" />
    <glyph glyph-name="umacron" unicode="&#x16b;" horiz-adv-x="1042" 
d="M881 1380v-227h-682v227h682zM674 1014h297v-1014h-256l-41 129q-51 -64 -125 -101.5t-158 -37.5q-146 0 -212 87.5t-66 237.5v699h297v-637q0 -77 30.5 -113.5t102.5 -36.5q70 0 100.5 36.5t30.5 113.5v637z" />
    <glyph glyph-name="Uring" unicode="&#x16e;" horiz-adv-x="1218" 
d="M621 1475q-101 0 -168.5 67t-67.5 168q0 102 67 168t169 66q103 0 168 -65.5t65 -168.5q0 -102 -65.5 -168.5t-167.5 -66.5zM621 1630q32 0 54.5 22t22.5 58q0 35 -22.5 56.5t-54.5 21.5q-34 0 -57 -21t-23 -57t23.5 -58t56.5 -22zM827 1434v-977q0 -199 -206 -199
q-209 0 -209 199v977h-308v-988q0 -104 28.5 -184.5t76 -131t115.5 -83t140 -45t157 -12.5t157 12.5t139.5 45t114.5 83t75 131t28 184.5v988h-308z" />
    <glyph glyph-name="uring" unicode="&#x16f;" horiz-adv-x="1042" 
d="M541 1055q-101 0 -168.5 67t-67.5 168q0 102 67 168t169 66q103 0 168 -65.5t65 -168.5q0 -102 -65.5 -168.5t-167.5 -66.5zM541 1368q-34 0 -57 -21t-23 -57t23.5 -58t56.5 -22q32 0 54.5 22t22.5 58q0 35 -22.5 56.5t-54.5 21.5zM674 1014h297v-1014h-256l-41 129
q-51 -64 -125 -101.5t-158 -37.5q-146 0 -212 87.5t-66 237.5v699h297v-637q0 -77 30.5 -113.5t102.5 -36.5q70 0 100.5 36.5t30.5 113.5v637z" />
    <glyph glyph-name="Uhungarumlaut" unicode="&#x170;" horiz-adv-x="1218" 
d="M467 1888l291 -35l-291 -313l-199 37zM870 1888l291 -35l-291 -313l-198 37zM827 1434v-977q0 -199 -206 -199q-209 0 -209 199v977h-308v-988q0 -104 28.5 -184.5t76 -131t115.5 -83t140 -45t157 -12.5t157 12.5t139.5 45t114.5 83t75 131t28 184.5v988h-308z" />
    <glyph glyph-name="uhungarumlaut" unicode="&#x171;" horiz-adv-x="1042" 
d="M678 1434l-291 -314l-199 37l199 311zM791 1120l-199 37l199 311l290 -34zM674 377v637h297v-1014h-256l-41 129q-51 -64 -125 -101.5t-158 -37.5q-146 0 -212 87.5t-66 237.5v699h297v-637q0 -77 30.5 -113.5t102.5 -36.5q70 0 100.5 36.5t30.5 113.5z" />
    <glyph glyph-name="Uogonek" unicode="&#x172;" horiz-adv-x="1218" 
d="M827 1434h308v-988q0 -339 -289 -428q-133 -89 -133 -163q0 -53 43 -89t151 -36h27l-35 -197q-185 -46 -299.5 12.5t-114.5 200.5q0 141 154 244h-18q-85 0 -157 12.5t-140 45t-115.5 83t-76 131t-28.5 184.5v988h308v-977q0 -199 209 -199q206 0 206 199v977z" />
    <glyph glyph-name="uogonek" unicode="&#x173;" horiz-adv-x="1042" 
d="M991 -291h27l-35 -196q-185 -46 -299.5 12.5t-114.5 200.5q0 49 16.5 91.5t48.5 76t63.5 57t74.5 49.5h-57l-41 129q-51 -64 -125 -101.5t-158 -37.5q-146 0 -212 87.5t-66 237.5v699h297v-637q0 -77 30.5 -113.5t102.5 -36.5q70 0 100.5 36.5t30.5 113.5v637h297v-1014
h-39q-135 -92 -135 -166q0 -53 43 -89t151 -36z" />
    <glyph glyph-name="Wcircumflex" unicode="&#x174;" horiz-adv-x="2015" 
d="M1008 1683l-88 -159h-220l215 348h185l215 -348h-219zM1655 1434h309l-387 -1434h-322h-2l-235 944l-234 -944h-323h-2l-387 1434h311l240 -975l237 975h316l239 -975z" />
    <glyph glyph-name="wcircumflex" unicode="&#x175;" horiz-adv-x="1705" 
d="M858 1264l-88 -160h-219l215 348h184l215 -348h-219zM1346 1014h286l-291 -1014h-317h-2l-164 645l-164 -645h-317h-2l-291 1014h287l164 -688l163 688h320l164 -688z" />
    <glyph glyph-name="Ycircumflex" unicode="&#x176;" horiz-adv-x="1388" 
d="M700 1683l-88 -159h-219l215 348h185l215 -348h-220zM989 1436h330l-459 -873v-563h-307v563l-461 871h330l283 -580z" />
    <glyph glyph-name="ycircumflex" unicode="&#x177;" horiz-adv-x="1054" 
d="M532 1264l-88 -160h-219l215 348h185l215 -348h-219zM674 1014h297v-996q0 -108 -19.5 -184.5t-53 -123.5t-89 -74t-116.5 -36.5t-146 -9.5h-330l-41 238h330q100 0 134 48t34 142v117q-100 -139 -283 -139q-146 0 -212 87.5t-66 238.5v696h297v-635q0 -77 30.5 -113.5
t102.5 -36.5q70 0 100.5 36.5t30.5 113.5v631z" />
    <glyph glyph-name="Ydieresis" unicode="&#x178;" horiz-adv-x="1388" 
d="M492 1544q-70 0 -115 36.5t-45 105.5t45 105t115 36q71 0 115 -36t44 -105t-44 -105.5t-115 -36.5zM911 1544q-71 0 -115 36.5t-44 105.5t44 105t115 36t114.5 -36t43.5 -105t-43.5 -105.5t-114.5 -36.5zM989 1436h330l-459 -873v-563h-307v563l-461 871h330l283 -580z
" />
    <glyph glyph-name="Zacute" unicode="&#x179;" horiz-adv-x="1181" 
d="M958 1853l-290 -313l-199 37l199 311zM1118 1434v-269l-659 -897h659v-268h-1026v268l662 897h-662v269h1026z" />
    <glyph glyph-name="zacute" unicode="&#x17a;" horiz-adv-x="1015" 
d="M893 1434l-291 -314l-199 37l199 311zM924 1014v-240l-463 -536h463v-238h-811v238l462 536h-462v240h811z" />
    <glyph glyph-name="Zdotaccent" unicode="&#x17b;" horiz-adv-x="1181" 
d="M586 1544q-71 0 -116.5 36.5t-45.5 105.5t45.5 105t116.5 36q70 0 113.5 -36t43.5 -105t-44 -105.5t-113 -36.5zM1118 1434v-269l-659 -897h659v-268h-1026v268l662 897h-662v269h1026z" />
    <glyph glyph-name="zdotaccent" unicode="&#x17c;" horiz-adv-x="1015" 
d="M520 1124q-71 0 -116.5 36.5t-45.5 105.5t45.5 105t116.5 36q70 0 114 -36t44 -105t-44 -105.5t-114 -36.5zM924 1014v-240l-463 -536h463v-238h-811v238l462 536h-462v240h811z" />
    <glyph glyph-name="Zcaron" unicode="&#x17d;" horiz-adv-x="1181" 
d="M678 1536h-184l-215 348h219l88 -160l88 160h219zM1118 1434v-269l-659 -897h659v-268h-1026v268l662 897h-662v269h1026z" />
    <glyph glyph-name="zcaron" unicode="&#x17e;" horiz-adv-x="1015" 
d="M610 1116h-184l-215 348h219l88 -159l88 159h219zM924 1014v-240l-463 -536h463v-238h-811v238l462 536h-462v240h811z" />
    <glyph glyph-name="Scommaaccent" unicode="&#x218;" horiz-adv-x="1159" 
d="M698 840q80 -38 137.5 -71.5t109.5 -74.5t83 -84.5t49.5 -98t18.5 -118.5q0 -99 -32 -173.5t-80 -117t-116.5 -69t-130 -35t-131.5 -8.5q-68 0 -134.5 10t-138.5 38t-125.5 70.5t-88.5 114t-35 162.5v72l307 41v-43q0 -197 221 -197q83 0 129.5 30.5t46.5 88.5
q0 63 -50 105.5t-195 111.5q-236 110 -327 216t-91 255q0 85 28 152.5t73 109t106 69t122.5 38t127.5 10.5t129 -11t126.5 -39.5t111 -71.5t77 -113.5t29.5 -159.5v-41l-307 -41q0 102 -40.5 155.5t-132.5 53.5q-72 0 -107.5 -28t-35.5 -75q0 -55 59 -106t207 -127z
M584 -115q67 0 107 -38t40 -107v-2q0 -78 -33.5 -152t-73 -118t-81.5 -74l-70 28q89 89 82 172q-57 8 -90 46t-33 100q0 69 41.5 107t110.5 38z" />
    <glyph glyph-name="scommaaccent" unicode="&#x219;" horiz-adv-x="1013" 
d="M682 586q61 -17 106 -39.5t83.5 -56.5t58.5 -84t20 -115q0 -64 -22.5 -116t-60.5 -86t-90.5 -56.5t-110 -32.5t-121.5 -10q-65 0 -125.5 10t-119 34t-101.5 59t-69 89t-26 121l297 41q0 -56 31.5 -86.5t112.5 -30.5q108 0 108 72q0 23 -14 39.5t-45 29t-59.5 20t-79 19.5
t-82.5 21q-124 36 -186 104.5t-62 182.5q0 81 33 142t90.5 96.5t127 53t150.5 17.5q80 0 150.5 -18t128.5 -54.5t91.5 -98t33.5 -142.5l-297 -41q0 56 -24 85t-89 29q-98 0 -98 -67q0 -16 6.5 -29.5t20.5 -23.5t29.5 -18t41.5 -16t47.5 -13.5t56 -14.5t58.5 -16zM535 -115
q67 0 107 -38t40 -107v-2q0 -78 -33.5 -152t-73 -118t-81.5 -74l-70 28q89 89 82 172q-57 8 -90 46t-33 100q0 69 41.5 107t110.5 38z" />
    <glyph glyph-name="uni021A" unicode="&#x21a;" horiz-adv-x="1101" 
d="M1049 1434v-269h-334v-1165h-307v1165h-336v269h643h334zM567 -115q67 0 107.5 -38t40.5 -107v-2q0 -112 -59.5 -203t-129.5 -141l-69 28q89 89 82 172q-57 8 -90 46t-33 100q0 69 41 107t110 38z" />
    <glyph glyph-name="uni021B" unicode="&#x21b;" horiz-adv-x="806" 
d="M735 774h-198v-387q0 -43 10.5 -73t23.5 -44.5t40 -22t43.5 -8.5t50.5 -1h30v-238h-71q-48 0 -82 1t-72.5 4.5t-64.5 9.5t-54.5 16.5t-47 26t-37 37t-29.5 49.5t-20 64t-13 80.5t-4 98.5v387h-146v240q67 0 111 18t66 55t30 79.5t8 105.5h228v-258h198v-240zM541 -115
q67 0 107 -38t40 -107v-2q0 -78 -33.5 -152t-73 -118t-81.5 -74l-70 28q89 89 82 172q-57 8 -90 46t-33 100q0 69 41.5 107t110.5 38z" />
    <glyph glyph-name="circumflex" unicode="&#x2c6;" horiz-adv-x="880" 
d="M543 1452l215 -346h-219l-88 160l-89 -160h-219l215 346h185z" />
    <glyph glyph-name="caron" unicode="&#x2c7;" horiz-adv-x="880" 
d="M539 1464h219l-215 -348h-185l-215 348h219l89 -159z" />
    <glyph glyph-name="breve" unicode="&#x2d8;" horiz-adv-x="919" 
d="M797 1452q0 -147 -90 -246.5t-238 -99.5t-237 99.5t-89 246.5h217q0 -60 27 -94.5t82 -34.5q56 0 83.5 34.5t27.5 94.5h217z" />
    <glyph glyph-name="dotaccent" unicode="&#x2d9;" horiz-adv-x="585" 
d="M315 1124q-71 0 -116 36.5t-45 105.5t45 105t116 36q70 0 114 -36t44 -105t-44 -105.5t-114 -36.5z" />
    <glyph glyph-name="ring" unicode="&#x2da;" horiz-adv-x="735" 
d="M379 1055q-101 0 -168.5 67t-67.5 168q0 102 67 168t169 66q103 0 168 -65.5t65 -168.5q0 -102 -65.5 -168.5t-167.5 -66.5zM379 1210q32 0 55 22t23 58q0 35 -23 56.5t-55 21.5q-34 0 -57 -21t-23 -57t23.5 -58t56.5 -22z" />
    <glyph glyph-name="ogonek" unicode="&#x2db;" horiz-adv-x="714" 
d="M506 0h-160q-43 -26 -74.5 -49.5t-63.5 -57t-48.5 -76t-16.5 -91.5q0 -142 114.5 -200.5t299.5 -12.5l35 196h-27q-108 0 -151 36t-43 89q0 74 135 166z" />
    <glyph glyph-name="tilde" unicode="&#x2dc;" horiz-adv-x="1013" 
d="M143 1122q0 320 211 320q39 0 70 -12.5t50 -31t36 -36.5t37.5 -30.5t44.5 -12.5q70 0 70 113h208q0 -320 -211 -320q-39 0 -69.5 12.5t-50 31t-36 36.5t-37 30.5t-44.5 12.5q-72 0 -72 -113h-207z" />
    <glyph glyph-name="hungarumlaut" unicode="&#x2dd;" horiz-adv-x="1159" 
d="M342 1468l291 -34l-291 -314l-199 37zM745 1468l291 -34l-291 -314l-198 37z" />
    <glyph glyph-name="gravecomb" unicode="&#x300;" 
d="M-322 1468l199 -311l-199 -37l-290 314z" />
    <glyph glyph-name="acutecomb" unicode="&#x301;" 
d="M-414 1468l291 -34l-291 -314l-198 37z" />
    <glyph glyph-name="uni0302" unicode="&#x302;" 
d="M-338 1452l215 -346h-219l-88 160l-88 -160h-219l215 346h184z" />
    <glyph glyph-name="tildecomb" unicode="&#x303;" 
d="M-850 1122q0 320 211 320q39 0 70 -12.5t50 -31t36 -36.5t37.5 -30.5t44.5 -12.5q69 0 69 113h209q0 -320 -211 -320q-39 0 -69.5 12.5t-50 31t-36 36.5t-37 30.5t-44.5 12.5q-72 0 -72 -113h-207z" />
    <glyph glyph-name="uni0304" unicode="&#x304;" 
d="M-805 1380h682v-227h-682v227z" />
    <glyph glyph-name="uni0306" unicode="&#x306;" 
d="M-123 1452q0 -147 -90 -246.5t-238 -99.5t-236.5 99.5t-88.5 246.5h217q0 -60 26.5 -94.5t81.5 -34.5q56 0 83.5 34.5t27.5 94.5h217z" />
    <glyph glyph-name="uni0307" unicode="&#x307;" 
d="M-270 1124q-71 0 -116.5 36.5t-45.5 105.5t45.5 105t116.5 36q70 0 113.5 -36t43.5 -105t-44 -105.5t-113 -36.5z" />
    <glyph glyph-name="uni0308" unicode="&#x308;" 
d="M-700 1124q-70 0 -115 36.5t-45 105.5t45 105t115 36q71 0 115 -36t44 -105t-44 -105.5t-115 -36.5zM-281 1124q-71 0 -115 36.5t-44 105.5t44 105t115 36t114.5 -36t43.5 -105t-43.5 -105.5t-114.5 -36.5z" />
    <glyph glyph-name="uni030A" unicode="&#x30a;" 
d="M-356 1055q-101 0 -168.5 67t-67.5 168q0 102 67 168t169 66q103 0 168 -65.5t65 -168.5q0 -102 -65.5 -168.5t-167.5 -66.5zM-356 1210q32 0 54.5 22t22.5 58q0 35 -22.5 56.5t-54.5 21.5q-34 0 -57 -21t-23 -57t23.5 -58t56.5 -22z" />
    <glyph glyph-name="uni030B" unicode="&#x30b;" 
d="M-776 1468l291 -34l-291 -314l-199 37zM-373 1468l291 -34l-291 -314l-198 37z" />
    <glyph glyph-name="uni030C" unicode="&#x30c;" 
d="M-342 1464h219l-215 -348h-184l-215 348h219l88 -159z" />
    <glyph glyph-name="uni0312" unicode="&#x312;" 
d="M-246 1438q57 -8 90 -46t33 -100q0 -69 -41 -107t-110 -38q-67 0 -107.5 38t-40.5 107v2q0 112 59.5 203t129.5 141l69 -28q-89 -89 -82 -172z" />
    <glyph glyph-name="uni0326" unicode="&#x326;" 
d="M-123 -260v-2q0 -78 -33.5 -152t-73 -118t-81.5 -74l-70 28q89 89 82 172q-57 8 -90 46t-33 100q0 69 41.5 107t110.5 38q67 0 107 -38t40 -107z" />
    <glyph glyph-name="uni0327" unicode="&#x327;" 
d="M-549 -154l82 174h152l-21 -104q95 0 154 -52.5t59 -150.5q0 -59 -21.5 -101.5t-56.5 -67.5t-93 -39.5t-118 -19.5t-143 -5l-41 176h27q126 0 172.5 19.5t46.5 72.5t-45 75.5t-154 22.5z" />
    <glyph glyph-name="uni0328" unicode="&#x328;" 
d="M-209 0h-160q-43 -26 -74.5 -49.5t-63 -57t-48 -76t-16.5 -91.5q0 -142 114 -200.5t299 -12.5l35 196h-27q-108 0 -151 36t-43 89q0 74 135 166z" />
    <glyph glyph-name="uni0335" unicode="&#x335;" 
d="M-735 635h612v-238h-612v238z" />
    <glyph glyph-name="uni0336" unicode="&#x336;" 
d="M-1473 635h1350v-238h-1350v238z" />
    <glyph glyph-name="uni0337" unicode="&#x337;" 
d="M-123 864v-241l-792 -281v242z" />
    <glyph glyph-name="uni0338" unicode="&#x338;" 
d="M-305 1516l-985 -1598h182l985 1598h-182z" />
    <glyph glyph-name="Wgrave" unicode="&#x1e80;" horiz-adv-x="2015" 
d="M1108 1577l-199 -37l-291 313l291 35zM1655 1434h309l-387 -1434h-322h-2l-235 944l-234 -944h-323h-2l-387 1434h311l240 -975l237 975h316l239 -975z" />
    <glyph glyph-name="wgrave" unicode="&#x1e81;" horiz-adv-x="1705" 
d="M958 1157l-198 -37l-291 314l291 34zM1346 1014h286l-291 -1014h-317h-2l-164 645l-164 -645h-317h-2l-291 1014h287l164 -688l163 688h320l164 -688z" />
    <glyph glyph-name="Wacute" unicode="&#x1e82;" horiz-adv-x="2015" 
d="M1380 1853l-290 -313l-199 37l199 311zM1655 1434h309l-387 -1434h-322h-2l-235 944l-234 -944h-323h-2l-387 1434h311l240 -975l237 975h316l239 -975z" />
    <glyph glyph-name="wacute" unicode="&#x1e83;" horiz-adv-x="1705" 
d="M1231 1434l-291 -314l-199 37l199 311zM1346 1014h286l-291 -1014h-317h-2l-164 645l-164 -645h-317h-2l-291 1014h287l164 -688l163 688h320l164 -688z" />
    <glyph glyph-name="Wdieresis" unicode="&#x1e84;" horiz-adv-x="2015" 
d="M801 1544q-70 0 -115 36.5t-45 105.5t45 105t115 36q71 0 115.5 -36t44.5 -105t-44.5 -105.5t-115.5 -36.5zM1221 1544q-71 0 -115.5 36.5t-44.5 105.5t44.5 105t115.5 36t114 -36t43 -105t-43 -105.5t-114 -36.5zM1655 1434h309l-387 -1434h-322h-2l-235 944l-234 -944
h-323h-2l-387 1434h311l240 -975l237 975h316l239 -975z" />
    <glyph glyph-name="wdieresis" unicode="&#x1e85;" horiz-adv-x="1705" 
d="M651 1124q-70 0 -114.5 36.5t-44.5 105.5t44.5 105t114.5 36q71 0 115.5 -36t44.5 -105t-44.5 -105.5t-115.5 -36.5zM1071 1124q-71 0 -115.5 36.5t-44.5 105.5t44.5 105t115.5 36t114.5 -36t43.5 -105t-43.5 -105.5t-114.5 -36.5zM1346 1014h286l-291 -1014h-317h-2
l-164 645l-164 -645h-317h-2l-291 1014h287l164 -688l163 688h320l164 -688z" />
    <glyph glyph-name="Ygrave" unicode="&#x1ef2;" horiz-adv-x="1388" 
d="M801 1577l-199 -37l-291 313l291 35zM989 1436h330l-459 -873v-563h-307v563l-461 871h330l283 -580z" />
    <glyph glyph-name="ygrave" unicode="&#x1ef3;" horiz-adv-x="1054" 
d="M633 1157l-199 -37l-291 314l291 34zM674 1014h297v-996q0 -108 -19.5 -184.5t-53 -123.5t-89 -74t-116.5 -36.5t-146 -9.5h-330l-41 238h330q100 0 134 48t34 142v117q-100 -139 -283 -139q-146 0 -212 87.5t-66 238.5v696h297v-635q0 -77 30.5 -113.5t102.5 -36.5
q70 0 100.5 36.5t30.5 113.5v631z" />
    <glyph glyph-name="endash" unicode="&#x2013;" horiz-adv-x="1220" 
d="M143 670h955v-238h-955v238z" />
    <glyph glyph-name="emdash" unicode="&#x2014;" horiz-adv-x="1630" 
d="M143 670h1364v-238h-1364v238z" />
    <glyph glyph-name="quoteleft" unicode="&#x2018;" horiz-adv-x="503" 
d="M279 1331q57 -8 89.5 -45.5t32.5 -99.5q0 -69 -41 -107.5t-110 -38.5q-67 0 -107.5 38.5t-40.5 107.5v2q0 112 59.5 203t129.5 141l69 -29q-88 -88 -81 -172z" />
    <glyph glyph-name="quoteright" unicode="&#x2019;" horiz-adv-x="503" 
d="M401 1378v-2q0 -111 -59 -201.5t-129 -140.5l-70 29q89 89 82 172q-57 8 -90 44.5t-33 98.5q0 69 41.5 108.5t110.5 39.5q67 0 107 -39t40 -109z" />
    <glyph glyph-name="quotesinglbase" unicode="&#x201a;" horiz-adv-x="503" 
d="M401 137v-2q0 -78 -33.5 -152t-73 -118t-81.5 -74l-70 29q88 94 82 172q-57 8 -90 45.5t-33 99.5q0 69 41.5 107.5t110.5 38.5q67 0 107 -38.5t40 -107.5z" />
    <glyph glyph-name="quotedblleft" unicode="&#x201c;" horiz-adv-x="880" 
d="M279 1331q57 -8 89.5 -45.5t32.5 -99.5q0 -69 -41 -107.5t-110 -38.5q-67 0 -107.5 38.5t-40.5 107.5v2q0 112 59.5 203t129.5 141l69 -29q-88 -88 -81 -172zM655 1331q57 -8 90 -45.5t33 -99.5q0 -69 -41 -107.5t-110 -38.5q-67 0 -107.5 38.5t-40.5 107.5v2
q0 112 59.5 203t129.5 141l69 -29q-89 -89 -82 -172z" />
    <glyph glyph-name="quotedblright" unicode="&#x201d;" horiz-adv-x="880" 
d="M254 1526q67 0 107 -38.5t40 -107.5v-2q0 -78 -33.5 -152t-73 -118t-81.5 -74l-70 29q89 89 82 172q-57 8 -90 45.5t-33 99.5q0 69 41.5 107.5t110.5 38.5zM778 1380v-2q0 -78 -33.5 -152t-73 -118t-81.5 -74l-70 29q89 89 82 172q-57 8 -90 45.5t-33 99.5
q0 69 41.5 107.5t110.5 38.5q67 0 107 -38.5t40 -107.5z" />
    <glyph glyph-name="quotedblbase" unicode="&#x201e;" horiz-adv-x="876" 
d="M254 283q67 0 107 -38.5t40 -107.5v-2q0 -78 -33.5 -152t-73 -118t-81.5 -74l-70 29q88 94 82 172q-57 8 -90 45.5t-33 99.5q0 69 41.5 107.5t110.5 38.5zM774 137v-2q0 -78 -33.5 -152t-73 -118t-81.5 -74l-72 29q89 89 82 172q-57 8 -90 45.5t-33 99.5q0 69 41.5 107.5
t110.5 38.5q67 0 108 -38.5t41 -107.5z" />
    <glyph glyph-name="dagger" unicode="&#x2020;" horiz-adv-x="831" 
d="M709 1233v-156h-205v-733h-156v733h-205v156h205v283h156v-283h205z" />
    <glyph glyph-name="daggerdbl" unicode="&#x2021;" horiz-adv-x="917" 
d="M709 1077h-205v-114h205v-156h-205v-463h-156v463h-205v156h205v114h-205v156h205v283h156v-283h205v-156z" />
    <glyph glyph-name="bullet" unicode="&#x2022;" horiz-adv-x="602" 
d="M311 803q88 0 148.5 -50.5t60.5 -152.5t-60.5 -152.5t-148.5 -50.5t-148.5 50.5t-60.5 152.5t60.5 152.5t148.5 50.5z" />
    <glyph glyph-name="ellipsis" unicode="&#x2026;" horiz-adv-x="1294" 
d="M254 283q67 0 107 -38.5t40 -107.5t-40 -108t-107 -39q-69 0 -110.5 39t-41.5 108t41.5 107.5t110.5 38.5zM649 283q67 0 107.5 -38.5t40.5 -107.5t-40.5 -108t-107.5 -39q-69 0 -110 39t-41 108t41 107.5t110 38.5zM1044 283q67 0 107.5 -38.5t40.5 -107.5t-40.5 -108
t-107.5 -39q-69 0 -110 39t-41 108t41 107.5t110 38.5z" />
    <glyph glyph-name="perthousand" unicode="&#x2030;" horiz-adv-x="1904" 
d="M391 946q-103 0 -175.5 73t-72.5 177q0 103 72.5 175.5t175.5 72.5q104 0 177 -72.5t73 -175.5q0 -104 -73 -177t-177 -73zM1026 1434h182l-882 -1434h-183zM391 1102q43 0 68.5 25.5t25.5 68.5q0 41 -25.5 66.5t-68.5 25.5q-41 0 -66.5 -25.5t-25.5 -66.5
q0 -43 25.5 -68.5t66.5 -25.5zM958 -10q-103 0 -175 73t-72 177q0 103 72 175t175 72q104 0 177 -72t73 -175q0 -104 -73 -177t-177 -73zM1532 -10q-103 0 -175.5 73t-72.5 177q0 103 72.5 175t175.5 72q104 0 177 -72t73 -175q0 -104 -73 -177t-177 -73zM958 145
q43 0 69 26t26 69q0 41 -26 66.5t-69 25.5q-41 0 -66.5 -25.5t-25.5 -66.5q0 -43 25.5 -69t66.5 -26zM1532 145q43 0 68.5 26t25.5 69q0 41 -25.5 66.5t-68.5 25.5q-41 0 -66.5 -25.5t-25.5 -66.5q0 -43 25.5 -69t66.5 -26z" />
    <glyph glyph-name="guilsinglleft" unicode="&#x2039;" horiz-adv-x="669" 
d="M608 942l-205 -391l205 -391h-321l-205 391l205 391h321z" />
    <glyph glyph-name="guilsinglright" unicode="&#x203a;" horiz-adv-x="669" 
d="M403 942l205 -391l-205 -391h-321l205 391l-205 391h321z" />
    <glyph glyph-name="fraction" unicode="&#x2044;" horiz-adv-x="1290" 
d="M1026 1434h182l-882 -1434h-183z" />
    <glyph glyph-name="Euro" unicode="&#x20ac;" horiz-adv-x="1415" 
d="M1313 946l-307 -41v72q0 199 -207 199q-209 0 -209 -199v-92h325v-156h-325v-72h325v-155h-325v-45q0 -199 209 -199q207 0 207 199v71l307 -41v-41q0 -104 -28 -184.5t-75 -131t-114.5 -83t-139.5 -45t-157 -12.5t-157 12.5t-140 45t-115 83t-75.5 131t-28.5 184.5v56
h-150v155h150v72h-150v156h150v102q0 104 28.5 184.5t75.5 131t115 83t140 45.5t157 13t157 -13t139.5 -45.5t114.5 -83t75 -131t28 -184.5v-41z" />
    <glyph glyph-name="trademark" unicode="&#x2122;" horiz-adv-x="1634" 
d="M702 1434v-156h-200v-477h-156v477h-203v156h559zM1356 1434h155v-633h-155v352l-203 -295l-203 295v-352h-155v633h155l203 -312z" />
    <glyph glyph-name="partialdiff" unicode="&#x2202;" horiz-adv-x="1228" 
 />
    <glyph glyph-name="emptyset" unicode="&#x2205;" horiz-adv-x="1310" 
d="M1006 997q87 -72 134.5 -177t47.5 -226q0 -220 -147 -371t-375 -151q-109 0 -207 39l-68 -111h-182l117 190q-87 71 -135 176.5t-48 227.5q0 220 147.5 371t375.5 151q110 0 208 -39l68 111h182zM299 594q0 -159 113 -266l376 612q-56 21 -122 21q-159 0 -263 -108.5
t-104 -258.5zM666 227q159 0 262.5 108.5t103.5 258.5q0 156 -110 266l-379 -612q59 -21 123 -21z" />
    <glyph glyph-name="product" unicode="&#x220f;" horiz-adv-x="1296" 
d="M1174 1434v-156h-216v-1368h-155v1368h-289v-1368h-156v1368h-215v156h371h444h216z" />
    <glyph glyph-name="summation" unicode="&#x2211;" horiz-adv-x="1228" 
 />
    <glyph glyph-name="minus" unicode="&#x2212;" horiz-adv-x="1036" 
d="M143 696h770v-155h-770v155z" />
    <glyph glyph-name="radical" unicode="&#x221a;" horiz-adv-x="1228" 
 />
    <glyph glyph-name="infinity" unicode="&#x221e;" horiz-adv-x="1196" 
 />
    <glyph glyph-name="integral" unicode="&#x222b;" horiz-adv-x="1228" 
 />
    <glyph glyph-name="approxequal" unicode="&#x2248;" horiz-adv-x="1126" 
d="M143 670q0 146 74 222.5t180 76.5q53 0 97 -18t74 -43.5t56.5 -51t56 -43.5t60.5 -18q55 0 81 39.5t26 103.5h156q0 -147 -74 -223t-180 -76q-53 0 -97 18t-74 43.5t-56.5 51t-56 43.5t-60.5 18q-55 0 -81 -39.5t-26 -103.5h-156zM143 289q0 146 74 222.5t180 76.5
q53 0 97 -18t74 -44t56.5 -52t56 -44t60.5 -18q55 0 81 40t26 103h156q0 -146 -74 -222.5t-180 -76.5q-53 0 -97 18t-74 44t-56.5 52t-56 44t-60.5 18q-55 0 -81 -40t-26 -103h-156z" />
    <glyph glyph-name="notequal" unicode="&#x2260;" horiz-adv-x="1036" 
d="M913 592h-282l-39 -103h321v-155h-378l-109 -287h-166l109 287h-226v155h283l39 103h-322v156h381l109 290h166l-109 -290h223v-156z" />
    <glyph glyph-name="lessequal" unicode="&#x2264;" horiz-adv-x="806" 
d="M684 1022v-168l-354 -102l354 -105v-168l-541 191v164zM143 256v156h541v-156h-541z" />
    <glyph glyph-name="greaterequal" unicode="&#x2265;" horiz-adv-x="806" 
d="M143 1022l541 -188v-164l-541 -191v168l355 105l-355 102v168zM143 256v156h541v-156h-541z" />
    <glyph glyph-name="lozenge" unicode="&#x25ca;" horiz-adv-x="1030" 
d="M639 1014l268 -447l-268 -446h-178h-49l-269 446l269 447h180h47zM526 229l203 338l-203 338l-204 -338z" />
    <glyph glyph-name="i.loclTRK" horiz-adv-x="483" 
d="M264 1124q-71 0 -116.5 36.5t-45.5 105.5t45.5 105t116.5 36q70 0 114 -36t44 -105t-44 -105.5t-114 -36.5zM113 1014v-1014h297v1014h-297z" />
    </font>
</defs>
</svg>
